<svg width="480" height="400" fill="none" xmlns="http://www.w3.org/2000/svg"><path d="m378.369 99.826 2.077 4.324 4.669.689-3.373 3.372.792 4.74-4.165-2.244-4.176 2.244.803-4.74-3.372-3.372 4.657-.689 2.088-4.324zM49.574 75.983l2.088 4.324 4.658.69-3.373 3.36.792 4.752-4.165-2.244-4.176 2.244.803-4.751-3.372-3.361 4.657-.69 2.088-4.324zM411.411 77.647l1.296 2.67 2.88.428-2.088 2.08.493 2.933-2.581-1.39-2.569 1.39.492-2.934-2.088-2.08 2.881-.426 1.284-2.671zM96.129 55.359l1.285 2.67 2.891.428-2.088 2.08.492 2.933-2.58-1.39-2.58 1.39.492-2.933-2.077-2.08 2.88-.427 1.285-2.671zM398.755 54.943l.793 1.642 1.788.263-1.285 1.291.3 1.807-1.596-.854-1.595.854.311-1.807-1.285-1.291 1.777-.263.792-1.642zM69.779 7.663l.792 1.653 1.777.263-1.284 1.292.3 1.806-1.585-.854-1.596.854.3-1.806-1.285-1.292 1.778-.263.803-1.653z" fill="#C7C7C7"/><path d="M283.693 212.21c1.414 4.192-.128 10.947 3.095 10.804 2.869-.098 3.49-4.849 3.49-4.849s.996 5.583 4.048 4.587c3.051-.997 2.709-6.35 2.709-6.35s.621 4.686 3.597 3.471c2.977-1.216 3.501-5.824 3.501-5.824s1.071 1.215 2.806-.613c2.473-2.617 1.424-10.411-.075-14.352-1.499-3.941-9.808-17.219-11.114-19.234l-24.798 9.59s-.503 8.254-.257 12.469c.246 4.214 4.818 17.876 8.212 16.945 3.395-.93 0-10.52-.332-13.059-.331-2.54.193-3.044 1.21-2.015.664.701 3.287 6.612 3.908 8.43z" fill="#AD6359"/><path d="M290.204 217.957c.407-6.678-.536-9.678-3.63-15.469-.064-.109.086-.229.161-.109 3.533 5.375 5.257 8.966 3.779 15.621-.064.318-.332.274-.31-.043zM296.949 216.72c-.161-6.985-1.167-10.247-3.962-16.552 0-.088.097-.164.15-.077 3.212 5.944 4.893 9.568 4.155 16.563-.033.317-.332.383-.343.066zM304.069 214.005c-.631-6.743-1.584-10.367-5.064-16.125a.118.118 0 0 1-.019-.043.123.123 0 0 1 .046-.127.107.107 0 0 1 .042-.019.117.117 0 0 1 .09.014c.013.009.024.02.034.033 4.122 5.473 5.353 10.027 5.075 16.234-.022.427-.161.427-.204.033z" fill="#263238"/><path d="M254.259 100.681c16.714 21.15 39.338 72.984 42.047 80.362 1.842 5.014-23.855 15.556-24.626 11.954-.964-4.597-17.763-61.85-21.714-83.197-2.152-11.844.835-13.486 4.293-9.119z" fill="#AD6359"/><path d="M249.762 115.175c2.752 19.541 19.177 73.75 19.177 73.75l19.476-7.575 9.829-3.832s-27.838-54.133-39.541-72.064c-.91-1.379-1.745-2.572-2.516-3.569-7.388-9.611-8.545-1.762-6.425 13.29z" fill="#616161"/><path d="M288.533 171.935a8.468 8.468 0 0 1 0-4.225 8.468 8.468 0 0 1 0 4.225zM253.157 103.583a7.613 7.613 0 0 1-.268-2.124 7.529 7.529 0 0 1 .268-2.113c.183.689.273 1.399.267 2.113a8.048 8.048 0 0 1-.267 2.124zM274.946 161.12a7.937 7.937 0 0 1 4.133 0 7.937 7.937 0 0 1-4.133 0zM264.839 134.08a7.975 7.975 0 0 1 4.143 0 6.753 6.753 0 0 1-2.066.274 7.08 7.08 0 0 1-2.077-.274zM280.546 149.593a7.566 7.566 0 0 1-1.649-1.303 7.278 7.278 0 0 1-1.274-1.686 8.277 8.277 0 0 1 2.923 2.989zM260.041 116.39a7.531 7.531 0 0 1-1.649-1.302 7.32 7.32 0 0 1-1.274-1.686 7.126 7.126 0 0 1 1.649 1.303c.5.498.929 1.066 1.274 1.685zM266.187 171.027a8.213 8.213 0 0 1-2.934-2.989c.613.35 1.172.789 1.66 1.303a7.927 7.927 0 0 1 1.274 1.686zM266.915 148.717a7.98 7.98 0 0 1-1.274 1.696 7.508 7.508 0 0 1-1.659 1.303 8.115 8.115 0 0 1 2.933-2.999zM279.786 178.273a8.214 8.214 0 0 1-2.923 3 7.381 7.381 0 0 1 1.274-1.697 7.518 7.518 0 0 1 1.649-1.303zM258.575 123.889a8.3 8.3 0 0 1-2.923 2.989 8.277 8.277 0 0 1 2.923-2.989z" fill="#fff"/><path d="M267.858 183.079c11.564-5.572 24.53-9.622 26.768-10.498.011-.004.023-.005.035-.004a.087.087 0 0 1 .06.033c.008.009.014.02.017.031.004.012.005.024.004.036a.096.096 0 0 1-.032.062.073.073 0 0 1-.031.017c-2.216.745-16.542 7.017-26.768 10.509-.117.044-.16-.131-.053-.186z" fill="#263238"/><path d="m286.521 182.083-17.582 6.842s-16.424-54.209-19.176-73.75c-1.392-9.852-1.371-16.639.889-17.416l35.869 84.324z" fill="#263238"/><path d="M235.822 331.784V372.2c0 7.718.064 14.494.429 17.986a.123.123 0 0 0 0 .066c.003.827.189 1.643.546 2.386 2.237 1.576 62.604 3.689 64.735 3.032 2.131-.656.482-6.907-1.799-8.9-2.28-1.992-25.044-13.366-25.044-13.366l-.385-40.372-38.482-1.248z" fill="#DD6A57"/><path d="M235.833 363.902v8.298c0 7.718.064 14.494.428 17.986a.147.147 0 0 0 0 .066c.089.814.273 1.615.546 2.386 2.238 1.576 62.605 3.689 64.735 3.032 2.131-.657.482-6.907-1.798-8.9-2.281-1.992-25.044-13.366-25.044-13.366l.107-8.418-38.974-1.084z" fill="#455A64"/><path d="M301.607 395.714c-2.142.657-62.487-1.456-64.736-3.032-.867-.581-1.07-9.59-1.07-20.482v-.34l38.952.909v.679s22.753 11.374 25.044 13.366c2.292 1.992 3.951 8.265 1.81 8.9z" fill="#616161"/><path d="M300.997 393.305c-10.172-.613-51.234-2.101-61.32-1.915-.086 0-.086.054 0 .065 10.064.832 51.137 1.971 61.32 2.015.203 0 .214-.154 0-.165zM278.051 373.689c-3.972-.909-8.887-.449-12.045 2.353-.129.11 0 .285.16.252a54.585 54.585 0 0 1 11.821-2.069c.07.009.14-.011.195-.055a.27.27 0 0 0 .099-.18.268.268 0 0 0-.23-.301zM280.856 375.561c-3.983-.898-8.897-.438-12.056 2.364-.118.11 0 .285.161.252a54.49 54.49 0 0 1 11.863-2.091.259.259 0 0 0 .273-.246.26.26 0 0 0-.241-.279zM283.683 377.444c-3.972-.898-8.898-.438-12.056 2.364-.118.11 0 .285.171.252a54.272 54.272 0 0 1 11.853-2.091.255.255 0 0 0 .186-.065.263.263 0 0 0 .087-.181.27.27 0 0 0-.064-.191.255.255 0 0 0-.177-.088z" fill="#263238"/><path d="m232.364 182.028 1.509 120.713.889 71.155 42.25-.854-8.265-193.422-.418-22.146h-35.676l-.289 24.554z" fill="#EEE"/><path d="M275.246 365.828c-6.596-.054-4.711-.131-11.307-.12-3.212 0-24.444.088-27.453.635a.064.064 0 0 0-.045.019.066.066 0 0 0 0 .093.064.064 0 0 0 .045.019c3.019.482 24.23 0 27.453 0 6.596-.153 4.701-.186 11.296-.405a.103.103 0 0 0 .046-.007.106.106 0 0 0 .039-.024.11.11 0 0 0 .027-.038.104.104 0 0 0 .011-.046.106.106 0 0 0-.007-.046.113.113 0 0 0-.06-.068.12.12 0 0 0-.045-.012zM256.423 189.483c0-.087.139-.087.139 0 0 11.287.342 22.584.61 33.87.268 11.287.589 22.584.889 33.881.599 22.562 1.488 45.124 2.302 67.686a2109.867 2109.867 0 0 0 1.713 37.953c0 .076-.118.076-.128 0-1.596-22.54-3.138-45.08-4.005-67.664-.867-22.583-1.51-45.134-1.617-67.718-.053-12.665.118-25.331.097-38.008zM232.364 182.028l1.509 120.713 28.321-145.267h-29.541l-.289 24.554z" fill="#263238"/><path d="M227.417 332.988s-5.043 38.5-5.043 38.522c0 7.729-.225 14.494-.632 17.997a.128.128 0 0 1 0 .055 5.564 5.564 0 0 1-.567 2.375v.055c-2.259 1.544-62.648 2.945-64.768 2.266-2.12-.679-.407-6.907 1.895-8.878 2.302-1.97 25.194-13.071 25.194-13.071l6.339-40.339 37.582 1.018z" fill="#DD6A57"/><path d="M223.016 363.278c-.396 4.827-.663 8.243-.663 8.265 0 7.728-.225 14.494-.632 17.997a.123.123 0 0 1 0 .054c-.097.812-.288 1.61-.568 2.376v.055c-2.259 1.543-62.647 2.944-64.767 2.266-2.12-.679-.407-6.908 1.895-8.878 2.302-1.971 25.194-13.071 25.194-13.071l.749-8.517 38.792-.547z" fill="#455A64"/><path d="M156.332 394.258c2.142.678 62.498-.723 64.768-2.266.867-.581 1.178-9.579 1.252-20.482v-.34l-38.963.46v.679s-22.881 11.1-25.194 13.071c-2.312 1.97-3.993 8.21-1.863 8.878z" fill="#616161"/><path d="M156.964 391.849c10.172-.492 51.245-1.488 61.331-1.193.085 0 .085.066 0 .066-10.076.711-51.159 1.379-61.342 1.302-.203-.01-.203-.164.011-.175zM179.053 371.849c3.993-.853 8.908-.339 12.034 2.507.118.11 0 .285-.171.241a55.1 55.1 0 0 0-11.831-2.189.272.272 0 0 1-.198-.07.284.284 0 0 1-.023-.395.272.272 0 0 1 .189-.094zM176.205 373.699c3.994-.864 8.898-.35 12.024 2.496.129.121 0 .285-.161.252a55.088 55.088 0 0 0-11.831-2.189.273.273 0 0 1-.289-.263.283.283 0 0 1 .154-.268.282.282 0 0 1 .103-.028zM173.356 375.549c3.984-.864 8.898-.35 12.025 2.496.117.11 0 .285-.161.252a55.064 55.064 0 0 0-11.842-2.189.269.269 0 0 1-.196-.074.28.28 0 0 1-.015-.395.272.272 0 0 1 .189-.09z" fill="#263238"/><path d="M264.699 157.474c-.15.755-2.645 12.589-5.236 22.759-1.884 7.422-3.811 13.957-4.925 14.625-1.113.668-7.388 3.536-9.444 4.379l-9.368 91.681-12.571 82.475-42.154-2.255 33.803-213.664h49.895z" fill="#EEE"/><path d="M222.93 365.544c-6.585-.438-4.689-.405-11.274-.766-3.212-.176-24.402-1.325-27.443-.953a.064.064 0 0 0-.045.019.066.066 0 0 0 0 .093.06.06 0 0 0 .045.02c2.988.656 24.188 1.423 27.411 1.532 6.595.241 4.711.099 11.296.252a.08.08 0 0 0 .037-.006.08.08 0 0 0 .032-.019.087.087 0 0 0 .023-.031.08.08 0 0 0 .009-.037.097.097 0 0 0-.024-.071.113.113 0 0 0-.03-.024.118.118 0 0 0-.037-.009zM198.818 342.041c1.028-5.89 2.067-11.779 3.116-17.669 2.142-11.786 4.283-23.565 6.424-35.336a19778.84 19778.84 0 0 0 12.849-70.74c2.377-13.333 2.313-12.042 4.379-25.463 0-.087.161-.076.15 0-1.991 11.889-1.071 9.283-2.923 21.194-1.852 11.91-3.833 23.569-5.9 35.326-4.143 23.623-8.49 47.203-12.848 70.783a3009.584 3009.584 0 0 1-3.748 19.814c-1.285 6.743-2.751 13.432-4.111 20.153 0 .154-.257.132-.236 0 .878-6.02 1.778-12.052 2.848-18.062zM210.189 193.709c1.071-.285 2.281-.384 3.405-.559.91-.153 1.82-.317 2.72-.514a11.822 11.822 0 0 0 4.786-2.058 11.69 11.69 0 0 0 3.105-4.937c.45-1.095.91-2.19 1.381-3.208.225-.514.45-1.029.685-1.543.32-.6.606-1.217.857-1.85 0-.099.171 0 .128 0-.171.427-.246.897-.374 1.335-.129.438-.3 1.095-.461 1.555-.278.93-.557 1.85-.846 2.769a22.28 22.28 0 0 1-1.927 4.85c-1.66 2.715-4.636 3.798-7.613 4.181-.846.11-1.713.176-2.569.23a18.736 18.736 0 0 1-3.213 0c-.192.033-.246-.208-.064-.251zM257.793 193.206a78.887 78.887 0 0 0-12.634 6.009.163.163 0 0 0-.045.033.158.158 0 0 0-.029.048.148.148 0 0 0 .037.157.124.124 0 0 0 .046.029.13.13 0 0 0 .055.009.13.13 0 0 0 .054-.013c4.282-1.861 8.565-3.656 12.741-5.758a.29.29 0 0 0 .106-.357.283.283 0 0 0-.137-.142.27.27 0 0 0-.194-.015zM259.067 163.408c0-.154-.267-.187-.267 0a148.025 148.025 0 0 1-.718 14.526c-.193 2.244-1.959 14.625-5.76 13.728-.632-.153-.953-.788-1.071-1.774a16.43 16.43 0 0 1 .503-3.798c.429-2.595.76-5.189.985-7.816a71.989 71.989 0 0 0-.16-14.647.126.126 0 0 0-.047-.068.125.125 0 0 0-.153 0 .131.131 0 0 0-.047.068 135.734 135.734 0 0 1-1.156 20.23c-.471 3.218-2.056 8.067 1.231 8.571 3.287.504 5.536-7.663 5.943-9.852a75.582 75.582 0 0 0 .717-19.168z" fill="#263238"/><path d="M252.429 191.968c-.34.838-.626 1.697-.857 2.573a5.957 5.957 0 0 0-.353 2.113c0 .131.193.142.257 0a7.305 7.305 0 0 0 .878-1.96c.289-.788.589-1.576.857-2.375a.453.453 0 0 0-.014-.318.433.433 0 0 0-.22-.224.427.427 0 0 0-.548.191z" fill="#263238"/><path d="M208.936 177.979c.15.164 63.579-1.883 64.136-2.562.771-.974-12.848-65.375-23.555-79.015-2.699-3.405-11.778-4.38-15.344-.548-10.332 10.947-12.195 18.807-14.669 26.109-1.831 5.397-3.908 14.57-5.728 23.952-3.041 15.457-5.386 31.472-4.84 32.064z" fill="#616161"/><path d="M253.521 162.642a7.536 7.536 0 0 1-.268-2.113 7.145 7.145 0 0 1 .268-2.113 8.471 8.471 0 0 1 0 4.226zM246.144 132.953a7.932 7.932 0 0 1-.268-2.113 8.008 8.008 0 0 1 .268-2.124c.189.691.279 1.407.268 2.124a7.531 7.531 0 0 1-.268 2.113zM226.239 121.207a7.536 7.536 0 0 1-.268-2.113 7.613 7.613 0 0 1 .268-2.124c.189.691.279 1.407.268 2.124a7.932 7.932 0 0 1-.268 2.113zM226.507 156.873a8.471 8.471 0 0 1 0-4.226c.189.687.279 1.399.267 2.113a7.972 7.972 0 0 1-.267 2.113zM238.167 151.136a7.937 7.937 0 0 1 4.133 0 7.937 7.937 0 0 1-4.133 0zM223.445 133.588a7.975 7.975 0 0 1 4.143 0 7.975 7.975 0 0 1-4.143 0zM244.077 113.686a7.09 7.09 0 0 1 2.067-.274 6.692 6.692 0 0 1 2.066.274 7.937 7.937 0 0 1-4.133 0zM221.871 170.096a7.975 7.975 0 0 1 4.143 0 7.975 7.975 0 0 1-4.143 0zM250.341 173.512a7.521 7.521 0 0 1 2.077-.274 7.45 7.45 0 0 1 2.067.274 7.055 7.055 0 0 1-2.067.273 7.122 7.122 0 0 1-2.077-.273zM241.7 170.096a7.294 7.294 0 0 1-1.659-1.302 7.608 7.608 0 0 1-1.274-1.686 7.2 7.2 0 0 1 1.659 1.303 7.947 7.947 0 0 1 1.274 1.685zM220.136 146.527a8.218 8.218 0 0 1-2.934-2.988c.612.35 1.171.788 1.66 1.302a7.67 7.67 0 0 1 1.274 1.686zM254.613 143.977a8.214 8.214 0 0 1-2.923-3 7.536 7.536 0 0 1 1.649 1.303 7.36 7.36 0 0 1 1.274 1.697zM238.167 122.74a8.213 8.213 0 0 1-2.934-2.989 7.2 7.2 0 0 1 1.659 1.303 7.932 7.932 0 0 1 1.275 1.686zM266.187 171.027a8.213 8.213 0 0 1-2.934-2.989c.613.35 1.172.789 1.66 1.303a7.927 7.927 0 0 1 1.274 1.686zM266.915 148.717a7.98 7.98 0 0 1-1.274 1.696 7.508 7.508 0 0 1-1.659 1.303 8.115 8.115 0 0 1 2.933-2.999zM236.293 140.134a8.27 8.27 0 0 1-2.923 2.989 7.278 7.278 0 0 1 1.274-1.686 7.536 7.536 0 0 1 1.649-1.303zM214.804 160.693a8.3 8.3 0 0 1-2.923 2.989 8.27 8.27 0 0 1 2.923-2.989zM258.575 123.889a8.3 8.3 0 0 1-2.923 2.989 8.277 8.277 0 0 1 2.923-2.989zM234.826 106.44a7.648 7.648 0 0 1-1.274 1.697 7.757 7.757 0 0 1-1.649 1.302 7.433 7.433 0 0 1 1.274-1.696 7.536 7.536 0 0 1 1.649-1.303z" fill="#fff"/><path d="M246.411 104.568c-2.623.525-8.865-3.69-11.638-7.663a71.643 71.643 0 0 1-.225-7.149c-.064-2.299-.193-4.838-.482-7.159 0-.482 1.638.197 1.638.197l3.02.35 9.989 1.183a38.19 38.19 0 0 0-.289 9.064c.041.32.113.635.215.941v.154c.503 1.817 1.884 9.25-2.228 10.082z" fill="#AD6359"/><path d="M248.638 94.376v.153a8.915 8.915 0 0 1-1.456.263c-9.636.996-12.302-11.287-12.302-11.287l3.801-.317 9.989 1.182a38.136 38.136 0 0 0-.289 9.064c.055.322.141.638.257.942z" fill="#263238"/><path d="M231.432 63.024c-1.542 5.2 1.178 20.197 4.797 23.536 5.257 4.838 13.834 5.276 17.838-1.172 3.897-6.25 0-25.725-4.026-28.757-5.964-4.467-16.339-1.281-18.609 6.393z" fill="#AD6359"/><path d="M244.398 71.114s-.064.066 0 .11c.257.995.375 2.189-.428 2.714v.055c1.007-.405.825-1.982.428-2.88z" fill="#263238"/><path d="M243.295 70.27c-1.606.242-1.017 3.504.472 3.285 1.488-.22.878-3.481-.472-3.284zM250.213 69.8s.085 0 .085.076c.15 1.018.493 2.19 1.446 2.321v.055c-1.114.055-1.531-1.456-1.531-2.452z" fill="#263238"/><path d="M250.898 68.585c1.574-.427 2.28 2.802.835 3.196-1.445.394-2.141-2.846-.835-3.196zM241.765 69.022c.417-.197.771-.448 1.156-.678.385-.23.824-.438 1.071-.93a.702.702 0 0 0-.257-.81 1.692 1.692 0 0 0-1.724.142 2.521 2.521 0 0 0-1.21 1.357.762.762 0 0 0 .196.773.723.723 0 0 0 .768.146zM251.776 67.096c-.45 0-.878-.055-1.328-.088a2.107 2.107 0 0 1-1.306-.394.718.718 0 0 1-.118-.854c.188-.242.437-.428.719-.54.282-.111.588-.144.887-.094a2.388 2.388 0 0 1 1.67.678.748.748 0 0 1 .18.834.737.737 0 0 1-.281.342.717.717 0 0 1-.423.116zM245.191 80.66c.278.196.567.481.931.437a2.676 2.676 0 0 0 1.018-.449h.053c-.106.225-.27.415-.473.552-.204.137-.44.215-.683.226a1.06 1.06 0 0 1-.576-.23 1.101 1.101 0 0 1-.356-.515s.043-.043.086-.022z" fill="#263238"/><path d="M245.673 77.44c.325.35.717.629 1.151.817.435.188.903.283 1.375.278a3.88 3.88 0 0 0 1.221-.175.766.766 0 0 0 .225-.065l.214-.077a.24.24 0 0 0 .15-.263.325.325 0 0 0 0-.098v-.088c-.118-.777-.407-1.948-.407-1.948.3.087 1.842.47 1.745.076a54.2 54.2 0 0 0-3.212-10.17.096.096 0 0 0-.178-.01.103.103 0 0 0-.004.076c.653 3.23 1.853 6.317 2.559 9.546a5.81 5.81 0 0 0-1.681-.186c-.096 0 .6 2.244.621 2.605a4.621 4.621 0 0 1-3.672-.449c-.107-.022-.172.066-.107.132z" fill="#263238"/><path d="M248.895 78.065a4.059 4.059 0 0 1-1.359 1.565 1.75 1.75 0 0 1-1.071.285c-.824-.066-.985-.8-.953-1.467.019-.35.08-.695.182-1.03a5.18 5.18 0 0 0 3.201.647z" fill="#263238"/><path d="m250.948 54.694.229.917.629-.705.001-.001.003-.004.016-.017.063-.069c.056-.059.137-.143.236-.241.2-.198.467-.447.748-.663.291-.223.553-.377.747-.432a.343.343 0 0 1 .134-.018l.011.014c.268.416.819 1.785.806 3.314-.012 1.495-.557 3.094-2.408 4.135-1.888 1.06-4.282.98-6.274.593a18.251 18.251 0 0 1-3.187-.935 7.83 7.83 0 0 1-.19-.08l-.047-.02-.011-.004-.003-.001-.678-.305-.026.743c-.073 2.083-1.388 3.585-2.768 4.594a11.419 11.419 0 0 1-2.705 1.448l-.009.004h-.002l-.358.12.017.377v.003l.001.012.002.049.003.193c.002.169 0 .412-.012.706a13.5 13.5 0 0 1-.257 2.173c-.167.802-.43 1.583-.829 2.186-.392.593-.898.99-1.572 1.102-.071.012-.23-.01-.503-.214-.262-.198-.563-.518-.886-.95-.644-.86-1.317-2.078-1.914-3.39-.596-1.31-1.106-2.692-1.429-3.866a11.402 11.402 0 0 1-.329-1.548c-.057-.45-.044-.747.001-.907.249-.878.942-1.569 1.634-2.057a7.132 7.132 0 0 1 1.258-.703l.017-.007.003-.002h.001l.225-.087.071-.232.001-.002.002-.009.014-.04c.012-.038.032-.094.058-.167a11.815 11.815 0 0 1 1.346-2.57c1.017-1.461 2.606-2.988 4.951-3.434 3.569-.526 7.196-.5 10.758.077l.436.071.124-.423.001-.003.003-.011.016-.05c.015-.045.036-.11.065-.186.058-.157.141-.358.243-.55.106-.197.215-.353.316-.446a.329.329 0 0 1 .098-.068.373.373 0 0 1 .049.042c.055.053.123.139.199.262.152.245.3.575.432.922a13.101 13.101 0 0 1 .4 1.248l.022.084.006.022.001.005z" fill="#000" stroke="#666"/><path d="M235.062 67.71c4.582-.1 7.109-3.635 7.088-8.134h.086c.492 4.127-2.56 9.283-7.185 8.352a.106.106 0 0 1-.074-.036.114.114 0 0 1-.028-.079.108.108 0 0 1 .113-.104zM231.036 59.685s.086.055 0 .088c-1.167.788-2.538 1.466-3.212 2.78-.857 1.588-.343 3.405.3 4.948.995 2.398 2.751 5.474 5.15 6.568.139.066 0 .274-.107.22-2.849-1.161-5.011-5.124-5.814-8.003-.9-3.24.824-5.43 3.683-6.6zM247.364 61.436c1.14.459 2.38.589 3.586.376a6.629 6.629 0 0 0 3.256-1.58c2.142-2.069 1.189-4.773-.192-6.93-.065-.109.075-.251.171-.153 1.702 1.818 2.291 4.905.621 6.963s-5.193 2.627-7.581 1.63c-.225-.087-.053-.393.139-.306z" fill="#263238"/><path d="M234.591 75.251s-3.416-4.773-5.546-3.514c-2.131 1.26.524 8.233 3.072 9.13a2.525 2.525 0 0 0 2.867-.597c.24-.257.427-.56.549-.892l-.942-4.127z" fill="#AD6359"/><path d="M229.869 73.707s-.054.066 0 .077a6.56 6.56 0 0 1 2.149 1.663 6.73 6.73 0 0 1 1.309 2.41 1.43 1.43 0 0 0-.423-.454 1.39 1.39 0 0 0-1.718.114c-.054 0 0 .099 0 .088a1.55 1.55 0 0 1 .959-.023c.315.094.593.286.797.548.333.445.624.921.867 1.423.086.154.364.066.3-.12.043-2.354-1.82-5.54-4.24-5.726z" fill="#263238"/><path d="m248.874 95.274-2.57 9.086-11.703-9.962-2.666 3.853s12.12 16.497 12.099 15.698l2.784-7.893 5.6 4.719-1.703-13.137-1.841-2.364z" fill="#EBEBEB"/><path d="M251.936 104.239c-.353-2.189-.653-4.379-1.071-6.47 0-.076-.139-.098-.139 0-.225 2.135 1.167 10.367 1.349 12.36-.235-.208-5.16-4.127-5.203-4.051-.643 1.27-2.688 7.017-2.816 7.532-1.917-2.616-9.969-12.896-12.174-15.326-.064-.066-.172 0-.118.088 1.735 2.802 12.174 16.42 12.292 16.333a84.112 84.112 0 0 0 2.901-8.342c.857.887 5.889 5.364 5.868 5.036a69.166 69.166 0 0 0-.889-7.16z" fill="#263238"/><path d="M223.959 104.502c-5.172-5.474-16.928-25.802-16.671-37.767.193-9.338 4.85-35.107 7.698-41.686 1.285-2.989 20.697 9.918 20.847 13.41.15 3.492-7.495 25.298-8.394 30.739-.429 2.573 1.188 15.797 5 27.838 3.437 10.849-2.163 14.111-8.48 7.466z" fill="#AD6359"/><path d="M213.562 30.49c.567-2.858 4.283-15.688 6.146-19.016C221.571 8.147 227.46-1.06 230.094.1c2.634 1.16 1.07 4.007 1.07 4.007s3.106-3.481 5.654-2.058 0 5.758 0 5.758 3.448-3.284 5.889-1.73c2.441 1.555-.803 5.474-.803 5.474s3.019-3.197 4.486-1.007c1.767 2.638-4.433 7.893-6.178 11.724-.396.876-6.799 18.238-6.799 18.238l-19.851-10.017z" fill="#AD6359"/><path d="M242.268 11.212c-4.551 3.875-5.889 6.382-7.688 12.041 0 .11-.203.088-.171 0 1.263-5.725 2.495-9.108 7.688-12.25.246-.218.385.022.171.209zM237.268 7.5c-4.379 4.445-5.857 7.149-8.159 12.95 0 .077-.171 0-.15-.054 1.799-5.879 3.105-9.228 8.052-13.136.225-.175.46-.011.257.24zM231.1 4.348c-3.94 4.63-5.675 7.52-7.206 13.443 0 .142-.246.099-.214 0 .574-5.327 3.184-10.205 7.26-13.574.289-.22.406-.154.16.131z" fill="#263238"/><path d="M234.473 44.786s5.621-5.265 7.302-8.21c1.681-2.945 3.962-16.311 1.167-16.979-3.608-.865-6.424 6.568-7.323 10.41 0 0-8.341-2.003-11.489 2.89-3.148 4.894 10.343 11.89 10.343 11.89z" fill="#AD6359"/><path d="M241.872 19.684c-3.844 1.643-4.722 6.744-5.868 10.4a.343.343 0 0 1-.384.252.335.335 0 0 1-.151-.066c-3.544-.602-8.726-.394-11.382 2.398a.093.093 0 0 1-.057.013.099.099 0 0 1-.055-.023.101.101 0 0 1-.031-.05.102.102 0 0 1 .004-.06c2.452-3.372 7.495-4.007 11.371-3.088 1.071-3.766 2.227-8.845 6.542-9.852.021.033.032.066.011.076z" fill="#263238"/><path d="m210.221 34.255 24.766 13.137s-6.424 18.292-6.96 21.697c-.535 3.404 5.493 27.52 6.328 32.633.835 5.112-11.778 22.988-12.773 14.001-.996-8.988-14.326-35.94-14.99-45.102-.664-9.162 3.629-36.366 3.629-36.366z" fill="#616161"/><path d="M225.586 79.532a7.607 7.607 0 0 1-.268-2.113 7.25 7.25 0 0 1 .268-2.124c.184.692.274 1.407.268 2.124 0 .713-.09 1.423-.268 2.113zM218.669 50.194a8.47 8.47 0 0 1 0-4.226 8.47 8.47 0 0 1 0 4.226zM227.963 89.417a7.935 7.935 0 0 1 4.133 0 7.933 7.933 0 0 1-4.133 0zM221.817 61.995a7.532 7.532 0 0 1 2.077-.274 7.062 7.062 0 0 1 2.067.274 7.062 7.062 0 0 1-2.067.273 7.133 7.133 0 0 1-2.077-.273zM226.196 101.458a8.201 8.201 0 0 1-2.933-2.988c.611.35 1.17.789 1.659 1.303.5.498.929 1.066 1.274 1.685zM217.266 74.047a8.202 8.202 0 0 1-2.933-2.988c.612.349 1.171.788 1.659 1.302a7.898 7.898 0 0 1 1.274 1.686zM234.826 106.44a7.648 7.648 0 0 1-1.274 1.697 7.757 7.757 0 0 1-1.649 1.302 7.433 7.433 0 0 1 1.274-1.696 7.536 7.536 0 0 1 1.649-1.303zM218.723 86.713a7.296 7.296 0 0 1-1.275 1.686 7.49 7.49 0 0 1-1.649 1.303 8.287 8.287 0 0 1 2.924-2.989zM233.156 49.712a8.29 8.29 0 0 1-2.923 2.988 8.284 8.284 0 0 1 2.923-2.988z" fill="#fff"/><path d="M232.182 51.048a220.292 220.292 0 0 0-21.2-10.268c-.086 0-.14.098-.054.131 1.767.745 13.084 6.787 21.2 10.29.097.088.139-.098.054-.153z" fill="#263238"/><path d="M281.542 398.801c2.088.712 61.791.536 64.061-.941.867-.548 1.349-9.448 1.627-20.209.065-2.32.108-4.707.15-7.159 0-2.89.086-5.813.097-8.648.075-12.742-.097-23.974-.097-23.974h-38.867v32.622l.193 7.159s-22.817 10.531-25.14 12.425c-2.324 1.894-4.101 8.035-2.024 8.725z" fill="#DD6A57"/><path d="M281.542 398.801c2.088.712 61.791.536 64.061-.941.867-.548 1.349-9.448 1.627-20.209.064-2.32.107-4.707.15-7.159 0-2.89.086-5.813.096-8.648h-38.941v8.648l.192 7.159s-22.817 10.531-25.14 12.425c-2.324 1.894-4.122 8.035-2.045 8.725z" fill="#fff"/><path d="M281.36 398.899c1.36.46 26.768.548 45.302.154 4.283-.088 8.202-.208 11.371-.351 4.347-.208 7.27-.448 7.752-.755 1.071-.69 1.552-13.749 1.788-27.521h-39.06l.204 7.203s-22.956 10.575-25.291 12.48c-2.334 1.905-4.154 8.068-2.066 8.79z" fill="#F6D648"/><path d="M282.217 396.436c10.064-.273 50.677-.448 60.645 0 .075 0 .075.066 0 .066-9.968.504-50.581.339-60.645.055-.214.044-.214-.11 0-.121zM307.293 375.32c3.951-.766 8.801-.153 11.831 2.715.118.12 0 .284-.16.241a54.49 54.49 0 0 0-11.661-2.442.253.253 0 0 1-.149-.088.265.265 0 0 1 .139-.426zM304.434 377.115c3.962-.766 8.802-.164 11.842 2.715.118.109 0 .284-.171.24a54.32 54.32 0 0 0-11.649-2.441.255.255 0 0 1-.152-.084.273.273 0 0 1-.065-.164.26.26 0 0 1 .195-.266zM301.607 378.888c3.951-.766 8.801-.164 11.778 2.715.118.11 0 .274-.161.241a55.129 55.129 0 0 0-11.617-2.452.245.245 0 0 1-.174-.074.254.254 0 0 1 0-.356.245.245 0 0 1 .174-.074zM298.727 380.651c3.962-.767 8.801-.154 11.842 2.714.118.121 0 .285-.171.241a54.26 54.26 0 0 0-11.649-2.441.251.251 0 0 1-.152-.085.27.27 0 0 1-.065-.163.26.26 0 0 1 .195-.266z" fill="#263238"/><path d="M301.735 371.762c2.816 2.189 6.425 3.12 9.733 4.378a.476.476 0 0 0 .435-.091.496.496 0 0 0 .186-.412.111.111 0 0 0 .083-.047.112.112 0 0 0 .017-.046.101.101 0 0 0-.003-.049 21.709 21.709 0 0 0-6.125-9.262c-1.659-1.412-4.561-2.397-6.114-.197-1.552 2.201.15 4.434 1.788 5.726zm-1.017-3.284c-.706-4.445 3.962-2.124 5.15-1.029.764.72 1.479 1.492 2.142 2.309a62.668 62.668 0 0 1 3.694 5.332c-1.574-.712-3.212-1.27-4.786-1.916-1.938-.734-5.804-2.233-6.2-4.664v-.032z" fill="#263238"/><path d="M325.388 369.244c-.964-2.518-4.015-2.31-5.964-1.368a21.364 21.364 0 0 0-8.18 7.444.112.112 0 0 0 .013.138.107.107 0 0 0 .04.026c-.064.307.118.69.472.657 3.469-.361 7.227-.296 10.482-1.73 1.895-.876 4.047-2.78 3.137-5.167zm-8.469 5.211c-1.703.219-3.405.35-5.108.635a62.242 62.242 0 0 1 4.883-4.215 22.756 22.756 0 0 1 2.602-1.707c1.413-.756 6.499-1.807 4.732 2.309-1.006 2.266-5.086 2.748-7.109 2.978z" fill="#263238"/><path d="M360.347 168.542s-10.504 106.186-10.761 107.565c0 .175-.107 2.189-.203 5.55-.568 18.282-1.97 75.293-1.97 75.293h-42.829s2.795-67.521 4.401-83.273c2.045-20.099 14.99-105.091 14.99-105.091l36.372-.044z" fill="#616161"/><path d="M344.436 279.851a1201.372 1201.372 0 0 1 5.964-68.878c1.499-12.907 3.319-25.77 5.118-38.632 0-.11.182-.11.171 0-3.319 22.901-5.664 45.977-7.687 68.966-2.024 22.988-3.437 46.097-4.358 69.185-.525 13.136-.921 26.174-1.328 39.267a.253.253 0 0 1-.086.143.244.244 0 0 1-.396-.143c.653-23.285 1.306-46.613 2.602-69.908z" fill="#263238"/><path d="M307.271 349.889c1.071-.142 2.334-.098 3.48-.142 1.146-.044 2.57-.055 3.855-.109a409.61 409.61 0 0 1 7.495-.197c4.996-.088 9.993-.051 14.99.109l4.133.142c1.466.066 2.933.198 4.4.187.012-.005.024-.007.036-.005a.07.07 0 0 1 .058.04.077.077 0 0 1-.058.112.075.075 0 0 1-.036-.005c-2.527 0-5.075.219-7.591.317-2.516.099-4.968.132-7.442.165-5 .076-10.022 0-14.99-.165l-4.133-.109-2.195-.099c-.653 0-1.306 0-1.959-.065-.171-.011-.161-.154-.043-.176zM360.346 168.542s-10.503 106.186-10.76 107.565c0 .175-.107 2.189-.204 5.55l-20.204-113.115h31.168z" fill="#263238"/><path d="M440.96 364.373c1.842-1.248 38.6-49.338 38.867-52.075.107-1.095-6.424-6.918-14.529-13.793-1.746-1.5-3.501-3.109-5.418-4.554a306.38 306.38 0 0 0-7.195-5.32c-10.236-7.422-19.123-13.246-19.123-13.246l-23.342 30.356 18.202 13.771 7.495 5.649 5.632 4.269s-6.017 24.85-5.996 27.882c.022 3.032 3.576 8.276 5.407 7.061z" fill="#DD6A57"/><path d="M440.961 364.373c1.842-1.248 38.599-49.338 38.867-52.075.107-1.095-6.424-6.918-14.53-13.793-1.745-1.5-3.501-3.109-5.418-4.554a306.38 306.38 0 0 0-7.195-5.32c-7.238 9.316-17.72 22.616-24.273 30.881l7.495 5.649 5.632 4.269s-6.017 24.85-5.996 27.882c.021 3.032 3.587 8.276 5.418 7.061z" fill="#fff"/><path d="M440.918 364.548c1.841-1.248 38.813-49.612 39.081-52.371.128-1.27-9.637-9.732-20.055-18.446L435.8 325.116l5.664 4.292s-6.018 24.992-6.018 28.046c0 3.054 3.619 8.342 5.472 7.094z" fill="#F6D648"/><path d="M439.547 362.336c6.007-8.265 30.976-41.007 37.529-48.703.053-.066.096 0 0 0-5.771 8.32-30.997 40.854-37.475 48.769-.054.208-.172.109-.054-.066zM438.83 329.146c1.853-3.657 5.354-7.171 9.401-7.838.161 0 .193.208.086.284a55.524 55.524 0 0 0-9.08 7.86.255.255 0 0 1-.16.071.26.26 0 0 1-.265-.2.27.27 0 0 1 .018-.177zM438.423 332.538c1.863-3.656 5.354-7.181 9.412-7.838.15 0 .192.208.075.285a55.726 55.726 0 0 0-9.08 7.849.258.258 0 0 1-.156.064.26.26 0 0 1-.258-.188.267.267 0 0 1 .007-.172zM438.027 335.911c1.852-3.657 5.354-7.171 9.401-7.838.161 0 .193.208.086.284a55.961 55.961 0 0 0-9.091 7.86.242.242 0 0 1-.164.098.24.24 0 0 1-.184-.049.256.256 0 0 1-.048-.355zM437.588 339.304c1.852-3.646 5.354-7.171 9.401-7.827.161 0 .193.197.086.284a55.817 55.817 0 0 0-9.08 7.849.258.258 0 0 1-.161.071.257.257 0 0 1-.264-.2.264.264 0 0 1 .018-.177z" fill="#263238"/><path d="M432.641 331.389c3.448-.875 6.425-3.284 9.358-5.123a.49.49 0 0 0 .153-.179.517.517 0 0 0 0-.462.493.493 0 0 0-.153-.18.108.108 0 0 0 .018-.046.116.116 0 0 0-.03-.091.122.122 0 0 0-.041-.027 20.725 20.725 0 0 0-10.9-.799c-2.141.46-4.658 2.189-3.93 4.795.729 2.605 3.523 2.638 5.525 2.112zm-3.126-1.193c-3.855-2.189.814-4.488 2.388-4.762a22.112 22.112 0 0 1 3.083-.262 61.896 61.896 0 0 1 6.371.317c-1.51.832-2.944 1.784-4.422 2.671-1.767 1.051-5.3 3.24-7.42 2.036z" fill="#263238"/><path d="M445.329 310.831c-2.538-.777-4.283 1.795-4.743 3.952a22.018 22.018 0 0 0 .632 11.155c0 .087.096.087.16.055a.489.489 0 0 0 .396.212.474.474 0 0 0 .396-.212c1.874-3.011 4.283-5.988 5.151-9.491.535-2.026.406-4.927-1.992-5.671zm-1.231 10.027c-.889 1.511-1.842 2.956-2.666 4.489a66.346 66.346 0 0 1-.236-6.568c.034-1.054.138-2.103.311-3.142.289-1.599 2.623-6.339 4.689-2.376 1.146 2.233-1.049 5.813-2.098 7.597z" fill="#263238"/><path d="M323.386 167.951s3.34 15.939 13.812 23.733c0 0 26.939 72.305 32.603 79.913 9.38 12.611 54.757 45.069 54.757 45.069l26.767-34.888s-43.899-28.889-47.411-33.432c-2.345-3.011-21.039-49.437-20.815-51.09 2.57-19.628-6.584-31.823-6.584-31.823l-53.129 2.518z" fill="#616161"/><path d="M373.345 168.487a47.353 47.353 0 0 1 4.508 12.042c.464 2.138.747 4.314.846 6.502.128 2.332 0 4.675 0 7.017.033 2.39.394 4.763 1.071 7.05.642 2.19 1.424 4.379 2.141 6.568a380.788 380.788 0 0 0 4.872 13.345 430.434 430.434 0 0 0 11.103 25.988 19.954 19.954 0 0 0 3.416 5.473 32.413 32.413 0 0 0 5.353 4.073c3.94 2.744 7.884 5.488 11.832 8.232l23.78 16.541v.055c.268.186 0 .634-.246.448-7.966-5.528-12.999-9.053-20.965-14.581l-12.067-8.374c-1.906-1.325-3.844-2.606-5.707-3.974a15.367 15.367 0 0 1-4.143-4.379 54.708 54.708 0 0 1-2.913-5.835 451.424 451.424 0 0 1-2.955-6.568 251.3 251.3 0 0 1-5.46-12.764 448.034 448.034 0 0 1-5.022-13.29c-.8-2.248-1.581-4.503-2.345-6.765a50.494 50.494 0 0 1-1.927-6.568c-.889-4.598-.097-9.316-.525-13.958a43.322 43.322 0 0 0-3.212-13.038 34.003 34.003 0 0 0-1.563-3.141c-.075-.099.128-.165.128-.099zM358.601 169.735a14.66 14.66 0 0 0 5.247 7.663 17.512 17.512 0 0 0 9.518 3.339c.579 0 .632.931 0 .941-6.991 0-14.047-4.532-15.075-11.932 0-.142.267-.175.31-.011zM330.517 186.823a38.92 38.92 0 0 1 7.216 3.919c2.399 1.522 4.615 3.285 6.928 4.937.096.066 0 .209-.075.154-2.431-1.434-4.958-2.671-7.367-4.149a45.517 45.517 0 0 1-6.81-4.664c-.096-.065-.021-.229.108-.197z" fill="#263238"/><path d="M329.51 171.935c.375 1.631.835 3.284 1.263 4.872.429 1.587.707 3.087 1.167 4.586a8.044 8.044 0 0 0 2.292 3.788c.61.537 1.285.996 1.938 1.489l1.07.766c-.053-.208-.096-.438-.149-.657-.14-.624-.268-1.237-.397-1.861a460.395 460.395 0 0 1-.845-4.148c-.525-2.715-1.071-5.474-1.703-8.156-.005-.013-.006-.027-.005-.041a.084.084 0 0 1 .015-.039.076.076 0 0 1 .031-.028.078.078 0 0 1 .039-.01.08.08 0 0 1 .04.01.083.083 0 0 1 .031.028.074.074 0 0 1 .014.039.081.081 0 0 1-.004.041c.781 2.649 1.638 5.276 2.345 7.958.342 1.314 1.648 7.828 1.723 8.287.075.46.129.964.161 1.445.086.484.107.978.064 1.467a.113.113 0 0 1-.043.051.112.112 0 0 1-.064.019.11.11 0 0 1-.063-.019.122.122 0 0 1-.044-.051 6.146 6.146 0 0 1-.471-1.401c-.139-.46-.257-.93-.364-1.412l-.096-.515c-.654-.361-1.264-.854-1.874-1.269-.61-.416-1.328-.865-1.949-1.358a7.405 7.405 0 0 1-2.473-3.569 26.962 26.962 0 0 1-.964-4.685c-.289-1.85-.525-3.722-.856-5.561-.011-.12.107-.175.171-.066zM420.274 310.349c.579-.996 1.382-1.948 2.056-2.879.675-.93 1.553-2.102 2.313-3.164a308.998 308.998 0 0 1 4.465-6.097 325.2 325.2 0 0 1 9.401-11.976l2.677-3.219c.952-1.094 1.97-2.189 2.88-3.415.064-.088.16 0 .096.088-1.574 2.014-2.976 4.203-4.465 6.283-1.488 2.08-2.976 4.061-4.486 6.076-3.052 4.05-6.2 8.046-9.444 11.943-.899 1.095-1.766 2.189-2.655 3.284-.471.569-.964 1.095-1.435 1.697-.471.602-.803 1.095-1.274 1.532a.096.096 0 0 1-.072.024.095.095 0 0 1-.067-.035.101.101 0 0 1 .01-.142z" fill="#263238"/><path d="M333.407 65.027a10.906 10.906 0 0 1 4.608 3.19 11.262 11.262 0 0 1 2.47 5.097 31.607 31.607 0 0 0 2.248 7.269 26.523 26.523 0 0 0 4.679 6.02 19.961 19.961 0 0 1 5.729 10.149 36.45 36.45 0 0 1 .471 13.771 38.588 38.588 0 0 0-1.264-14.231c-1.306-4.653-4.122-7.302-7.066-10.553a20.477 20.477 0 0 1-4.861-9.184c-.514-2.19-.761-4.38-1.799-6.328a12.111 12.111 0 0 0-5.354-4.685c-.321-.186-.128-.624.139-.515zM301.372 95.164c1.98-3.755 4.111-7.017 5-11.44.814-4.04 1.07-8.22 1.884-12.25 0-.065.107-.054.097 0-1.178 7.127-.739 14.078-4.08 20.406-1.809 3.426-3.651 6.634-4.636 10.586a36.52 36.52 0 0 0-.782 12.687c0 .153-.171.175-.192 0a30.14 30.14 0 0 1 2.709-19.989z" fill="#666"/><path d="M328.439 114.913c-11.028 1.992-48.246-10.039-55.216-17.855-10.375-11.614-18.256-32.359-20.494-40.164-.974-3.405 20.954-13.651 22.485-10.214 3.341 7.368 12.849 30.214 14.701 32.36 1.852 2.145 20.344 15.249 31.051 21.051 14.444 7.805 13.052 13.815 7.473 14.822z" fill="#DD6A57"/><path d="M276.842 51.442c-.172-1.686-5.268-14.308-8.095-18.347a47.727 47.727 0 0 0-10.579-11.363c-6.51-4.97-11.478-7.795-12.763-6.798-2.377 1.839-.963 4.827 5.557 9.94 6.521 5.112 5.643 10.07 4.765 13.53a53.356 53.356 0 0 0-.139 25.89s21.939-6.339 21.254-12.852z" fill="#DD6A57"/><path d="M256.081 37.156c-.793 3.602-5.172-9.852-9.123-10.947-3.951-1.095-3.63 3.12-2.141 6.82 5.257 12.808 2.944 20.93 9.122 28.287 6.178 7.356 2.142-24.16 2.142-24.16z" fill="#DD6A57"/><path d="M254.389 66.527c.471-.405 24.98-14.92 24.98-14.92s9.101 23.721 10.964 26.557c1.863 2.835 28.652 20.317 37.914 25.845 9.904 5.923 6.949 14.648-10.493 11.123-17.442-3.525-37.357-10.389-43.974-16.279-6.435-5.703-19.391-32.326-19.391-32.326z" fill="#F6D648"/><path d="M258.062 69.297c10.075-4.817 19.958-11.45 21.756-12.48.086-.055 0-.186-.085-.131-1.713 1.094-13.802 7.433-21.768 12.468a.087.087 0 0 0-.026.055.088.088 0 0 0 .063.094c.02.005.041.003.06-.006z" fill="#263238"/><path d="m317.315 148.859 1.82 30.914s47.978-9.414 59.681-12.786c0 0-21.061-54.056-36.704-65.528-7.827-5.737-15.215-3.613-18.983 2.353-.964 1.511-11.436 24.084-11.446 31.834.01 6.853 5.632 13.213 5.632 13.213z" fill="#F6D648"/><path d="M334.114 102.028c-.235.974-4.893 7.291-9.283 7.028-1.435-.088-1.306-8.079-1.306-8.079l-.118-.602-1.713-8.287 9.583-6.108 1.381-.756s.321 2.3.696 5.167c0 .132 0 .263.053.405l.065.471c.064.427.117.865.171 1.303.054.438.086.657.107 1.007.021.35.075.69.118 1.04.243 2.462.325 4.938.246 7.411z" fill="#DD6A57"/><path d="M333.354 90.337a17.04 17.04 0 0 1-3.892 6.14 16.586 16.586 0 0 1-6.055 3.898l-1.713-8.287 9.583-6.108 1.381-.756s.321 2.245.696 5.113z" fill="#263238"/><path d="M309.852 80.988c.546 14.866 9.315 16.212 12.452 16.092 2.838-.12 12.517-.865 13.481-15.709.963-14.844-5.964-19.278-12.496-19.376-6.531-.099-13.972 4.138-13.437 18.993z" fill="#DD6A57"/><path d="M311.854 76.806c.329-.067.654-.151.975-.252.353-.04.685-.197.942-.448a.522.522 0 0 0 0-.646 1.267 1.267 0 0 0-1.274-.263 1.87 1.87 0 0 0-1.157.733.574.574 0 0 0-.088.3.571.571 0 0 0 .302.515c.093.049.197.07.3.061zM321.405 76.466a7.873 7.873 0 0 1-.996-.175 1.59 1.59 0 0 1-.975-.372.556.556 0 0 1 0-.646c.159-.168.359-.289.58-.35.22-.062.453-.062.673 0a1.82 1.82 0 0 1 1.21.635.57.57 0 0 1 .056.626.551.551 0 0 1-.232.227.533.533 0 0 1-.316.055zM319.595 80.32s.086 0 .086.088c0 1.018.128 2.19 1.07 2.507v.054c-1.145-.142-1.327-1.685-1.156-2.649z" fill="#263238"/><path d="M320.473 79.258c1.585-.153 1.756 3.12.279 3.284-1.478.164-1.617-3.164-.279-3.284z" fill="#263238"/><path d="M321.105 79.39c.289.175.578.481.921.503.343.022.664-.34.899-.679h.065c0 .624-.172 1.281-.814 1.402-.643.12-1.071-.416-1.242-1.03-.054-.087.053-.262.171-.197zM313.899 80.43s-.075 0-.064.098c.086 1.008 0 2.19-.846 2.573v.055c1.092-.22 1.157-1.785.91-2.726z" fill="#263238"/><path d="M312.957 79.433c-1.595 0-1.531 3.284-.054 3.284 1.478 0 1.392-3.262.054-3.284z" fill="#263238"/><path d="M312.314 79.663c-.246.175-.492.504-.792.526-.3.021-.61-.318-.846-.657 0 .624.204 1.27.793 1.38.588.108.92-.45 1.07-1.096-.053-.065-.139-.23-.225-.153zM315.816 84.885a22.546 22.546 0 0 0-.118 2.19c0 .065.171.087.407.098.61.094 1.233.013 1.801-.234a3.336 3.336 0 0 0 1.411-1.167.08.08 0 0 0-.017-.091.074.074 0 0 0-.09-.008 4.917 4.917 0 0 1-2.998 1.018c-.053-.197.332-2.594.225-2.605a6.118 6.118 0 0 0-1.563.438c.203-3.175.91-6.295 1.07-9.459a.1.1 0 0 0-.028-.07.094.094 0 0 0-.136 0 .1.1 0 0 0-.028.07 52.646 52.646 0 0 0-1.585 10.126c-.043.416 1.36-.175 1.649-.306z" fill="#263238"/><path d="M316.104 86.735a4.023 4.023 0 0 0 1.532 1.38 1.75 1.75 0 0 0 1.07.153c.814-.165.878-.909.782-1.555a4.463 4.463 0 0 0-.3-1.007 5.19 5.19 0 0 1-3.084 1.03z" fill="#263238"/><path d="M317.668 88.115c.333.162.707.216 1.07.153.814-.165.878-.909.782-1.555a1.848 1.848 0 0 0-1.162.375 1.92 1.92 0 0 0-.69 1.027z" fill="#FF9BBC"/><path d="M322.293 70.84c-.327-.378-.328-.377-.328-.377l-.003.002-.008.007-.031.028-.118.103-.236.21a9.99 9.99 0 0 1-.393.305c-.523.382-1.312.886-2.364 1.355-2.057.916-5.132 1.705-9.212 1.19l-.013-.08a7.095 7.095 0 0 1-.037-1.13c.031-.978.195-2.323.579-3.773.771-2.916 2.4-6.152 5.502-7.787 6.32-3.33 12.902-1.073 17.132 2.942l.067.064.085.035h.001l.008.004.036.016a9.6 9.6 0 0 1 .698.355c.463.259 1.087.651 1.733 1.184 1.298 1.07 2.646 2.675 3.005 4.87.365 2.234-.187 4.777-1.017 6.789-.413 1.001-.885 1.849-1.325 2.44a3.858 3.858 0 0 1-.596.659c-.086.07-.156.116-.21.143a.255.255 0 0 1-.081.029 2.14 2.14 0 0 1-1.694-.63c-.44-.43-.766-1.042-1.001-1.702a9.618 9.618 0 0 1-.439-1.83 10.577 10.577 0 0 1-.07-.611l-.013-.168-.002-.042v-.011l-.019-.46-.456-.02h-.002l-.02-.002a2.881 2.881 0 0 1-.492-.107 3.884 3.884 0 0 1-1.279-.691c-.951-.765-2.053-2.317-2.338-5.5l-.151-1.69-.79 1.503a9.39 9.39 0 0 1-2.813 3.25 9.14 9.14 0 0 1-3.011 1.429c.111-.116.231-.239.359-.366a35.564 35.564 0 0 1 1.284-1.202 10.66 10.66 0 0 0 .366-.32l.045-.044.013-.012.004-.004.001-.002h.001l-.357-.351zm0 0-.327-.378.684.728-.357-.35zm-12.656 2.977.001.003-.001-.002z" fill="#000" stroke="#666"/><path d="M333.514 82.608s2.591-5.014 4.776-4.127c2.184.886.631 7.87-1.66 9.086a2.412 2.412 0 0 1-2.796-.153 2.502 2.502 0 0 1-.641-.767l.321-4.04z" fill="#DD6A57"/><path d="M337.797 80.473s.054 0 0 .066a6.26 6.26 0 0 0-1.813 1.892 6.42 6.42 0 0 0-.896 2.487c.077-.185.193-.35.338-.485a1.344 1.344 0 0 1 1.084-.35c.195.026.382.094.549.2v.098a1.483 1.483 0 0 0-.909.115c-.283.133-.52.353-.676.63a7.69 7.69 0 0 0-.621 1.466c-.064.165-.343.11-.311-.065-.321-2.255.975-5.54 3.255-6.054z" fill="#263238"/><path d="M345.924 107.239c18.47 19.89 33.642 61.303 24.755 65.145-8.116 3.547-33.845.263-44.424-2.31-3.105-.766 3.212-25.375 6.478-24.565 4.015.974 14.283 2.485 14.701 2.452.888-.065-8.566-27.597-11.607-38.161-4.24-14.724 3.17-10.027 10.097-2.561z" fill="#DD6A57"/><path d="M300.718 139.85a3.97 3.97 0 0 0 .322 4.379 5.692 5.692 0 0 0-2.699 2.78c-.888 2.19 2.142 4.576 2.142 4.576a7.125 7.125 0 0 0-2.399 3.404c-.631 2.19 2.056 5.025 2.056 5.025a6.398 6.398 0 0 0-.267 4.379c1.284 3.777 7.131 5.134 10.835 6.043 3.705.908 14.99-.088 17.207-.055l5.814-24.215s-15.472-8.867-19.98-9.294c-3.78-.361-11.414.427-13.031 2.978z" fill="#DD6A57"/><path d="M301.296 143.933c4.123-.602 8.191.066 12.292.504a.067.067 0 0 1 .034.028.075.075 0 0 1 .013.043c0 .015-.004.03-.013.043a.072.072 0 0 1-.034.028c-4.079-.482-8.191-.131-12.27-.449a.091.091 0 0 1-.071-.021.095.095 0 0 1-.036-.066.099.099 0 0 1 .085-.11zM300.601 151.344c.948-.045 1.899.036 2.827.241a107.388 107.388 0 0 1 8.876 1.828c.096 0 .085.154 0 .143-1.97-.387-3.951-.726-5.943-1.018l-2.976-.416a12.808 12.808 0 0 1-2.806-.493.157.157 0 0 1-.084-.15.151.151 0 0 1 .033-.084.146.146 0 0 1 .073-.051zM300.183 160.091c.86-.033 1.719.09 2.538.361l2.698.558c1.799.362 3.598.734 5.407 1.029.097 0 .075.165 0 .154-1.841-.307-3.694-.57-5.525-.887l-2.708-.471a7.026 7.026 0 0 1-2.42-.657s-.022-.087.01-.087z" fill="#263238"/><path d="M346.481 147.173c1.274-1.094-8.812-27.028-11.564-38.829-2.752-11.8 2.58-11.144 11.028-1.642 9.059 10.181 24.113 32.699 27.539 55.896 1.071 7.247 2.516 12.414-13.919 12.118a182.734 182.734 0 0 1-28.449-2.54l3.576-26.491s11.425 1.806 11.789 1.488z" fill="#F6D648"/><path d="M336.941 171.968c2.141-10.487 2.741-21.828 2.998-23.799 0-.087-.139-.098-.15 0-.15 1.938-2.259 14.822-3.009 23.788 0 .099.161.11.161.011zM358.944 149.231a21.108 21.108 0 0 0-3.095-.645l-2.88-.537-1.253-.23h.118l1.671-.241c.556-.087 1.07-.208 1.681-.262.085 0 .085-.154 0-.143-.557.077-1.071.077-1.671.11l-1.745.12-1.52.165c-.932-.154-1.863-.307-2.795-.438-.407-1.883-1.071-3.744-1.617-5.583a169.845 169.845 0 0 0-1.841-5.737 141.616 141.616 0 0 0-2.003-5.561c-.353-.919-2.237-6.568-2.858-8.057 0-.098-.15 0-.129.055.364 1.489 2.291 7.302 2.57 8.243.203.69.417 1.38.632 2.058l-.086-.098-1.124-1.533c-.75-1.04-1.499-2.091-2.142-3.196 0-.099-.193 0-.139.087.621 1.161 1.21 2.321 1.863 3.448.332.57.675 1.095 1.071 1.664a8.364 8.364 0 0 0 1.156 1.533c.171.558.332 1.095.514 1.686.578 1.883 1.167 3.766 1.735 5.648.567 1.883.985 3.504 1.584 5.2-1.916-.262-3.822-.492-5.739-.733l-2.933-.35c-1.071-.121-2.142-.121-3.213-.307-.096 0-.128.131 0 .142 1.071.121 2.078.449 3.105.635l2.891.515c2.035.35 4.08.722 6.125 1.094 2.045.373 4.047.548 6.071.789l3.051.35c.982.155 1.973.239 2.966.252l-.021-.143zM363.462 174.738c-8.833-.317-24.733-1.555-32.121-2.562a.087.087 0 0 0-.036-.005.083.083 0 0 0-.034.013.081.081 0 0 0-.033.064c0 .012.003.024.009.035a.073.073 0 0 0 .058.041.087.087 0 0 0 .036-.005 124.072 124.072 0 0 0 32.121 2.769.17.17 0 0 0 .122-.051.177.177 0 0 0 0-.248.17.17 0 0 0-.122-.051zM368.474 143.243c-.482-1.094-.996-2.189-1.489-3.284-.578-1.27-.631-1.094-.107.329.525 1.423.975 2.66 1.478 3.984.985 2.639 6.092 18.61 5.525 24.259 0 .076.118.087.128 0 1.317-7.543-3.747-21.161-5.535-25.288z" fill="#263238"/><path d="M150.926 71.184h.001c5.945 5.897 9.578 16.508 9.842 28.294.263 11.77-2.839 24.617-10.249 34.936-6.243 8.689-16.636 13.889-27.067 15.604-10.445 1.718-20.799-.077-26.975-5.21-13.162-10.966-11.223-28.713-1.623-37.339 4.93-4.427 10.348-6.072 15.391-7.602l.111-.034c5.04-1.53 9.776-2.98 12.957-7.18 1.43-1.888 2.427-4.732 3.483-7.742l.215-.613c1.152-3.277 2.429-6.75 4.431-9.67 2.242-3.221 5.646-5.567 9.222-6.36 3.563-.79 7.291-.042 10.261 2.916zM129.706 63.315l-.003-.006c-1.268-2.959-.397-5.32 1.257-6.542 1.673-1.236 4.248-1.386 6.551.32 2.308 1.71 3.187 4.379 3.312 6.731.062 1.173-.065 2.243-.282 3.036a3.999 3.999 0 0 1-.361.93 1.234 1.234 0 0 1-.168.233c-.047.05-.072.059-.069.057-.608.233-1.453.306-2.434.2a11.389 11.389 0 0 1-3.084-.816c-2.098-.871-3.971-2.328-4.719-4.143z" fill="#000" stroke="#666"/><path d="M102.771 100.186a80.352 80.352 0 0 1 7.796-2.462c-2.63.72-5.226 1.57-7.776 2.545a33.436 33.436 0 0 0-6.995 3.62 33.671 33.671 0 0 1 6.975-3.703z" fill="#000" stroke="#666"/><path d="M153.602 73.522a62.34 62.34 0 0 1 8.063 17.023 51.964 51.964 0 0 1 2.141 18.862 40.437 40.437 0 0 1-1.895 9.359c-.225.767-.525 1.5-.814 2.245-.289.744-.567 1.488-.931 2.189-.364.701-.675 1.445-1.071 2.189l-1.21 2.047A48.622 48.622 0 0 1 145.036 141c1.146-1.095 2.356-2.025 3.459-3.12 1.103-1.095 2.238-2.19 3.212-3.372a45.481 45.481 0 0 0 5.471-7.509 40.935 40.935 0 0 0 5.589-17.691 52.62 52.62 0 0 0-1.895-18.522 70.326 70.326 0 0 0-3.073-8.867 66.489 66.489 0 0 0-4.197-8.397z" fill="#263238"/><path d="M129.217 66.416a10.671 10.671 0 0 0 3.761 2.216 9.346 9.346 0 0 1-3.824-2.1 5.276 5.276 0 0 1-1.604-3.123 5.723 5.723 0 0 0 1.659 2.999l.008.008z" fill="#000" stroke="#666"/><path d="M137.938 109.013c-3.801 25.539-25.837 77.537-29.166 84.215-2.26 4.532-25.944-7.149-23.952-9.984 2.537-3.645 27.999-49.327 40.141-65.857 6.702-9.119 13.758-13.651 12.977-8.374z" fill="#F7A9A0"/><path d="M85.323 182.521c-2.763 3.722-7.088 14.352-8.084 17.899-.996 3.547-3.116 13.979-.482 15.074 2.634 1.095 3.437-1.949 3.437-1.949s-.214 4.543 2.474 5.364c2.687.821 3.886-3.897 3.886-3.897s.107 4.685 2.848 5.298c2.741.614 3.212-4.378 3.212-4.378s-.096 4.291 2.367 3.831c2.976-.558 2.27-8.484 3.65-12.315.322-.876 7.592-17.176 7.592-17.176l-20.9-7.751z" fill="#F7A9A0"/><path d="M92.026 216.074c-.504-5.823.267-8.462 2.848-13.585 0-.098-.086-.197-.15-.098-2.966 4.773-4.4 7.947-2.977 13.727.075.285.3.241.279-.044zM86.104 215.144c0-6.109.803-8.977 3.116-14.549 0-.076-.086-.142-.129-.065-2.72 5.265-4.079 8.462-3.287 14.559.032.274.3.328.3.055zM79.83 212.933c.407-5.912 1.167-9.097 4.09-14.231a.11.11 0 0 0-.04-.129.102.102 0 0 0-.067-.019.104.104 0 0 0-.064.027c-3.15 4.03-4.624 9.166-4.101 14.297.032.427.15.427.182.055z" fill="#263238"/><path d="M110.292 188.236s-.321 7.324-1.167 10.509c-.846 3.186-8.223 13.881-10.579 12.381-3.03-1.937 0-8.976 1.992-12.217 0 0-7.024-4.477-5.879-10.016 1.146-5.539 15.633-.657 15.633-.657z" fill="#F7A9A0"/><path d="M97.882 210.316c-1.52-3.809 1.306-7.904 2.966-11.199a.339.339 0 0 0 .011-.314.334.334 0 0 0-.246-.189c-2.816-2.08-6.21-5.846-6.146-9.601a.09.09 0 0 0-.025-.062.086.086 0 0 0-.122 0 .09.09 0 0 0-.025.062c-.6 4.007 2.442 7.992 5.675 10.072-1.756 3.349-4.411 7.575-2.141 11.253.032.011.064 0 .053-.022z" fill="#263238"/><path d="M109.082 137.574s3.597 1.894 7.773 4.149c5.461 2.922 11.917 6.447 12.602 7.049 0 0 6.992-23.043 8.566-33.344 1.574-10.301.118-12.315-7.227-6.109-3.544 3.011-8.727 9.7-13.127 15.819a346.591 346.591 0 0 0-8.587 12.436z" fill="#F6D648"/><path d="M109.082 137.574s3.597 1.894 7.773 4.149c5.461 2.922 11.917 6.447 12.602 7.049 0 0 6.992-23.043 8.566-33.344 1.574-10.301.118-12.315-7.227-6.109-3.544 3.011-8.727 9.7-13.127 15.819a346.591 346.591 0 0 0-8.587 12.436z" fill="#F6D648"/><path d="M138.002 115.428c-1.553 10.301-8.566 33.344-8.566 33.344-.685-.602-7.142-4.127-12.602-7.05l-3.02-1.62c-2.751-1.478-4.754-2.528-4.754-2.528s3.844-5.89 8.566-12.436c4.401-6.12 9.583-12.808 13.127-15.819l.771-.635c6.692-5.418 7.977-3.185 6.478 6.744z" fill="#F6D648"/><path d="M138.002 115.428c-1.553 10.301-8.566 33.344-8.566 33.344-.685-.602-7.142-4.127-12.602-7.05l-3.02-1.62c-2.751-1.478-4.754-2.528-4.754-2.528s3.844-5.89 8.566-12.436c4.401-6.12 9.583-12.808 13.127-15.819l.771-.635c6.692-5.418 7.977-3.185 6.478 6.744z" fill="#F6D648"/><path d="M138.002 115.428c-1.552 10.301-8.566 33.344-8.566 33.344-.685-.602-7.141-4.127-12.602-7.05l-3.019-1.62c4.336-7.805 12.463-22.156 17.709-31.418 6.692-5.418 7.977-3.185 6.478 6.744z" fill="#263238"/><path d="M130.368 143.627a193.328 193.328 0 0 0-18.449-9.546c-.075 0-.117.088 0 .12 1.531.701 11.371 6.284 18.438 9.557.032.033.086-.087.011-.131z" fill="#263238"/><path d="M138.569 103.835c.161.985 4.336 7.608 8.716 7.663 1.424 0 1.863-7.926 1.863-7.926l.171-.58 2.291-8.112-9.069-6.787-1.317-.909s-.481 2.266-1.07 5.08c0 .131-.054.263-.075.405-.022.142-.075.306-.107.46-.086.415-.182.853-.268 1.28-.086.427-.128.646-.182.986-.054.339-.118.678-.182 1.029a55.145 55.145 0 0 0-.771 7.411z" fill="#F7A9A0"/><path d="M140.165 92.242a17.054 17.054 0 0 0 3.422 6.394 16.608 16.608 0 0 0 5.732 4.334l2.292-8.112-9.069-6.787-1.317-.909s-.482 2.266-1.06 5.08z" fill="#263238"/><path d="M162.072 80.715c3.362 14.395-4.626 18.216-7.742 18.818-2.784.547-12.227 2.594-17.024-11.374-4.797-13.969.685-20.12 6.906-21.993 6.221-1.872 14.498.143 17.86 14.549z" fill="#F7A9A0"/><path d="M160.647 77.77h-1.006a1.632 1.632 0 0 1-1.007-.24.522.522 0 0 1-.096-.635c.134-.188.315-.336.525-.426.209-.09.438-.121.664-.089a1.83 1.83 0 0 1 1.274.47.582.582 0 0 1-.088.803.553.553 0 0 1-.266.117zM151.504 79.85c.317-.106.628-.23.931-.372a1.59 1.59 0 0 0 .878-.57.54.54 0 0 0-.107-.634 1.267 1.267 0 0 0-1.285-.088 1.931 1.931 0 0 0-1.07.865.577.577 0 0 0 .336.796.545.545 0 0 0 .317.003zM154.191 83.09s-.064 0 0 .099c.214.985.3 2.189-.525 2.649v.055c1.007-.362.878-1.905.525-2.803z" fill="#263238"/><path d="M153.131 82.226c-1.574.175-1.071 3.393.364 3.284 1.435-.11.964-3.438-.364-3.284z" fill="#263238"/><path d="M152.542 82.488c-.246.22-.471.58-.803.668-.332.088-.707-.197-1.007-.482h-.053c.086.624.407 1.216 1.071 1.216.664 0 .942-.624 1.006-1.26.022-.076-.118-.23-.214-.142zM159.352 81.733s.085 0 .085.076c.107.997.397 2.19 1.328 2.332v.055c-1.103 0-1.467-1.5-1.413-2.463z" fill="#263238"/><path d="M160.08 80.561c1.552-.35 2.141 2.847.685 3.175-1.456.328-1.991-2.89-.685-3.175z" fill="#263238"/><path d="M160.765 80.649c.279.12.579.383.878.35.3-.032.546-.438.696-.81h.065c.117.602 0 1.281-.514 1.51-.514.23-.985-.25-1.242-.831-.043-.022.01-.274.117-.219zM155.305 90.786c.257.208.524.515.888.504a2.687 2.687 0 0 0 1.071-.362s.064 0 0 0a1.33 1.33 0 0 1-.502.509c-.209.12-.447.178-.686.17a1.06 1.06 0 0 1-.546-.275 1.102 1.102 0 0 1-.311-.535s.043-.044.086-.01zM158.806 86.517s.439 1.456.546 2.19c0 .065-.15.12-.386.175a3.227 3.227 0 0 1-1.778.126 3.278 3.278 0 0 1-1.584-.838.078.078 0 0 1-.017-.047.076.076 0 0 1 .054-.077.074.074 0 0 1 .049.003 4.942 4.942 0 0 0 3.116.384c0-.208-.835-2.463-.728-2.496.541-.038 1.085 0 1.617.11-.825-3.055-2.142-5.956-2.891-9 0-.109.128-.174.171-.076a52.433 52.433 0 0 1 3.523 9.557c.096.361-1.403.066-1.692-.011z" fill="#263238"/><path d="M158.827 88.323a4.11 4.11 0 0 1-1.21 1.675c-.307.24-.683.37-1.07.372-.825 0-1.071-.7-1.071-1.358a4.065 4.065 0 0 1 .086-1.094 5.089 5.089 0 0 0 3.265.405z" fill="#263238"/><path d="M157.617 89.998c-.307.24-.683.37-1.07.372-.825 0-1.071-.7-1.071-1.357a1.858 1.858 0 0 1 1.238.112c.388.179.707.486.903.873z" fill="#FF9BBC"/><path d="M137.441 87.187h-.003c-.014 0-.124-.006-.36-.179-.24-.175-.529-.465-.844-.863-.627-.792-1.305-1.943-1.862-3.256-.557-1.311-.985-2.76-1.13-4.146-.146-1.39-.003-2.675.534-3.696 1.168-2.218 2.393-3.501 3.305-4.225a6.547 6.547 0 0 1 1.098-.719 3.538 3.538 0 0 1 .362-.159l.013-.004.155-.046.099-.132c.922-1.222 3.363-3.13 6.331-4.376 2.966-1.245 6.321-1.771 9.114-.433 2.808 1.346 4.413 4.085 5.263 6.558.423 1.23.651 2.37.748 3.196.042.36.058.652.056.859-1.74.02-4.391-.5-6.722-1.064a85.419 85.419 0 0 1-4.415-1.2l-.068-.02-.017-.005-.004-.002h-.002l-.148.478.148-.478-.485.847c.396.361.989.659 1.598.906a21.39 21.39 0 0 0 1.947.656l.282.082a20.057 20.057 0 0 1-2.742-.197 24.297 24.297 0 0 1-6.573-2.367l-.833-.444.101.939c.219 2.03.115 3.803-.107 5.226a76.567 76.567 0 0 0-.015-.684l-.002-.095a21.55 21.55 0 0 0-.146-3.599l-.995.089.499-.028-.499.028v.005l.001.014.003.059.011.223a145.172 145.172 0 0 1 .125 3.199c-.105 2.24-.587 4.13-1.203 5.602-.456 1.091-.982 1.944-1.475 2.534-.513.615-.928.874-1.143.917zm22.861-11.357v-.001.001zm.384-.277h.009H160.686z" fill="#000" stroke="#666"/><path d="M139.929 88.378s-3.79-4.105-5.653-2.65c-1.863 1.457 1.456 7.664 3.972 8.255a2.399 2.399 0 0 0 1.904-.246c.285-.17.533-.396.73-.666.197-.27.339-.578.418-.906l-1.371-3.787z" fill="#F7A9A0"/><path d="M58.758 333.152c.418-.208 59.114-29.786 68.826-48.396 17.356-33.279 23.395-75.819 25.579-85.814a149.873 149.873 0 0 0 9.09-35.862h-47.304s-12.409 24.269-6.006 41.412c.578 1.577-10.525 55.447-15.954 61.829-6.039 7.083-52.347 30.849-53.129 31.254l18.898 35.577z" fill="#616161"/><path d="M140.175 169.232c-2.334 12.217-4.989 24.379-7.666 36.519a1422.33 1422.33 0 0 1-8.459 36.049 1271.039 1271.039 0 0 1-4.625 18.073c-1.446 5.474-2.859 11.079-6.5 15.49-3.64 4.412-8.287 7.444-12.741 10.597-4.711 3.284-9.55 6.47-14.476 9.458-9.936 6.043-20.183 11.527-30.473 16.902l-3.78 1.96c-.278.142 0 .569.258.427 10.428-5.299 20.836-10.706 30.922-16.662 5.046-2.97 10-6.086 14.861-9.348a267.93 267.93 0 0 0 7.078-4.97 74.582 74.582 0 0 0 6.328-5.036 25.714 25.714 0 0 0 5.032-6.185 35.853 35.853 0 0 0 3.041-7.608c1.724-5.813 3.159-11.735 4.647-17.614a1005.855 1005.855 0 0 0 8.566-36.607c2.666-12.249 5.139-24.543 7.291-36.902.268-1.5.525-2.999.803-4.499.064-.11-.096-.153-.107-.044z" fill="#263238"/><path d="M162.254 163.08a149.923 149.923 0 0 1-9.091 35.862 113.042 113.042 0 0 0-.781 3.974c-.075.394-.15.799-.236 1.215-.086.416-.203 1.095-.321 1.719-.118.624-.204 1.095-.311 1.686l-.225 1.171c-.139.777-.299 1.598-.46 2.441-.064.339-.128.69-.203 1.029-.118.646-.257 1.314-.386 1.993a596.392 596.392 0 0 1-1.842 8.91c-.299 1.347-.61 2.748-.942 4.171-.332 1.423-.664 2.879-1.07 4.379-.15.635-.311 1.27-.472 1.905a319.44 319.44 0 0 1-2.719 10.29c-.214.777-.439 1.554-.664 2.343a306.808 306.808 0 0 1-3.298 10.552c-.3.887-.61 1.774-.91 2.672a256.987 256.987 0 0 1-1.938 5.342L118.868 163.08c11.425-.022 43.396-.022 43.386 0z" fill="#263238"/><path d="M23.574 306.19c-2.141 1.095-4.176 2.277-6.167 3.394l-3.619 2.047C6.293 315.9.64 319.381.565 320.279c-.247 2.737 26.821 57.132 28.384 58.72 1.563 1.587 6.05-2.89 6.67-5.868.354-1.806 0-11.965-.277-19.65-.215-4.937-.397-8.856-.397-8.856l6.318-3.087 28.812-14.023-18.202-36.333s-14.647 7.51-28.299 15.008z" fill="#fff"/><path d="M63.49 333.601c-.727-1.007-19.84-39.606-19.84-39.606S1.123 316.546.03 319.994c-1.093 3.448 28.373 60.274 29.616 60.854 1.242.58 6.124-3.284 7.559-9.162 1.07-4.27-.29-25.441-.29-25.441l26.576-12.644z" fill="#F6D648"/><path d="M39.496 347.788c-.096-4.094-1.681-8.757-5.054-11.198-.128-.088-.257.098-.193.219a57.7 57.7 0 0 1 4.765 11.067.25.25 0 0 0 .28.176.249.249 0 0 0 .202-.264zM42.408 346.267c-.096-4.094-1.691-8.758-5.064-11.199-.129-.087-.257.099-.193.219a56.413 56.413 0 0 1 4.765 11.067c.023.055.063.1.114.128a.254.254 0 0 0 .314-.056.265.265 0 0 0 .064-.159zM45.31 344.745c-.096-4.094-1.692-8.757-5.054-11.198-.128-.088-.257.098-.192.219a56.979 56.979 0 0 1 4.754 11.067.26.26 0 0 0 .113.127c.051.028.11.038.167.028a.256.256 0 0 0 .147-.084.266.266 0 0 0 .065-.159zM48.222 343.224c-.107-4.094-1.691-8.758-5.064-11.199-.128-.099-.257.098-.193.219a57.688 57.688 0 0 1 4.765 11.067.253.253 0 0 0 .428.072.265.265 0 0 0 .064-.159zM51.124 341.702c-.096-4.094-1.691-8.758-5.053-11.199-.14-.098-.268.099-.193.219a56.987 56.987 0 0 1 4.754 11.068.26.26 0 0 0 .114.127c.05.028.109.038.166.028a.261.261 0 0 0 .212-.243z" fill="#455A64"/><path d="M134.062 206.354s4.047 39.234 5.932 58.982c.481 4.915.803 8.637.92 10.224 0 .635.065 10.882.086 24.292V366.004h39.006v-5.801c0-3.361.118-8.014.193-13.432 0-2.781.075-5.748.118-8.857.299-24.149.546-56.584-.129-66.141-.086-1.095-.16-2.244-.235-3.416-1.756-27.05-2.731-66.426-15.708-105.343h-49.36s.429 22.858 10.6 39.41a82.904 82.904 0 0 1 8.577 3.93z" fill="#616161"/><path d="M170.787 284.132c-.192-12.611-.696-25.178-1.659-37.789-.964-12.611-2.441-24.828-4.412-37.154a313.447 313.447 0 0 0-7.869-36.749 331.915 331.915 0 0 0-1.317-4.522.171.171 0 0 0-.076-.099.158.158 0 0 0-.122-.015.152.152 0 0 0-.098.077.173.173 0 0 0-.015.125c3.159 12.042 5.878 24.27 7.945 36.607 2.066 12.337 3.426 24.893 4.454 37.417 1.028 12.523 1.606 25.178 1.917 37.756.31 12.578.332 25.178.214 37.756-.118 12.578-.6 25.178-.632 37.723v4.729c0 .11.161.099.161 0 .225-6.305.589-12.611.792-18.927.203-6.316.385-12.644.535-18.971.236-12.655.375-25.31.182-37.964zM140.668 209.462a84.068 84.068 0 0 0-7.495-3.7c-2.57-1.117-5.172-2.124-7.709-3.284-.097 0-.182.098-.086.153 2.505 1.314 4.957 2.726 7.495 3.974a60.035 60.035 0 0 0 7.677 3.142c.182.054.268-.208.118-.285z" fill="#263238"/><path d="M141.096 370.602c0 2.43.086 4.839.15 7.159 0 1.445.086 2.858.129 4.215.289 8.758.76 15.501 1.499 15.983 2.27 1.466 61.962 1.653 64.05.952 2.088-.701.257-6.842-2.056-8.758-1.402-1.149-10.386-5.473-17.217-8.702-4.39-2.069-7.891-3.679-7.891-3.679l.193-7.159.931-32.622h-39.959s-.086 16.782.171 32.611z" fill="#fff"/><path d="M183.164 346.77c-1.209.208-43.524 0-43.524 0s.235 48.977 2.741 51.539c2.505 2.561 65.41 1.675 66.47.821 1.06-.854-.075-7.083-4.529-11.068-3.212-2.89-22.271-11.33-22.271-11.33l1.113-29.962z" fill="#F6D648"/><path d="M184.578 375.079c-3.608-1.784-8.416-2.474-12.056-.503-.14.076 0 .274.096.274 3.94-.194 7.888.045 11.778.711a.244.244 0 0 0 .193-.005.253.253 0 0 0 .133-.143.258.258 0 0 0-.144-.334zM184.578 371.741c-3.608-1.785-8.416-2.474-12.056-.504-.14.077 0 .274.096.274 3.94-.194 7.888.045 11.778.711a.244.244 0 0 0 .193-.005.253.253 0 0 0 .133-.143.259.259 0 0 0-.144-.333zM184.578 368.402c-3.608-1.785-8.416-2.474-12.056-.504-.14.077 0 .274.096.274 3.94-.194 7.888.045 11.778.711a.249.249 0 0 0 .326-.147.261.261 0 0 0-.004-.198.252.252 0 0 0-.14-.136zM184.578 365.063c-3.608-1.785-8.416-2.474-12.056-.504-.14.077 0 .274.096.274 3.94-.193 7.888.045 11.778.711a.249.249 0 0 0 .326-.147.261.261 0 0 0-.004-.198.256.256 0 0 0-.14-.136zM184.578 361.724c-3.608-1.785-8.416-2.474-12.056-.504-.14.077 0 .274.096.274 3.94-.194 7.888.045 11.778.711a.249.249 0 0 0 .326-.147.261.261 0 0 0-.004-.198.252.252 0 0 0-.14-.136z" fill="#455A64"/><path d="m165.541 149.604 4.357 30.652s-51.64.733-63.771-.132c0 0 12.677-57.307 25.697-71.779 6.531-7.247 14.187-6.7 19.069-1.642 1.232 1.28 15.965 21.193 17.517 28.801 1.381 6.711-2.869 14.1-2.869 14.1z" fill="#F6D648"/><path d="M142.135 116.73c7.323 1.095 50.238-1.499 57.818-10.607 9.208-11.024 20.344-32.666 23.16-39.607 1.841-4.608-19.466-16.42-20.665-12.041-1.874 6.853-18.448 32.742-19.733 35.03-1.285 2.288-20.344 8.988-31.447 14.658-9.958 5.08-14.294 11.768-9.133 12.567z" fill="#F7A9A0"/><path d="M202.202 55.46s2.42-9.108 4.283-14.986c1.07-3.284 3.308-8.758 5.15-10.783 2.752-3.076 16.168-14.122 18.855-10.849 2.441 2.956-10.268 10.947-10.268 10.947s12.131-9.228 14.412-5.112c2.28 4.116-13.245 11.199-13.245 11.199s12.677-9.196 14.38-4.565c1.285 3.492-12.431 10.717-12.431 10.717s10.943-7.827 12.42-4.291c1.638 3.908-10.621 11.385-10.621 11.385 2.28 9.644-.493 15.183-2.923 18.883-.6.887-20.012-12.545-20.012-12.545z" fill="#F7A9A0"/><path d="M215.811 32.68c1.392-1.096 2.784-2.3 4.283-3.285 1.499-.985 2.998-1.96 4.561-2.824a30.05 30.05 0 0 1 6.424-2.759 65.574 65.574 0 0 0-10.707 6.01c-1.478.996-2.998 1.927-4.476 2.934-.085.032-.117-.022-.085-.077zM219.269 38.24c1.831-1.38 3.598-2.802 5.493-4.094 1.895-1.292 3.78-2.332 5.739-3.481.161-.088.15 0 0 .12-1.916 1.226-3.597 2.507-5.493 3.755-1.895 1.248-3.854 2.43-5.707 3.744-.032.022-.053-.022-.032-.044zM221.4 43.528a50.845 50.845 0 0 1 8.876-5.605c.15-.077.128.065 0 .164-2.987 1.806-5.354 3.196-8.78 5.54-.075 0-.193 0-.096-.1z" fill="#263238"/><path d="m171.976 91.925 10.429 23.065s-25.826 7.072-38.203 5.375c-8.941-1.226-8.641-8.495 3.683-15.994 9.733-5.922 24.091-12.446 24.091-12.446z" fill="#F6D648"/><path d="M177.661 115.209a215.536 215.536 0 0 0-9.24-20.92c0-.087-.161 0-.118.066.835 1.653 5.428 13.235 9.219 20.92.043.087.171.022.139-.066zM160.422 119.631c-4.047.602-7.912 2.19-11.777 3.459a.09.09 0 0 0-.041.045.091.091 0 0 0-.001.061.08.08 0 0 0 .037.047.084.084 0 0 0 .058.012c1.488-.438 3.009-.832 4.529-1.237-.696.427-1.37.886-2.066 1.302-.097 0 0 .197.085.143 1.071-.624 2.142-1.095 3.213-1.785a48.43 48.43 0 0 0 5.985-1.959s.043-.099-.022-.088z" fill="#263238"/></svg>