<svg width="100" height="80" fill="none" xmlns="http://www.w3.org/2000/svg"><path d="M46.337 66.272c-8.515-.115-17.017-.487-25.506-1.19a398.07 398.07 0 0 1-19.732-2.147C.014 62.79.014 62.796.014 61.687.013 55.62.016 49.556 0 43.49c-.001-.477.096-.621.596-.552 8.13 1.142 16.297 1.897 24.489 2.411 9.895.622 19.8.87 29.714.756 6.448-.075 12.891-.299 19.326-.693 6.148-.376 12.285-.882 18.404-1.597 2.317-.272 4.628-.579 6.94-.89.402-.054.532.036.531.465-.013 6.297-.014 12.594-.003 18.89 0 .398-.134.521-.511.572-4.794.65-9.595 1.225-14.41 1.7a358.128 358.128 0 0 1-21.808 1.487c-5.641.21-11.286.306-16.931.231zm31.876-11.325.13-.075 4.953 4.987c-.06-2.89-.246-5.681-.42-8.474-.02-.322-.145-.41-.462-.404-1.262.025-1.262.013-1.178 1.28l.03.405.176 2.856-5.15-5.108c0 .153-.005.243 0 .332.14 2.544.282 5.087.42 7.63.056 1.01.053.964 1.057.932.598-.018.718-.233.668-.787-.106-1.188-.153-2.382-.224-3.574zm-16.46.499v.025c-.267 0-.536-.02-.801.004-1.07.095-.907-.193-.932.976-.012.546.15.788.717.657.164-.038.347-.031.514-.005.197.032.51-.155.547.223.029.298.056.593-.28.803-1.17.73-2.797.285-3.386-.978-.42-.9-.36-1.81.175-2.648.489-.766 1.216-1.074 2.119-.976.73.08 1.224.501 1.594 1.096.165.265.3.345.556.095.217-.214.473-.389.725-.561.205-.14.206-.266.078-.472-.896-1.442-2.767-2.16-4.346-1.653-2.206.708-3.382 3.09-2.639 5.344.7 2.121 3.016 3.209 5.228 2.453 1.472-.502 1.897-1.108 1.862-2.654l-.008-.29c-.038-1.446-.038-1.446-1.436-1.44h-.287zm-50.477-.526-.014-.002c.007-.096 0-.197.026-.287.136-.496-.08-.64-.547-.646-.554-.006-1.105-.087-1.659-.124-1.403-.094-1.093-.365-1.255 1.132-.002.02.001.039-.002.057-.036.24.045.352.305.358.344.006.686.071 1.03.082.308.01.38.146.354.44-.03.352-.172.545-.513.659-1.843.612-3.403-.609-3.257-2.564.073-.987.816-1.937 1.705-2.183.856-.237 1.78.116 2.337.854.176.233.197.682.506.68.265-.003.528-.278.791-.433.083-.049.163-.1.246-.147.232-.132.227-.276.107-.515-1.162-2.295-4.174-2.847-6.041-1.094-1.448 1.358-1.77 3.427-.81 5.186.845 1.55 2.784 2.328 4.616 1.854 1.411-.367 1.845-.893 1.975-2.385.027-.31.067-.615.1-.922zm33.99 1.097h-.062c0 .965.003 1.93 0 2.895-.003 1.161-.004 1.142 1.135 1.164.42.008.553-.095.551-.538-.005-1.795.03-3.59.054-5.384.003-.194-.081-.47.259-.461.437.013.88-.058 1.313.065.566.16.654.617.61 1.094-.042.465-.144.917-.784.937-.9.026-.891.047-.877.965.003.207.066.371.167.538.298.494.592.99.879 1.489.76 1.322.757 1.324 2.24 1.288.02 0 .039-.002.058 0 .384.046.38-.137.223-.396-.397-.657-.784-1.322-1.207-1.963-.237-.358-.283-.578.11-.896.812-.658 1.095-2.04.718-3.084-.363-1.007-1.243-1.62-2.396-1.646-.86-.019-1.721 0-2.58-.027-.335-.01-.42.11-.416.43.015 1.176.005 2.352.005 3.53zm-18.501.14c.044 1.154.667 2.389 2.011 3.145 1.278.72 2.605.702 3.88-.055 1.01-.6 1.01-.712.293-1.647-.215-.281-.37-.367-.671-.099-.387.344-.828.625-1.37.665-.954.072-1.693-.311-2.138-1.155-.508-.965-.456-1.95.165-2.85.728-1.056 1.978-1.23 3.026-.497.29.203.49.715.826.605.314-.103.51-.547.783-.814.255-.246.157-.397-.053-.61-1.194-1.204-2.799-1.576-4.26-.965-1.524.636-2.507 2.17-2.492 4.276zm66.601 2.052c1.359.006 2.44-.81 2.653-2.004.248-1.39-.36-2.374-1.781-2.875-.36-.127-.727-.239-1.089-.361-.386-.131-.733-.31-.603-.815.125-.487.522-.495.918-.478.218.01.436.081.574.23.475.519.71.234.989-.218.511-.832.543-.842-.33-1.311-.947-.51-1.922-.506-2.833.082-.816.526-1.168 1.325-1.012 2.292.168 1.031.872 1.579 1.815 1.873.419.13.838.265 1.25.42.368.14.533.433.472.827-.06.384-.3.63-.671.698-.45.084-.862-.022-1.25-.29-.247-.171-.373-.63-.664-.543-.272.08-.466.432-.695.665-.054.054-.1.116-.16.165-.214.178-.17.336 0 .532.642.738 1.443 1.113 2.417 1.111zM71.55 50.458l-1.122 3.138c-.682 1.905-1.356 3.814-2.053 5.712-.131.357-.058.42.297.414 1.354-.023 1.356-.011 1.816-1.294.409-1.141.81-2.286 1.257-3.548.563 1.252 1.063 2.375 1.572 3.495.524 1.155.527 1.131 1.809 1.074.476-.023.486-.177.312-.548-.672-1.428-1.329-2.864-1.988-4.298-.617-1.339-1.23-2.68-1.9-4.145zm-45.858 8.986-3.17-9.28c-.132.257-.21.404-.282.556-1.114 2.346-2.225 4.694-3.342 7.04-.67 1.406-.674 1.401.87 1.381.252-.003.395-.062.508-.337.297-.728.652-1.434.992-2.145.31-.65.63-1.295 1.009-2.07l1.098 3.288c.54 1.622.54 1.622 2.317 1.567zm61.169-8.787v.006c-.761.053-1.524.112-2.285.159-.272.016-.396.098-.396.413 0 1.244-.013 1.244 1.228 1.164a.942.942 0 0 0 .114-.015c.395-.076.525.086.549.49.09 1.539.213 3.076.33 4.612.094 1.257.096 1.244 1.332 1.14.366-.032.461-.148.427-.524-.16-1.784-.277-3.573-.433-5.358-.037-.427.081-.565.514-.581 1.224-.046 1.203-.065 1.12-1.276-.028-.395-.185-.426-.503-.392-.662.07-1.33.11-1.997.162zm-71.573 8.184v.006c.363.02.726.035 1.089.06 1.248.086 1.236.087 1.225-1.164-.002-.315-.115-.386-.395-.399-.65-.03-1.297-.12-1.947-.13-.457-.006-.624-.13-.579-.63.14-1.517.229-3.04.335-4.561.092-1.313.09-1.302-1.218-1.325-.282-.005-.377.089-.396.346-.175 2.407-.348 4.812-.535 7.218-.028.348.117.416.418.43.668.032 1.336.098 2.003.15zm21.365-2.952h.197c0-.945-.01-1.89.002-2.835.018-1.177.026-1.159-1.16-1.209-.418-.017-.514.127-.521.522-.038 2.102-.102 4.202-.16 6.304-.033 1.247-.035 1.236 1.218 1.226.317-.002.434-.086.428-.423-.015-1.194-.004-2.39-.004-3.585zm30.424-.045h-.21c0-.963.01-1.926-.002-2.89-.015-1.186-.021-1.17-1.211-1.144-.393.01-.52.11-.502.53.092 2.1.154 4.2.22 6.302.04 1.204.035 1.188 1.24 1.167.376-.007.483-.112.474-.496-.026-1.155-.01-2.312-.01-3.469zm-26.065 2.57v-.076c-.457 0-.915.007-1.372-.001-1.176-.023-1.158-.026-1.166 1.173-.002.378.133.447.463.45 1.182.009 2.364.046 3.545.065 1.125.017 1.102.012 1.117-1.117.006-.43-.155-.512-.529-.5-.685.02-1.372.005-2.058.005zm.17-6.37v-.08c-.477 0-.954.007-1.432 0-1.145-.018-1.124-.019-1.148 1.145-.01.408.144.47.492.472 1.126.007 2.25.05 3.375.07 1.281.025 1.272.022 1.203-1.259-.015-.281-.111-.358-.374-.353-.705.014-1.41.005-2.117.005zm-.232 4.636v.066c.457 0 .916-.012 1.373.003 1.14.037 1.12.041 1.155-1.078.013-.423-.09-.575-.53-.568-1.069.016-2.137-.015-3.205-.036-1.194-.023-1.182-.028-1.183 1.15 0 .343.085.483.445.47.648-.023 1.297-.007 1.945-.007z" fill="#616161"/><path d="M81.378 32.991c.842.125 1.547.603 2.307.932 1.204.52 2.388 1.09 3.58 1.638.01.25.026.5.026.749.002 1.25-.005 2.503.004 3.753.001.186-.103.433.22.508.591.138.908-.097.922-.698.026-1.211-.066-2.424.046-3.634 1.533.736 3.02 1.557 4.4 2.559.353.256.661.586.952.916.53.603.356 1.16-.395 1.482-.61.26-1.253.334-1.894.41-2.938.355-5.877.717-8.82 1.024-2.678.28-5.362.498-8.045.734-3.694.324-7.395.505-11.1.644-2.922.11-5.849.117-8.774.191-5.833.149-11.668.051-17.502.092-.188.001-.377-.04-.565-.06.497-.45 1.154-.532 1.746-.757 2.925-1.114 5.843-2.239 8.709-3.508 3.116-1.38 6.17-2.856 8.962-4.837.94-.667 1.842-1.389 2.497-2.358.765-1.131.902-2.23-.25-3.234-.74-.644-1.588-1.06-2.499-1.36-2.646-.872-5.188-1.952-7.367-3.75-1.728-1.426-3.023-3.163-3.78-5.311-.733-2.087-.79-4.216-.559-6.38.018-.162.103-.35-.107-.462.658-2.43 1.3-4.863 2.433-7.13.711-1.42 1.382-2.864 2.382-4.113-.193 1.038-.579 2.023-.846 3.043-.66 2.516-.664 5.027-.097 7.541.724 3.204 2.458 5.802 4.83 8.007 2.453 2.28 5.34 3.827 8.399 5.076 1.767.722 3.548 1.417 5.336 2.087.725.271 1.404.672 2.182.794l4.774 1.958.02 7.994c.002 1.467-.002 2.935.005 4.402 0 .158-.084.367.145.449.467.168.987-.215.987-.728.002-2.182-.002-4.365.005-6.546.005-1.66.025-3.32.037-4.98 1.017.206 1.927.703 2.87 1.103.816.347 1.682.599 2.42 1.12.205.167.188.4.187.633-.004.888-.002 1.777-.002 2.665.002 1.777-.002 3.554.006 5.331.001.188-.1.434.217.515.578.147.93-.1.93-.688.003-2.183-.003-4.366.004-6.548.006-.422-.053-.85.062-1.268zM45.313 74.58c.489-.79 1.026-1.373 1.601-1.925.112-.106.227-.207.335-.316.173-.175.222-.388.038-.561-.17-.158-.317.015-.436.13-.732.708-1.355 1.513-1.968 2.325-.483.639-1.05 1.172-1.777 1.51-.241.112-.56.236-.75.006-.202-.242.024-.497.178-.72.218-.315.464-.601.775-.816.175.123.052.223.01.309-.088.175-.229.383-.049.524.202.157.417-.032.541-.182.217-.265.453-.578.187-.932-.256-.341-.605-.276-.93-.099-.667.364-1.14.95-1.66 1.486-.251.259-.54.754-.868.517-.191-.138.255-.6.475-.877.154-.196.333-.373.505-.553.13-.138.222-.289.067-.454-.193-.205-.353-.055-.48.094-.397.467-.778.95-1.178 1.415-.15.173-.33.32-.5.475-.088.079-.195.154-.303.054-.107-.098-.049-.216.026-.308.264-.328.536-.65.803-.977.109-.133.221-.266.31-.412.062-.1.069-.226-.021-.323-.114-.123-.257-.096-.363-.008-.145.121-.286.26-.388.417-.472.727-1.252 1.083-1.926 1.762.02-.66.412-.95.674-1.3.246-.328.436-.587-.123-.759-.047-.015-.092-.065-.123-.109-.4-.576-.398-.575-.745.049-.25.449-.59.81-1.045 1.042-.236.12-.42.142-.315-.243.095-.347.106-.685-.268-.907-.227-.134-.054-.264.036-.368.3-.35.621-.68.912-1.037.096-.118.27-.288.093-.452-.152-.139-.35-.04-.471.07-.225.206-.415.448-.62.674-.697.768-1.422 1.512-2.025 2.357-.262.367-.593.829-.19 1.254.366.386.892.197 1.212-.082.791-.689 1.916-.665 2.686-1.456.093.322-.109.466-.165.651-.092.306-.174.618.111.856.273.227.55.073.799-.072.263-.153.465-.453.74.042.138.248.491.124.731-.028.239-.15.423-.21.706.004.397.297.767.012 1.07-.26.245-.22.403-.375.642.032.274.469.725.324 1.13.181.276-.097.505-.308.849-.136.17.086.347-.114.468-.266.132-.166.245-.346.376-.511.109-.138.253-.297.43-.22.243.107.016.291.01.441-.007.222-.161.49.093.634.219.123.512.127.701-.064 1.1-1.102 2.547-.995 3.91-1.155 3.946-.462 7.883-.983 11.811-1.594 3.891-.607 7.76-1.314 11.61-2.132 5.635-1.198 11.187-2.703 16.62-4.638.32-.115.635-.246 1.001-.28-.462.26-.91.548-1.387.77-2.67 1.243-5.367 2.422-8.135 3.435a138.805 138.805 0 0 1-14.691 4.494 155.377 155.377 0 0 1-13.546 2.663 186.35 186.35 0 0 1-11.32 1.368c-3.505.316-7.012.54-10.525.695-3.003.132-6.004.2-9.008.215-.485.002-.86-.101-1.23-.453-1.289-1.233-2.616-2.424-3.928-3.632-.068-.063-.156-.118-.108-.278.703.063 1.415.121 2.125.196.859.09 1.72.039 2.58.05.218.002.527.03.51-.304-.016-.316-.317-.215-.505-.213-1.82.02-3.63-.05-5.42-.434a1.265 1.265 0 0 1-.61-.29 4555.83 4555.83 0 0 1-9.856-8.992c-.116-.105-.382-.183-.296-.37.1-.218.338-.067.514-.044 3.39.451 6.786.847 10.186 1.231 4.577.519 9.168.866 13.76 1.205 2.02.15 4.048.186 6.07.292 6.464.337 12.931.297 19.397.155 3.954-.087 7.906-.286 11.852-.59 3.145-.241 6.292-.45 9.43-.756 3.31-.323 6.614-.711 9.917-1.092 1.932-.221 3.86-.48 5.785-.723.06.166-.056.188-.133.22-4.74 1.87-9.607 3.32-14.55 4.527-3.232.79-6.482 1.485-9.75 2.1-4.093.771-8.206 1.42-12.334 1.96-2.691.352-5.384.7-8.088.931-.643.055-.996.51-1.459.824-.118.08-.229.275-.386.154-.145-.113-.013-.285.017-.43.038-.182.15-.297.306-.397.209-.133.403-.293.591-.457.173-.15.292-.372.129-.556-.177-.2-.369-.043-.542.1-.256.215-.434.545-.947.648zm-17.9.27.05.047c-.247.288-.506.564-.736.864-.22.287-.247.621-.022.91.247.317.511.095.765-.032.213-.105.434-.485.639.038.048.125.248.061.339-.056.15-.195.291-.399.427-.604.402-.612.902-1.094 1.7-1.359-.194.433-.5.641-.74.903-.285.311-.465.71-.22 1.046.227.307.638.145.952-.004.28-.133.503-.256.81.016.25.22.607.174.918-.004.538-.307.664-.805.666-1.377.003-.518-.032-1.047.416-1.444.126-.113.363-.27.157-.468-.135-.128-.361-.083-.536.027a.806.806 0 0 0-.33.389c-.419 1.052-1.269 1.701-2.144 2.322-.111.08-.262.267-.393.13-.158-.164.031-.308.142-.432.266-.301.55-.589.801-.902.117-.145.224-.342.12-.537-.11-.208-.336-.164-.515-.136-.223.034-.498.243-.645.166-.663-.343-.833.238-1.09.566-.375.474-.772.904-1.305 1.188-.155.083-.356.304-.5.108-.12-.164.103-.343.224-.482.228-.26.49-.492.702-.763.19-.242.293-.673-.05-.714-.523-.061-1.177-.042-1.591.23-.592.386-.979 1.061-1.337 1.701-.088.158-.126.365.017.485.178.148.323-.045.43-.16.155-.168.262-.38.41-.555.411-.473.77-1.02 1.469-1.106zm-2.738-2.644c-.607.026-1.307.405-1.94.977-.239.216-.46.436-.236.716.267.333.501.017.72-.153.447-.35.748-.88 1.324-1.078.228-.079.459-.155.643.032.182.188.128.44.011.644-.218.382-.442.765-.7 1.12-.56.778-1.144 1.54-1.72 2.305-.11.145-.216.296-.058.46.16.169.348.133.515.003.106-.081.206-.175.29-.278.6-.747 1.189-1.505 1.687-2.326.299-.491.555-1.01.547-1.618-.01-.642-.18-.82-1.083-.805z" fill="#65ADAA"/><path d="M44.094 12.275c.211.111.125.301.108.461-.231 2.164-.175 4.294.56 6.38.754 2.148 2.05 3.886 3.779 5.312 2.178 1.798 4.72 2.878 7.366 3.75.911.3 1.76.716 2.498 1.36 1.154 1.005 1.016 2.102.25 3.234-.655.969-1.557 1.69-2.496 2.358-2.791 1.98-5.846 3.457-8.962 4.837-2.866 1.268-5.784 2.394-8.71 3.508-.59.225-1.248.307-1.745.757-1.779.15-3.556 0-5.332-.047-3.46-.092-6.918-.277-10.375-.475-.64-.037-1.029-.19-1.13-.887-.063-.433-.296-.843-.363-1.276-.184-1.196-.849-2.018-1.851-2.61-.401-.237-.622-.579-.724-1.048-.159-.734-.39-1.452-.578-2.18-.093-.36-.164-.553-.59-.257-.473.328-.753.666-.807 1.284-.098 1.133-.3 2.256-.478 3.38-.054.337-.023.584.278.8.34.245.62.575.961.82.302.217.225.394.094.675-.279.595-.653.784-1.334.702-2.848-.342-5.704-.61-8.557-.915-.49-.052-.977-.147-1.527-.231.364-.464.816-.713 1.22-1.01 3.059-2.242 6.138-4.455 9.188-6.71.69-.51 1.38-.664 2.138-.314.405.188.567.01.774-.28a2855.61 2855.61 0 0 1 6.351-8.915c.19-.265.406-.513.629-.75.626-.668 1.458-.817 2.226-.324.366.235.462.09.64-.194 2.26-3.64 4.558-7.26 6.782-10.923.685-1.127 2.2-1.579 3.282-.193 1.204 1.543 2.329 3.15 3.491 4.727.169.23.348.45.586.758.806-1.906 1.583-3.735 2.358-5.564zm-7.857 1.181c-.007.082-.023.14-.014.191.957 5.315 1.967 10.62 2.841 15.949.245 1.488.715 2.667 2.036 3.426.18.103.32.276.495.393.314.21.38.456.273.833a120.118 120.118 0 0 0-1.018 3.797c-.209.829-.506 1.64-.631 2.58.708-.355 1.328-.69 1.968-.98.59-.267 1.043-.67 1.447-1.176 1.186-1.486 2.407-2.944 3.605-4.42.192-.236.398-.387.714-.416.78-.07 1.558-.163 2.337-.257 1.72-.208 3.44-.421 5.33-.653-.883-.615-1.544-1.287-2.393-1.677a92.322 92.322 0 0 0-3.478-1.494c-2.89-1.19-2.893-1.184-4.496-3.453l-.366-.519c-2.715-3.866-5.82-7.453-8.132-11.608-.116-.202-.245-.428-.518-.516zm-1.358 29.67c-.432-.783-.782-1.439-1.157-2.081-.082-.14-.243-.24-.384-.331-1.628-1.045-3.246-2.106-4.897-3.11-.472-.287-.59-.587-.516-1.115.212-1.546.365-3.1.557-4.65.045-.363-.057-.603-.342-.842-.895-.752-1.744-1.56-2.646-2.3-.436-.357-.56-.695-.344-1.229.224-.55.382-1.13.533-1.707.068-.257.224-.516.125-.864-.107.092-.192.14-.244.213-1.592 2.215-3.176 4.435-4.775 6.645-.204.283-.064.457.092.66 1.78 2.32 3.493 4.686 4.641 7.404.35.824.865 1.216 1.74 1.41 2.495.56 4.965 1.228 7.617 1.897zM68.715 27.579c-.78-.12-1.46-.523-2.183-.794a195 195 0 0 1-5.336-2.087c-3.06-1.25-5.946-2.796-8.399-5.076-2.371-2.205-4.106-4.803-4.83-8.007-.568-2.514-.562-5.025.097-7.542.268-1.018.654-2.003.847-3.042.065-.117.127-.237.198-.35.539-.865 1.012-.91 1.628-.11 1.406 1.829 2.543 3.839 3.732 5.81 3.397 5.624 6.815 11.232 10.694 16.535 1.154 1.576 2.366 3.11 3.552 4.663zm-6.55-6.073c-4.063-6.546-8.18-13-12.023-19.773-.076.248-.117.35-.138.457-.381 1.947-.753 3.896-1.146 5.841-.059.292.08.428.265.574.724.567 1.438 1.146 2.172 1.698.269.202.39.423.402.766.055 1.58.147 3.16.197 4.74.012.368.11.574.461.748 2.398 1.19 4.782 2.411 7.173 3.62.878.445 1.758.886 2.636 1.329zM81.378 32.991c-.116.417-.056.845-.057 1.268-.007 2.183-.002 4.366-.004 6.547-.001.588-.354.836-.93.689-.317-.081-.216-.327-.217-.515-.008-1.777-.006-3.554-.006-5.33 0-.889-.003-1.778.001-2.666.001-.233.018-.465-.186-.634.207-.123.164-.327.164-.516-.008-4.17-.022-8.34-.016-12.509.001-.412-.182-.496-.526-.578-3.584-.852-5.332-4.724-3.587-7.918a5.367 5.367 0 0 1 6.119-2.62c2.411.649 4.032 2.866 3.969 5.433-.061 2.457-1.815 4.6-4.23 5.092-.473.096-.547.282-.546.712.013 4.324.004 8.649.004 12.972-.002.19.03.382.048.573zm3.447-19.532c0-2.31-1.84-4.176-4.105-4.166-2.263.01-4.115 1.896-4.107 4.177a4.156 4.156 0 0 0 4.147 4.137c2.228 0 4.065-1.875 4.065-4.148z" fill="#616161"/><path d="M74.688 30.128c-.013 1.66-.032 3.32-.038 4.98-.007 2.181-.002 4.364-.005 6.546 0 .513-.52.896-.986.727-.229-.082-.145-.292-.146-.448-.007-1.468-.002-2.935-.005-4.403-.004-2.664-.012-5.329-.02-7.994.051-1.02.051-1.02-.906-1.322-2.952-.925-4.54-3.917-3.642-6.86.85-2.784 3.846-4.377 6.693-3.56 2.254.646 3.882 2.91 3.826 5.32-.058 2.486-1.74 4.619-4.158 5.161-.563.127-.728.346-.658.874.041.322.031.653.045.979zm-.62-11.262a4.12 4.12 0 0 0-4.103 4.163c.008 2.31 1.869 4.133 4.204 4.118 2.2-.014 4.041-1.932 4.028-4.195-.013-2.246-1.886-4.102-4.128-4.086zM88.484 36.24c-.112 1.21-.02 2.422-.046 3.633-.014.6-.33.836-.922.698-.323-.075-.219-.322-.22-.508-.009-1.25-.002-2.502-.004-3.753 0-.25-.017-.5-.026-.749.007-2.43.007-4.863.03-7.294.003-.379-.236-.377-.474-.426-2.26-.465-3.9-2.132-4.258-4.43-.342-2.196.39-4.02 2.183-5.3 1.874-1.34 3.892-1.395 5.878-.23 1.98 1.163 2.91 3.354 2.507 5.699-.36 2.1-2.063 3.812-4.236 4.256-.27.056-.482.09-.479.481.02 2.547.012 5.095.016 7.642-.002.094.032.188.05.28zm-.63-17.851c-2.282-.01-4.097 1.82-4.114 4.15-.016 2.24 1.835 4.109 4.085 4.131 2.256.022 4.127-1.84 4.15-4.13.022-2.262-1.842-4.14-4.12-4.151z" fill="#616161"/><path d="M34.009 76.017c-.161.028-.274-.01-.229-.127.131-.34.28-.712.635-.84.183-.067.341.275.314.389-.089.376-.471.445-.72.578zM35.39 74.651c-.06.153-.066.389-.296.417-.113.014-.17-.137-.173-.26-.005-.215.15-.309.313-.36.113-.034.157.072.155.203zM37.374 74.799c.012.014.037.027.037.042 0 .014-.023.028-.036.043-.014-.014-.038-.027-.038-.04-.001-.015.023-.03.037-.045z" fill="#65ADAA"/><path d="M78.213 54.948c.07 1.191.118 2.385.226 3.574.05.553-.07.767-.667.787-1.004.03-1.002.077-1.057-.933l-.42-7.63c-.005-.089-.002-.179-.002-.332l5.152 5.109-.177-2.857c-.008-.134-.022-.27-.03-.404-.085-1.267-.084-1.256 1.178-1.281.317-.006.441.082.462.404.174 2.793.358 5.586.42 8.474l-4.952-4.987c-.046.025-.09.05-.133.076zM61.753 55.446h.288c1.396-.006 1.396-.006 1.435 1.44l.008.29c.035 1.546-.39 2.15-1.862 2.654-2.213.756-4.53-.332-5.228-2.453-.743-2.255.433-4.636 2.639-5.344 1.579-.507 3.448.211 4.346 1.653.128.206.127.332-.078.472-.251.173-.507.348-.725.56-.255.25-.39.171-.556-.094-.37-.595-.864-1.016-1.594-1.096-.904-.098-1.63.21-2.12.977-.533.836-.594 1.745-.174 2.647.59 1.264 2.215 1.709 3.386.978.335-.21.309-.505.28-.803-.037-.379-.35-.191-.547-.222a1.394 1.394 0 0 0-.514.004c-.568.131-.728-.111-.717-.657.027-1.169-.138-.881.932-.976.265-.023.534-.004.801-.004v-.026zM11.276 54.92c-.033.307-.073.613-.101.92-.13 1.492-.564 2.02-1.975 2.385-1.831.474-3.771-.304-4.616-1.854-.96-1.76-.638-3.828.81-5.186 1.867-1.753 4.878-1.201 6.04 1.094.121.239.127.384-.106.515-.083.047-.164.098-.246.147-.264.155-.526.43-.791.432-.31.004-.33-.446-.506-.679-.558-.738-1.481-1.09-2.337-.854-.889.246-1.632 1.196-1.705 2.183-.146 1.955 1.413 3.176 3.257 2.564.34-.114.483-.307.513-.659.025-.294-.046-.43-.355-.44-.343-.01-.685-.075-1.029-.082-.26-.006-.34-.119-.305-.358.002-.018 0-.038.002-.058.162-1.496-.148-1.226 1.255-1.13.554.036 1.106.117 1.659.123.467.006.683.15.546.646-.025.091-.017.191-.025.287.006.003.01.004.015.004zM45.266 56.018c0-1.177.01-2.355-.005-3.531-.005-.321.081-.44.415-.43.86.027 1.72.009 2.581.027 1.153.026 2.033.64 2.396 1.646.377 1.044.094 2.427-.718 3.084-.393.318-.347.538-.11.896.422.641.81 1.306 1.207 1.964.156.258.16.441-.223.396-.018-.002-.038-.001-.057-.001-1.484.036-1.482.035-2.241-1.288-.286-.5-.581-.995-.879-1.488a1.025 1.025 0 0 1-.167-.538c-.014-.918-.021-.94.877-.966.64-.018.74-.47.785-.936.043-.48-.045-.935-.611-1.095-.433-.123-.876-.052-1.313-.065-.34-.01-.256.266-.259.462-.024 1.794-.06 3.589-.054 5.383.002.443-.13.546-.55.538-1.141-.02-1.14-.001-1.136-1.164.003-.964 0-1.929 0-2.894h.062zM26.765 56.156c-.015-2.106.968-3.64 2.491-4.275 1.463-.61 3.067-.239 4.261.966.21.212.308.363.053.61-.275.266-.47.71-.783.813-.337.11-.536-.402-.826-.605-1.048-.732-2.298-.559-3.026.498-.62.9-.673 1.884-.165 2.849.446.844 1.184 1.229 2.139 1.156.54-.041.982-.322 1.369-.666.3-.266.456-.182.67.099.717.935.717 1.048-.291 1.647-1.275.757-2.603.776-3.881.056-1.344-.76-1.966-1.994-2.011-3.148zM93.366 58.21c-.974 0-1.774-.374-2.417-1.114-.17-.196-.214-.354 0-.532.06-.05.108-.11.16-.165.229-.233.423-.585.695-.665.29-.085.417.372.664.542.388.268.8.374 1.25.291.372-.07.612-.315.671-.698.061-.394-.104-.686-.473-.826-.41-.156-.83-.29-1.25-.421-.942-.294-1.646-.842-1.814-1.873-.157-.967.197-1.767 1.012-2.292.91-.588 1.887-.593 2.833-.082.873.47.841.48.33 1.31-.28.454-.514.738-.989.22-.138-.15-.356-.222-.574-.231-.398-.017-.793-.01-.918.478-.13.505.217.684.603.815.363.122.728.235 1.089.361 1.422.501 2.03 1.485 1.781 2.875-.213 1.196-1.295 2.014-2.653 2.007zM71.55 50.458c.67 1.465 1.283 2.806 1.899 4.147.659 1.433 1.316 2.87 1.988 4.298.174.37.164.525-.313.547-1.28.06-1.284.081-1.809-1.074-.508-1.118-1.008-2.241-1.57-3.494-.449 1.262-.85 2.406-1.258 3.548-.46 1.282-.462 1.27-1.816 1.294-.355.005-.429-.057-.298-.414.697-1.9 1.372-3.808 2.054-5.713.362-1.008.721-2.016 1.123-3.139zM25.692 59.444c-1.778.056-1.778.056-2.317-1.567-.35-1.052-.702-2.102-1.098-3.288-.378.775-.699 1.42-1.009 2.07-.34.711-.695 1.416-.992 2.145-.113.274-.255.334-.508.338-1.544.02-1.54.024-.87-1.382 1.117-2.345 2.228-4.694 3.342-7.04.071-.15.15-.3.281-.556l3.171 9.28zM86.861 50.657c.666-.052 1.335-.093 1.998-.163.317-.034.475-.004.502.391.084 1.212.105 1.23-1.118 1.277-.433.016-.552.154-.515.58.156 1.786.272 3.573.433 5.358.033.377-.06.493-.427.524-1.236.105-1.238.117-1.332-1.14-.116-1.536-.24-3.072-.33-4.61-.024-.405-.154-.567-.549-.49a.942.942 0 0 1-.114.014c-1.241.08-1.229.08-1.228-1.164 0-.316.124-.397.396-.413.762-.047 1.524-.105 2.285-.16l-.001-.004zM15.288 58.841c-.667-.052-1.335-.117-2.003-.148-.301-.014-.445-.081-.418-.43.188-2.406.36-4.812.535-7.218.018-.257.114-.35.396-.346 1.308.023 1.31.013 1.218 1.325-.107 1.52-.196 3.044-.335 4.561-.045.501.121.624.58.63.648.01 1.296.1 1.946.13.28.014.392.084.395.4.01 1.25.023 1.25-1.225 1.163-.363-.025-.726-.04-1.09-.06v-.007zM36.653 55.889c0 1.195-.01 2.391.006 3.585.005.338-.111.42-.428.424-1.253.01-1.252.02-1.217-1.227.057-2.1.12-4.202.16-6.304.006-.395.104-.539.52-.521 1.186.05 1.178.03 1.16 1.209-.013.944-.002 1.89-.002 2.834h-.2zM67.077 55.845c0 1.157-.017 2.314.01 3.47.01.383-.098.489-.473.495-1.206.021-1.203.037-1.24-1.167-.068-2.1-.13-4.202-.221-6.303-.019-.417.109-.519.502-.528 1.189-.028 1.197-.044 1.212 1.143.011.963.002 1.927.002 2.891l.208-.001zM41.012 58.413c.686 0 1.373.017 2.058-.005.373-.012.535.07.529.5-.015 1.13.007 1.134-1.117 1.117-1.181-.019-2.363-.056-3.545-.065-.328-.002-.465-.07-.463-.45.007-1.198-.011-1.196 1.166-1.173.457.01.915.001 1.372.001v.075zM41.181 52.044c.705 0 1.412.009 2.117-.005.263-.005.36.072.374.353.07 1.281.08 1.284-1.203 1.26-1.126-.023-2.25-.064-3.375-.071-.348-.003-.502-.063-.492-.472.025-1.164.004-1.163 1.148-1.145.477.007.953 0 1.431 0v.08zM40.95 56.68c-.649 0-1.297-.016-1.945.008-.36.012-.445-.128-.445-.471.001-1.178-.011-1.173 1.183-1.15 1.068.02 2.136.052 3.205.036.44-.007.543.145.53.568-.034 1.12-.015 1.115-1.155 1.078-.457-.015-.916-.002-1.373-.002v-.066z" fill="#FEFEFE"/><path d="M32.358 75.127c.099.41.016.73-.2 1.005a.403.403 0 0 1-.604.065c-.181-.157.01-.303.129-.42.211-.208.428-.412.675-.65zM27.413 74.85c.03-.051.063-.1.117-.025.003.005-.044.048-.067.073a.987.987 0 0 0-.05-.047z" fill="#65ADAA"/></svg>