<svg width="120" height="80" fill="none" xmlns="http://www.w3.org/2000/svg"><path fill-rule="evenodd" clip-rule="evenodd" d="M59.636.093c-.333.15-.512.39-.801 1.078-.735 1.742-1.315 3.93-1.577 5.948-.15 1.146-.129 4.226.035 5.283.307 1.972.823 3.665 1.611 5.284.297.61.645 1.274.774 1.478a22.365 22.365 0 0 0 4.944 5.558c1.608 1.303 3.143 2.3 5.244 3.409 1.889.996 2.436 1.224 11.31 4.712.56.22 1.08.435 1.153.478.262.15.208-.007-.147-.429-.444-.53-1.542-1.935-2.352-3.014l-.805-1.071c-1.75-2.325-5.079-7.209-7.24-10.623-1.944-3.07-3.432-5.503-6.568-10.732C62.33 2.637 61.203.926 60.483.265c-.321-.295-.497-.33-.847-.172zm1.641 3.775c3.108 5.452 7.597 12.779 12.356 20.163.73 1.133 1.318 2.07 1.306 2.08-.024.024-12.508-6.307-12.59-6.384-.029-.026-.122-1.594-.208-3.483-.086-1.89-.16-3.438-.166-3.443-.006-.004-.421-.336-.922-.739-.502-.402-1.187-.947-1.522-1.211a42.718 42.718 0 0 1-.797-.64l-.188-.158.203-1.06c.646-3.386 1.303-6.765 1.332-6.857.06-.193.282.128 1.196 1.732zm34.587 5.91c-2.643.487-4.694 2.488-5.225 5.097-.145.71-.143 1.96.003 2.685.401 1.988 1.849 3.796 3.706 4.63.446.2 1.443.484 1.704.484.15 0 .151.004.17 3.787.01 2.083.017 8.26.017 13.725v9.94l.219-.01c.12-.004.44-.032.71-.06l.49-.053V22.706l.528-.098c2.305-.427 4.323-2.337 4.966-4.7.162-.595.226-2.165.114-2.813-.602-3.513-3.99-5.946-7.402-5.317zm2.314 1.554c.874.226 1.492.597 2.214 1.327 1.039 1.05 1.487 2.121 1.487 3.549 0 2.224-1.338 4.086-3.456 4.809-.504.172-.705.199-1.492.203-.81.004-.974-.018-1.492-.2-.794-.276-1.442-.682-1.98-1.24-.601-.624-.703-.765-1-1.395-.373-.79-.502-1.476-.458-2.425.044-.943.212-1.525.664-2.301.698-1.2 1.91-2.1 3.174-2.356.22-.045.466-.097.546-.115.267-.063 1.324.022 1.793.144zM42.564 13.99c-.511.167-.941.61-1.562 1.609-.309.497-1.814 2.932-3.345 5.411-3.55 5.75-4.828 7.811-4.874 7.858-.02.02-.176-.065-.346-.189a2.312 2.312 0 0 0-.6-.308c-.402-.113-1.158-.103-1.44.02-.587.254-1.282 1.123-4.027 5.033-2.091 2.978-5.44 7.756-5.447 7.774-.004.009-.284-.082-.623-.202-1.194-.422-1.579-.308-3.313.979-.563.418-2.36 1.74-3.992 2.94a13563.56 13563.56 0 0 0-4.143 3.043l-2.357 1.73c-1.069.782-1.304.99-1.123.99.033 0 .602.081 1.265.18.663.1 2.38.3 3.815.446l5.136.521c1.39.142 2.591.257 2.67.257.102 0 .25-.179.512-.62.203-.34.369-.655.369-.7 0-.043-.425-.45-.945-.904-.762-.666-.939-.855-.912-.982.019-.086.203-1.353.409-2.816.206-1.463.378-2.664.383-2.669.205-.195 1.197-.841 1.291-.841.09 0 .155.087.206.277l.536 1.964.46 1.686.469.372c.257.204.779.614 1.16.91l.69.537.272.914a372.11 372.11 0 0 0 1.03 3.437c.01.014 3.213.227 4.811.321 1.146.067 5.083.24 7.641.334.6.022 2.352.074 3.893.114l2.802.075.946-.326c.52-.179 1.323-.465 1.783-.636.46-.17 1.066-.394 1.346-.496a176.332 176.332 0 0 0 8.66-3.496c3.488-1.544 6.596-3.117 8.987-4.549.914-.547 2.303-1.492 2.819-1.918.049-.041.26-.207.468-.37.533-.415 1.58-1.475 1.936-1.959a6.57 6.57 0 0 0 .54-.924c.217-.465.24-.58.24-1.18 0-.587-.025-.713-.206-1.064-.344-.664-.988-1.24-2.026-1.809-.618-.339-1.266-.599-2.79-1.12-.674-.23-1.391-.495-1.594-.589a56.43 56.43 0 0 0-1.097-.48c-1.302-.555-3.357-1.738-4.326-2.49-1.976-1.534-3.425-3.176-4.383-4.966-.898-1.676-1.34-3.046-1.629-5.038-.203-1.408-.045-5.35.235-5.86.03-.056.021-.059-.029-.01-.04.041-.19.357-.332.703a1106.84 1106.84 0 0 1-2.33 5.594c-.34.806-.464 1.032-.534.973-.122-.102-1.968-2.607-3.044-4.129-1.693-2.394-2.129-2.9-2.777-3.223-.48-.238-1.154-.296-1.634-.14zm1.298 2.456c.118.153.607.927 1.087 1.72 1.65 2.721 2.935 4.622 4.417 6.525.99 1.272 1.634 2.137 2.708 3.634.495.691 1.646 2.284 2.558 3.54l1.656 2.282.91.387c.5.213 2.288.985 3.974 1.714l3.064 1.327 1.25.933c.687.513 1.249.96 1.25.991 0 .032-.19.08-.421.108l-1.694.202-4.367.522c-1.7.204-3.13.395-3.177.426-.07.047-2.18 2.61-2.792 3.39-.099.126-.74.907-1.425 1.736l-1.246 1.507-1.689.875c-.928.482-1.705.86-1.724.84-.036-.038.08-.509.811-3.267.843-3.183 1.339-5.093 1.324-5.102a121.9 121.9 0 0 1-.852-.697l-1.473-1.207c-.35-.286-.651-.572-.67-.636-.035-.116-3.97-22.062-3.97-22.139 0-.099.297.136.491.389zm60.309 4.34c-1.556.345-3.097 1.38-3.97 2.67-.338.497-.78 1.497-.952 2.151-.228.866-.215 2.255.03 3.204a6.461 6.461 0 0 0 1.674 2.968c.869.896 1.821 1.426 3.137 1.747l.791.194-.045 7.625c-.026 4.328-.019 7.642.017 7.665.035.022.347.003.692-.043l.628-.082V33.714l.716-.164c2.593-.594 4.553-2.736 4.969-5.43.108-.704.036-1.945-.153-2.626-.646-2.321-2.383-4.056-4.645-4.638-.794-.205-2.132-.237-2.889-.07zm-16.01.492c-.612.078-1.362.3-1.99.588-1.133.522-2.288 1.655-2.898 2.843-.477.932-.682 1.691-.731 2.714-.044.908.052 1.655.313 2.434.737 2.2 2.681 3.916 4.87 4.3l.51.09.018 8.474c.01 4.661.027 8.474.037 8.474.122 0 1.25-.229 1.28-.259.022-.022.041-3.78.043-8.351l.004-8.311.255-.044c1.707-.291 3.212-1.203 4.198-2.542a7.063 7.063 0 0 0 1.085-2.274c.256-.974.269-2.271.034-3.197-.687-2.7-2.863-4.63-5.575-4.945-.726-.085-.738-.085-1.452.006zm19.007 1.156c.905.341 1.703.935 2.256 1.678.656.881.954 1.693 1.019 2.773.173 2.877-2.09 5.324-4.919 5.319-1.426-.003-2.506-.456-3.505-1.471-1.012-1.028-1.482-2.171-1.473-3.59.004-.769.07-1.126.331-1.81.541-1.415 1.881-2.63 3.343-3.032.435-.12.702-.142 1.443-.119.794.025.986.057 1.505.252zm-17.038.425c.238.061.696.242 1.018.4 2.37 1.17 3.4 4.085 2.32 6.564-.556 1.28-1.71 2.32-3.05 2.751-.682.22-1.784.275-2.486.123-1.485-.32-2.764-1.338-3.45-2.746-1.1-2.256-.313-5.104 1.777-6.423.576-.364.754-.445 1.394-.639.566-.171 1.87-.187 2.477-.03zm-59.014 7.258c-.355 1.168-1.134 3.823-1.134 3.865 0 .03.856.816 1.903 1.744a262.73 262.73 0 0 1 2.138 1.91l.236.222-.131 1.108c-.348 2.944-.673 5.953-.647 5.976.017.014.93.602 2.031 1.305 4.06 2.596 4.842 3.111 4.957 3.27.216.3 1.381 2.509 1.344 2.547-.029.029-8.873-2.178-10.303-2.57-.243-.068-.29-.141-1.017-1.605-1.774-3.567-2.03-3.995-4.051-6.757a833.044 833.044 0 0 1-1.508-2.066c-.185-.255-.26-.42-.219-.48.187-.272 2.868-4.074 3.084-4.373.14-.194.737-1.033 1.326-1.864 1.456-2.052 1.702-2.36 1.881-2.36.11 0 .139.034.11.128zm88.774 21.713c-.413.134-10.682 1.367-14.081 1.692-.22.02-1.072.104-1.892.186-19.99 1.98-44.238 2.534-66.294 1.512-5.828-.27-12.696-.725-17.866-1.184l-2.474-.22c-4.21-.374-10.87-1.126-15.38-1.736-.894-.12-1.688-.22-1.765-.22-.135 0-.138.253-.138 11.97V75.8l.164.034c.384.083 4.776.656 8.205 1.07 14.444 1.746 27.941 2.71 42.57 3.043 4.28.097 18.104.05 21.577-.074 13.826-.495 23.854-1.223 36.276-2.635 4.309-.49 11.098-1.374 11.178-1.455.031-.032.043-23.935.012-23.96-.011-.01-.052-.005-.092.007zm-6.267 8.936c.285.145.646.374.802.51l.284.247-.173.286c-.096.157-.349.544-.563.86l-.388.573-.413-.322c-.541-.422-.802-.52-1.265-.474-.473.046-.786.349-.786.762 0 .416.216.565 1.389.954.577.192 1.204.434 1.394.538.51.28.995.803 1.248 1.348.204.438.223.545.221 1.22-.003.665-.025.787-.226 1.226-.544 1.192-1.602 1.838-3.009 1.84-.721 0-1.414-.172-1.936-.48-.39-.232-1.266-1.048-1.261-1.176.001-.044.309-.412.683-.817l.679-.737.207.25c.565.681.944.907 1.593.946.748.046 1.229-.337 1.219-.97-.008-.594-.297-.813-1.582-1.198-1.709-.51-2.434-1.174-2.663-2.433-.156-.858.086-1.655.71-2.331.563-.612 1.061-.858 1.916-.945.741-.075 1.331.024 1.92.323zM11.061 60.8c1.043.362 1.96 1.148 2.54 2.177.174.31.302.58.283.6-.02.02-.402.267-.851.55l-.816.514-.123-.229c-.517-.964-1.059-1.527-1.644-1.706-.164-.05-.577-.091-.917-.092-.52 0-.685.03-1.033.196-1.234.588-1.912 2.15-1.548 3.57.233.908.706 1.508 1.48 1.876.364.172.498.194 1.21.194.81 0 1.369-.129 1.559-.362.043-.053.1-.296.124-.54l.046-.445-.573-.049c-.316-.026-.778-.068-1.029-.092l-.454-.043.005-.38c.008-.578.1-1.51.156-1.565.06-.06 4.003.255 4.07.325.024.026-.015.763-.089 1.637s-.135 1.67-.137 1.77c-.004.254-.802 1.02-1.334 1.282-1.268.623-3.06.669-4.37.112-.526-.224-1.196-.717-1.636-1.206-.418-.464-.9-1.397-1.07-2.069-.142-.567-.146-1.803-.006-2.414.38-1.66 1.63-3.085 3.161-3.602.65-.22.655-.22 1.614-.196.706.018 1.015.06 1.382.187zm16.313.797a938.14 938.14 0 0 0 2.678 7.888c.408 1.179.76 2.201.78 2.272.036.119-.017.126-.642.09a48.683 48.683 0 0 1-1.128-.079l-.447-.039-.258-.752c-.142-.414-.56-1.667-.929-2.785s-.692-2.058-.72-2.09c-.026-.03-.19.252-.364.629a341.45 341.45 0 0 1-.979 2.09c-.364.771-.793 1.694-.952 2.05l-.29.646-.254-.034c-.14-.02-.64-.056-1.11-.083-.47-.026-.855-.073-.855-.104 0-.03.446-.982.99-2.115a611.245 611.245 0 0 0 1.339-2.8c.968-2.054 1.485-3.152 2.075-4.414.357-.762.666-1.386.688-1.386.021 0 .192.457.378 1.016zm65.233.183c.557.578 1.955 2.017 3.106 3.196 2.049 2.098 2.093 2.138 2.056 1.849-.096-.756-.332-5.088-.28-5.138.033-.031.491-.08 1.018-.109l.958-.052.043.396c.094.856.701 10.503.664 10.54-.021.022-1.431-1.382-3.132-3.12-2.725-2.786-3.093-3.136-3.093-2.95 0 .116.066 1.323.145 2.681.08 1.36.133 2.482.12 2.496-.047.047-1.975.145-2.019.102-.024-.024-.115-1.39-.203-3.036-.273-5.106-.368-6.815-.408-7.37-.022-.295-.028-.536-.014-.536s.482.473 1.039 1.051zm-5.84.98c.959 2.139 1.012 2.256 2.675 5.886.757 1.651 1.376 3.035 1.376 3.074 0 .088-2.108.2-2.185.116-.03-.033-.587-1.24-1.236-2.683-.649-1.443-1.203-2.648-1.23-2.679-.027-.03-.308.684-.623 1.589-.316.904-.766 2.18-1 2.834l-.428 1.19-.772.047c-1.3.081-1.5.07-1.441-.081.142-.361 1.254-3.428 1.747-4.822l1.319-3.714c.415-1.17.755-2.14.755-2.157 0-.142.164-.42.215-.366.036.037.408.832.828 1.767zm20.522-1.57c.022.133.063.577.089.989l.049.748-.572.048c-.316.027-.782.069-1.038.093l-.465.045.044.674c.06.916.399 5.384.475 6.252.033.386.055.711.047.722-.028.039-2.004.187-2.038.153-.019-.02-.149-1.58-.288-3.467-.333-4.519-.295-4.224-.536-4.177-.107.021-.576.06-1.042.087l-.848.049-.045-.73c-.025-.4-.058-.853-.073-1.005-.019-.188.001-.277.063-.277.181 0 3.158-.227 4.261-.325a36.446 36.446 0 0 1 1.502-.11c.367-.008.375-.004.415.232zm-89.98.098.826.05-.044.452c-.024.25-.111 1.418-.195 2.596a702.905 702.905 0 0 1-.244 3.363c-.051.67-.073 1.239-.05 1.263.025.024.716.084 1.537.133.82.05 1.602.11 1.738.133l.246.043-.052.968c-.028.533-.06.977-.07.987-.009.01-.931-.048-2.05-.128-1.117-.08-2.384-.168-2.814-.195-.567-.036-.782-.075-.782-.145 0-.053.147-2.1.326-4.552.18-2.45.333-4.572.341-4.714.02-.352.045-.384.267-.341.107.02.565.06 1.02.087zm20.824 1.209c.735.23 1.295.578 1.908 1.185l.564.557-.615.7c-.338.386-.65.713-.693.728-.043.014-.301-.187-.574-.449-.673-.645-1.05-.823-1.816-.857-.699-.031-1.083.082-1.624.48-.871.64-1.346 2.107-1.055 3.257.264 1.044.99 1.811 1.955 2.062.86.224 1.666-.012 2.56-.751.23-.192.444-.319.474-.284.173.204 1.098 1.5 1.098 1.54 0 .18-1.181 1.017-1.765 1.251-.703.282-1.225.363-2.055.318-1.945-.106-3.5-1.328-4.157-3.266-.26-.767-.322-2.014-.14-2.808.363-1.587 1.564-3.02 2.987-3.566.882-.338 2.057-.377 2.948-.097zm42.162 1.206c.08 1.926.26 7.51.262 8.043v.488l-1 .043c-.55.023-1.01.031-1.023.019-.023-.024-.17-4.299-.274-7.925l-.05-1.79.864-.024c.476-.012.934-.03 1.018-.039.149-.015.155.022.203 1.185zm-36.056-1.008c.052.05-.222 9.595-.277 9.654-.029.03-.502.033-1.05.007l-.998-.049.04-.968c.022-.532.089-2.693.149-4.802.06-2.11.121-3.855.136-3.88.03-.047 1.95-.012 2 .038zm29.006.07c1.188.314 2.14 1.017 2.886 2.13.2.298.201.306.061.405-.079.055-.43.329-.781.608-.352.28-.655.509-.675.51-.02 0-.132-.153-.25-.34-.3-.485-.842-1.012-1.227-1.196a2.957 2.957 0 0 0-.8-.207c-1.92-.2-3.373 1.728-2.85 3.779.214.84.719 1.48 1.488 1.884.687.361 2.092.263 2.784-.194.269-.178.272-.187.272-.66v-.48h-2.11v-1.971l1.322-.049a72.623 72.623 0 0 1 2.063-.048h.74l.052 1.782.052 1.782-.195.306c-.936 1.464-3.545 2.19-5.462 1.521-1.151-.402-2.132-1.302-2.674-2.453-.412-.873-.514-1.32-.51-2.236.005-.918.145-1.497.575-2.37.623-1.266 1.898-2.28 3.196-2.542.51-.103 1.585-.083 2.043.038zm-20.823.11c.034.032.039.49.01 1.018l-.053.96-2.011-.032a158.864 158.864 0 0 1-3.057-.075l-1.045-.043.044-.27c.024-.147.044-.592.044-.987l.001-.72 3.002.046c1.65.024 3.03.07 3.065.103zm6.127.077a2.967 2.967 0 0 1 2.28 2c.22.664.214 1.732-.014 2.368-.272.76-.734 1.367-1.284 1.687-.076.044-.083.087-.026.158.139.174 2.06 3.377 2.06 3.435 0 .016-.55.02-1.22.009l-1.218-.02-1.073-1.81-1.073-1.811v-.794l-.001-.795h.697c.667 0 .705-.008.902-.209.346-.351.474-1.157.264-1.666a1.178 1.178 0 0 0-.343-.421c-.22-.16-.334-.179-1.209-.204l-.965-.03-.019 3.87-.019 3.87-1.018-.027c-.56-.015-1.028-.034-1.038-.043-.01-.01.004-2.184.03-4.832l.049-4.815h1.903c1.056 0 2.096.035 2.335.08zm-8.972 3.585 2.604.047-.02.996-.02.997-1.056-.007c-.58-.004-1.915-.03-2.965-.056l-1.91-.048v-.236c0-.13.02-.586.046-1.012l.047-.776.335.024c.185.014 1.507.046 2.94.071zm1.417 3.992 1.328.044v1.994l-2.912-.055c-1.601-.03-2.985-.058-3.074-.063-.16-.008-.163-.03-.175-.968-.006-.527.002-.981.019-1.01.03-.05 2.35-.022 4.814.058z" fill="#fff"/></svg>