<?xml version="1.0" encoding="UTF-8" standalone="no"?>
<!DOCTYPE svg PUBLIC "-//W3C//DTD SVG 1.1//EN" "http://www.w3.org/Graphics/SVG/1.1/DTD/svg11.dtd">
<svg width="100%" height="100%" viewBox="0 0 250 120" version="1.1" xmlns="http://www.w3.org/2000/svg" xmlns:xlink="http://www.w3.org/1999/xlink" xml:space="preserve" xmlns:serif="http://www.serif.com/" style="fill-rule:evenodd;clip-rule:evenodd;stroke-linejoin:round;stroke-miterlimit:2;">
    <g id="Ebene-1" serif:id="Ebene 1" transform="matrix(0.876847,0,0,0.876847,-190.665,-200.773)">
        <g transform="matrix(1,0,0,1,275.311,262.079)">
            <path d="M0,-0.063C0,-2.84 -0.521,-5.294 -1.549,-7.358C-2.563,-9.393 -3.982,-10.97 -5.77,-12.049C-7.566,-13.132 -9.688,-13.682 -12.076,-13.682C-14.465,-13.682 -16.586,-13.132 -18.382,-12.049C-20.17,-10.969 -21.591,-9.392 -22.603,-7.358C-23.63,-5.296 -24.152,-2.842 -24.152,-0.063C-24.152,2.714 -23.63,5.168 -22.603,7.23C-21.589,9.266 -20.169,10.844 -18.382,11.921C-16.588,13.005 -14.467,13.555 -12.075,13.555C-9.684,13.555 -7.563,13.005 -5.769,11.921C-3.982,10.844 -2.562,9.266 -1.547,7.23C-0.52,5.167 0.001,2.712 0,-0.063M10.728,-0.063C10.728,4.435 9.718,8.539 7.728,12.139C5.732,15.748 2.968,18.592 -0.491,20.593C-3.942,22.59 -7.838,23.604 -12.074,23.604C-16.31,23.604 -20.208,22.591 -23.658,20.593C-27.115,18.593 -29.88,15.748 -31.876,12.138C-33.866,8.539 -34.875,4.435 -34.875,-0.063C-34.875,-4.561 -33.866,-8.656 -31.874,-12.235C-29.88,-15.82 -27.115,-18.654 -23.658,-20.656C-20.205,-22.653 -16.308,-23.667 -12.074,-23.667C-7.842,-23.667 -3.944,-22.654 -0.491,-20.656C2.968,-18.654 5.732,-15.82 7.726,-12.235C9.718,-8.655 10.727,-4.561 10.728,-0.063" style="fill:rgb(17,75,140);fill-rule:nonzero;"/>
        </g>
        <g transform="matrix(1,0,0,1,325.798,251.913)">
            <path d="M0,20.283C0,22.7 -0.614,24.957 -1.822,26.994C-3.036,29.037 -4.848,30.695 -7.208,31.919C-9.544,33.133 -12.411,33.749 -15.726,33.749C-18.976,33.749 -21.928,33.185 -24.5,32.072C-27.108,30.946 -29.229,29.295 -30.804,27.164C-32.386,25.026 -33.3,22.502 -33.522,19.663L-33.598,18.687L-25.333,18.687C-23.805,18.687 -22.445,19.633 -21.947,21.043C-21.628,21.948 -21.108,22.752 -20.404,23.432C-19.334,24.465 -17.929,24.967 -16.104,24.967C-14.496,24.967 -13.319,24.571 -12.504,23.757C-11.69,22.943 -11.294,21.909 -11.294,20.597C-11.294,19.435 -11.61,18.511 -12.261,17.774C-12.966,16.977 -13.875,16.324 -14.967,15.834C-16.148,15.306 -17.81,14.683 -19.907,13.983C-22.701,13.053 -25.025,12.116 -26.815,11.198C-28.696,10.235 -30.315,8.822 -31.628,6.996C-32.97,5.13 -33.65,2.692 -33.65,-0.252C-33.65,-4.332 -32.153,-7.602 -29.198,-9.97C-26.306,-12.289 -22.45,-13.466 -17.737,-13.466C-12.858,-13.466 -8.894,-12.257 -5.956,-9.872C-2.99,-7.464 -1.284,-4.215 -0.884,-0.216L-0.785,0.78L-7.919,0.78C-9.99,0.78 -11.888,-0.33 -12.995,-2.19C-13.254,-2.628 -13.579,-3.032 -13.961,-3.392C-14.882,-4.261 -16.138,-4.684 -17.797,-4.684C-19.221,-4.684 -20.322,-4.333 -21.166,-3.613C-21.966,-2.929 -22.356,-1.932 -22.356,-0.565C-22.356,0.512 -22.052,1.371 -21.428,2.062C-20.741,2.824 -19.848,3.459 -18.772,3.949C-17.611,4.479 -16.005,5.079 -14,5.733C-11.11,6.754 -8.742,7.719 -6.941,8.609C-5.034,9.551 -3.39,10.978 -2.052,12.851C-0.691,14.758 0,17.259 0,20.283" style="fill:rgb(17,75,140);fill-rule:nonzero;"/>
        </g>
        <g transform="matrix(1,0,0,1,366.628,262.079)">
            <path d="M0,-0.063C0,-2.84 -0.521,-5.294 -1.549,-7.358C-2.563,-9.393 -3.982,-10.97 -5.77,-12.049C-7.567,-13.132 -9.688,-13.682 -12.076,-13.682C-14.465,-13.682 -16.586,-13.132 -18.382,-12.049C-20.17,-10.969 -21.591,-9.392 -22.603,-7.358C-23.63,-5.296 -24.152,-2.842 -24.152,-0.063C-24.152,2.714 -23.63,5.168 -22.603,7.23C-21.589,9.266 -20.169,10.844 -18.382,11.921C-16.588,13.005 -14.467,13.555 -12.075,13.555C-9.684,13.555 -7.563,13.005 -5.769,11.921C-3.982,10.844 -2.562,9.266 -1.548,7.23C-0.52,5.167 0.001,2.712 0,-0.063M10.729,-0.063C10.729,4.435 9.719,8.539 7.728,12.139C5.732,15.748 2.968,18.592 -0.491,20.593C-3.942,22.59 -7.838,23.604 -12.074,23.604C-16.31,23.604 -20.208,22.591 -23.658,20.593C-27.115,18.593 -29.88,15.748 -31.876,12.138C-33.866,8.539 -34.875,4.435 -34.875,-0.063C-34.875,-4.561 -33.866,-8.656 -31.874,-12.235C-29.88,-15.82 -27.115,-18.654 -23.658,-20.656C-20.205,-22.653 -16.308,-23.667 -12.074,-23.667C-7.842,-23.667 -3.944,-22.654 -0.491,-20.656C2.968,-18.654 5.732,-15.82 7.727,-12.235C9.718,-8.655 10.728,-4.561 10.729,-0.063" style="fill:rgb(17,75,140);fill-rule:nonzero;"/>
        </g>
        <g transform="matrix(1,0,0,1,410.291,248.106)">
            <path d="M0,28.962L0,29.867C0,34.105 -3.449,37.554 -7.687,37.554L-17.861,37.554C-22.1,37.554 -25.549,34.106 -25.549,29.867L-25.549,-0.904C-25.549,-5.143 -22.1,-8.592 -17.861,-8.592L-14.884,-8.592L-14.884,28.962L0,28.962Z" style="fill:rgb(17,75,140);fill-rule:nonzero;"/>
        </g>
        <g transform="matrix(1,0,0,1,426.252,285.664)">
            <path d="M0,-46.146L0,0L-0.905,0C-6.287,0 -10.665,-4.377 -10.665,-9.759L-10.665,-36.386C-10.665,-41.767 -6.286,-46.146 -0.905,-46.146L0,-46.146Z" style="fill:rgb(17,75,140);fill-rule:nonzero;"/>
        </g>
        <g transform="matrix(1,0,0,1,468.834,262.079)">
            <path d="M0,-0.063C0,-2.84 -0.521,-5.294 -1.549,-7.358C-2.563,-9.393 -3.982,-10.97 -5.77,-12.049C-7.566,-13.132 -9.688,-13.682 -12.076,-13.682C-14.465,-13.682 -16.586,-13.132 -18.382,-12.049C-20.17,-10.969 -21.591,-9.392 -22.603,-7.358C-23.63,-5.296 -24.151,-2.842 -24.151,-0.063C-24.151,2.714 -23.63,5.168 -22.603,7.23C-21.589,9.266 -20.169,10.844 -18.382,11.921C-16.588,13.005 -14.467,13.555 -12.075,13.555C-9.684,13.555 -7.562,13.005 -5.769,11.921C-3.982,10.844 -2.562,9.266 -1.547,7.23C-0.52,5.167 0.001,2.712 0,-0.063M10.729,-0.063C10.729,4.435 9.719,8.539 7.728,12.139C5.732,15.748 2.968,18.592 -0.49,20.593C-3.941,22.59 -7.838,23.604 -12.074,23.604C-16.31,23.604 -20.208,22.591 -23.657,20.593C-27.115,18.593 -29.88,15.748 -31.876,12.138C-33.865,8.539 -34.875,4.435 -34.875,-0.063C-34.875,-4.561 -33.865,-8.656 -31.874,-12.235C-29.88,-15.82 -27.115,-18.654 -23.657,-20.656C-20.204,-22.653 -16.308,-23.667 -12.074,-23.667C-7.842,-23.667 -3.944,-22.654 -0.49,-20.656C2.968,-18.654 5.732,-15.82 7.727,-12.235C9.718,-8.655 10.728,-4.561 10.729,-0.063" style="fill:rgb(17,75,140);fill-rule:nonzero;"/>
        </g>
        <g transform="matrix(1,0,0,1,303.409,338.147)">
            <path d="M0,-33.504C-0.185,-35.459 1.151,-37.277 3.48,-37.496C5.751,-37.711 7.071,-36.483 7.22,-34.918C7.403,-32.961 6.003,-31.193 3.675,-30.975C1.404,-30.76 0.147,-31.938 0,-33.504M-3.361,-3.979L-0.904,-22.649C-0.671,-24.645 0.043,-25.389 1.536,-25.529L2.193,-25.59C3.866,-25.748 5.293,-25.318 5.01,-23.207L2.618,-4.484C2.224,-1.629 2.862,-0.619 5.565,-0.703C5.685,-0.715 5.753,1.928 2.05,2.277C-2.311,2.689 -3.927,0.248 -3.361,-3.979M-22.595,1.67L-19.992,-18.649L-23.158,-18.35C-24.65,-18.209 -25.54,-18.69 -25.63,-19.639C-25.687,-20.254 -25.456,-21.629 -24.911,-22.244C-24.53,-22.676 -24.008,-22.895 -22.873,-23L-19.349,-23.334L-18.939,-26.022C-18.123,-32.695 -14.678,-35.783 -9.601,-36.264C-6.973,-36.512 -5.122,-36.065 -3.947,-35.104C-3.297,-34.602 -2.865,-33.854 -2.796,-33.127C-2.644,-31.506 -4.21,-30.231 -4.405,-30.381C-5.271,-31.258 -7.023,-31.938 -8.875,-31.764C-11.324,-31.533 -12.864,-29.979 -13.354,-26.211L-13.674,-23.869L-8.776,-24.33C-7.224,-24.477 -6.34,-24.053 -6.255,-23.158C-6.192,-22.488 -6.429,-21.168 -6.969,-20.498C-7.35,-20.066 -7.866,-19.793 -9.001,-19.686L-14.078,-19.207L-16.621,1.107C-16.855,3.101 -17.688,3.857 -19.122,3.992L-19.839,4.06C-21.392,4.207 -22.823,3.723 -22.595,1.67" style="fill:rgb(17,75,140);fill-rule:nonzero;"/>
        </g>
        <g transform="matrix(1,0,0,1,314.871,314.189)">
            <path d="M0,15.481L1.699,2.182L-0.272,2.368C-1.766,2.508 -2.655,2.028 -2.744,1.079C-2.803,0.463 -2.63,-0.906 -2.026,-1.527C-1.645,-1.958 -1.123,-2.175 0.012,-2.283L2.282,-2.498L2.554,-4.722C2.96,-8.085 4.152,-9.496 6.662,-9.734C7.976,-9.857 9.039,-9.449 8.994,-9.277L8.195,-3.054L14.288,-3.63C15.841,-3.777 16.725,-3.353 16.81,-2.458C16.872,-1.787 16.636,-0.468 16.096,0.204C15.715,0.633 15.198,0.909 14.063,1.016L7.553,1.629L5.784,14.823C5.268,18.93 6.794,20.422 9.542,20.163C11.154,20.01 12.509,19.036 13.157,18.243C13.326,18.114 14.36,18.862 14.481,20.147C14.571,21.098 14.281,21.858 13.573,22.657C12.647,23.704 10.859,24.549 8.41,24.78C2.496,25.338 -0.876,22.159 0,15.481" style="fill:rgb(17,75,140);fill-rule:nonzero;"/>
        </g>
        <g transform="matrix(1,0,0,1,352.147,312.885)">
            <path d="M0,8.194L2.303,-9.56L-14.396,9.551L0,8.194ZM-1.755,20.257L-0.821,12.895L-17.846,14.501C-18.144,14.53 -19.801,12.938 -19.97,11.149C-20.117,9.585 -19.614,8.522 -17.937,6.503L-2.203,-11.333C-0.298,-13.486 0.72,-14.203 3.407,-14.456C6.992,-14.795 8.303,-13.677 7.969,-10.827L5.545,7.559L9.547,7.18C11.22,7.024 12.108,7.503 12.198,8.454C12.262,9.124 12.03,10.499 11.49,11.171C11.055,11.663 10.468,11.831 9.273,11.942L5.032,12.342L4.056,19.88C3.832,21.985 3.108,22.618 1.556,22.764L0.839,22.831C-0.834,22.989 -1.978,22.364 -1.755,20.257" style="fill:rgb(229,30,37);fill-rule:nonzero;"/>
        </g>
        <g transform="matrix(1,0,0,1,367.428,301.18)">
            <path d="M0,26.633L3.961,-3.569C4.195,-5.565 4.908,-6.308 6.402,-6.449L7.059,-6.511C8.73,-6.668 10.164,-6.183 9.875,-4.126L5.979,26.125C5.586,28.983 6.225,29.992 8.928,29.908C9.047,29.897 9.115,32.539 5.412,32.889C1.051,33.301 -0.564,30.86 0,26.633" style="fill:rgb(17,75,140);fill-rule:nonzero;"/>
        </g>
        <g transform="matrix(1,0,0,1,383.633,329.061)">
            <path d="M0,-31.985C-0.186,-33.941 1.15,-35.758 3.479,-35.978C5.748,-36.192 7.07,-34.964 7.219,-33.399C7.402,-31.443 6.002,-29.676 3.674,-29.455C1.402,-29.24 0.146,-30.42 0,-31.985M-3.363,-2.459L-0.906,-21.129C-0.672,-23.125 0.043,-23.869 1.535,-24.01L2.191,-24.072C3.865,-24.231 5.291,-23.799 5.008,-21.688L2.615,-2.967C2.223,-0.111 2.859,0.9 5.564,0.816C5.684,0.805 5.752,3.447 2.049,3.797C-2.313,4.207 -3.928,1.765 -3.363,-2.459" style="fill:rgb(17,75,140);fill-rule:nonzero;"/>
        </g>
        <g transform="matrix(1,0,0,1,395.026,293.4)">
            <path d="M0,35.643L2.602,15.325L-0.564,15.623C-2.059,15.764 -2.947,15.284 -3.035,14.334C-3.094,13.719 -2.861,12.344 -2.318,11.729C-1.937,11.297 -1.414,11.081 -0.279,10.973L3.244,10.641L3.654,7.952C4.471,1.278 7.916,-1.811 12.994,-2.289C15.621,-2.537 17.471,-2.091 18.646,-1.131C19.297,-0.629 19.729,0.121 19.797,0.847C19.949,2.468 18.383,3.743 18.189,3.593C17.322,2.715 15.57,2.035 13.719,2.21C11.27,2.44 9.729,3.995 9.24,7.764L8.92,10.106L13.818,9.643C15.371,9.497 16.254,9.92 16.338,10.815C16.4,11.487 16.166,12.805 15.625,13.475C15.244,13.907 14.727,14.18 13.592,14.288L8.516,14.766L5.971,35.081C5.738,37.077 4.906,37.831 3.471,37.967L2.756,38.034C1.203,38.18 -0.229,37.696 0,35.643" style="fill:rgb(17,75,140);fill-rule:nonzero;"/>
        </g>
        <g transform="matrix(1,0,0,1,423.141,316.494)">
            <path d="M0,-3.072C9.258,-3.945 11.555,-6.416 11.322,-8.875C11.154,-10.664 9.145,-12.166 5.322,-11.806C0.125,-11.316 -3.854,-7.5 -5.344,-2.849C-3.291,-2.816 -1.553,-2.926 0,-3.072M-11.26,2.783C-12.182,-6.998 -4.924,-15.011 5.23,-15.97C12.1,-16.617 16.326,-13.97 16.744,-9.556C17.256,-4.134 13.742,-0.476 0.9,0.735C-1.189,0.932 -3.41,1.028 -5.936,1.098L-5.842,2.104C-5.439,6.35 -2.428,8.887 2.65,8.407C6.83,8.014 9.496,6.239 11.393,3.354C11.496,3.174 14.178,3.487 14.361,5.442C14.467,6.559 14.172,7.264 13.133,8.377C11.008,10.778 7.773,12.266 2.936,12.723C-5.785,13.545 -10.654,9.211 -11.26,2.783" style="fill:rgb(17,75,140);fill-rule:nonzero;"/>
        </g>
        <g transform="matrix(1,0,0,1,278.882,337.013)">
            <path d="M0,19.371C-0.978,19.371 -1.833,18.654 -1.977,17.658C-2.135,16.565 -1.378,15.551 -0.285,15.392C53.66,7.563 108.652,2.392 163.162,0.023C164.262,0 165.199,0.831 165.247,1.934C165.294,3.038 164.439,3.972 163.335,4.019C108.958,6.384 54.103,11.541 0.29,19.35C0.192,19.364 0.096,19.371 0,19.371" style="fill:rgb(17,75,140);fill-rule:nonzero;"/>
        </g>
    </g>
</svg>
