<svg width="24" height="17" fill="none" xmlns="http://www.w3.org/2000/svg"><path d="M1.248 16.696h21.504A1.327 1.327 0 0 0 24 15.378V1.318A1.32 1.32 0 0 0 22.691 0H1.31A1.32 1.32 0 0 0 0 1.317v14.057c0 .704.557 1.283 1.248 1.322z" fill="#FEFEFE"/><path d="M10.322 10.013v6.683h3.339v-6.683H24v-3.34H13.66V0h-3.338v6.674H0v3.339h10.322z" fill="#C8102E"/><path d="M14.774 5.404V0H22.7a1.325 1.325 0 0 1 1.209.835l-9.135 4.57zM14.774 11.291v5.405h7.978c.526-.03.97-.37 1.157-.835l-9.135-4.57zM9.209 11.291v5.405H1.248a1.323 1.323 0 0 1-1.157-.844l9.118-4.56zM9.209 5.404V0H1.3A1.322 1.322 0 0 0 .091.843L9.21 5.404zM0 5.565h3.326L0 3.9v1.665zM24 5.565h-3.343L24 3.891v1.674zM24 11.13h-3.343L24 12.804V11.13zM0 11.13h3.326L0 12.796V11.13z" fill="#012169"/><path d="m24 1.413-8.283 4.152h1.853L24 2.348v-.935zM8.265 11.13H6.413L0 14.34v.934l8.283-4.144h-.018zM4.574 5.57h1.852L0 2.352v.93L4.574 5.57zM19.404 11.126h-1.852L24 14.356v-.93l-4.596-2.3z" fill="#C8102E"/></svg>