<svg width="24" height="17" fill="none" xmlns="http://www.w3.org/2000/svg"><path fill-rule="evenodd" clip-rule="evenodd" d="M1.317 0h21.361a1.32 1.32 0 0 1 1.318 1.317v14.057c0 .722-.592 1.313-1.313 1.317H1.313A1.315 1.315 0 0 1 0 15.378V1.318A1.32 1.32 0 0 1 1.317 0z" fill="#000"/><path fill-rule="evenodd" clip-rule="evenodd" d="M0 5.565h24v9.813a1.32 1.32 0 0 1-1.317 1.318H1.317A1.32 1.32 0 0 1 0 15.378V5.565z" fill="#D00"/><path fill-rule="evenodd" clip-rule="evenodd" d="M0 11.13h24v4.248c0 .722-.591 1.313-1.313 1.318H1.317A1.322 1.322 0 0 1 0 15.378V11.13z" fill="#FFCE00"/></svg>