<svg width="18" height="18" fill="none" xmlns="http://www.w3.org/2000/svg"><path d="M9 6.3a2.7 2.7 0 1 0 0 5.4 2.7 2.7 0 0 0 0-5.4zm0-1.8a4.5 4.5 0 1 1 0 9 4.5 4.5 0 0 1 0-9zm5.85-.225a1.125 1.125 0 1 1-2.25 0 1.125 1.125 0 0 1 2.25 0zM9 1.8c-2.226 0-2.59.006-3.626.052-.706.033-1.179.128-1.618.299-.39.151-.672.332-.972.633a2.601 2.601 0 0 0-.634.972c-.17.44-.265.913-.298 1.618C1.806 6.368 1.8 6.714 1.8 9c0 2.227.006 2.59.052 3.626.034.705.128 1.18.298 1.617.153.392.333.674.632.972.303.303.585.484.972.633.445.172.918.267 1.62.3.994.047 1.341.052 3.626.052 2.227 0 2.59-.006 3.626-.052.704-.034 1.178-.128 1.617-.298.39-.152.674-.333.973-.632.303-.303.484-.585.633-.972.171-.444.267-.918.299-1.62.047-.993.052-1.34.052-3.626 0-2.227-.006-2.59-.052-3.626-.033-.704-.128-1.18-.299-1.618a2.619 2.619 0 0 0-.633-.972 2.595 2.595 0 0 0-.972-.634c-.44-.17-.914-.265-1.618-.298C11.633 1.805 11.286 1.8 9 1.8zM9 0c2.445 0 2.75.009 3.71.054.958.045 1.61.195 2.185.418A4.388 4.388 0 0 1 16.49 1.51c.458.45.812.994 1.038 1.595.222.573.373 1.227.418 2.185.042.96.054 1.265.054 3.71 0 2.445-.009 2.75-.054 3.71-.045.958-.196 1.61-.418 2.185a4.395 4.395 0 0 1-1.038 1.595c-.45.457-.994.811-1.595 1.038-.573.222-1.227.373-2.185.418-.96.042-1.265.054-3.71.054-2.445 0-2.75-.009-3.71-.054-.958-.045-1.61-.196-2.185-.419A4.402 4.402 0 0 1 1.51 16.49a4.414 4.414 0 0 1-1.037-1.595c-.224-.573-.374-1.227-.419-2.185C.012 11.75 0 11.445 0 9c0-2.445.01-2.75.054-3.71C.1 4.33.25 3.68.473 3.105A4.392 4.392 0 0 1 1.51 1.51c.45-.458.994-.812 1.595-1.038C3.68.25 4.331.1 5.29.054 6.25.012 6.555 0 9 0z" fill="#000"/></svg>