<svg width="18" height="18" fill="none" xmlns="http://www.w3.org/2000/svg"><path d="M9 18a9 9 0 0 1-9-9 9 9 0 0 1 9-9 9 9 0 0 1 9 9 9 9 0 0 1-9 9zm-2.061-2.1a16.11 16.11 0 0 1-1.515-6H1.856a7.207 7.207 0 0 0 5.083 6zm.288-6A14.323 14.323 0 0 0 9 15.977 14.314 14.314 0 0 0 10.773 9.9H7.227zm8.917 0h-3.568a16.11 16.11 0 0 1-1.515 6 7.207 7.207 0 0 0 5.083-6zM1.856 8.1h3.568a16.11 16.11 0 0 1 1.515-6 7.207 7.207 0 0 0-5.083 6zm5.372 0h3.544A14.314 14.314 0 0 0 9 2.023 14.314 14.314 0 0 0 7.227 8.1zm3.833-6a16.11 16.11 0 0 1 1.515 6h3.568a7.208 7.208 0 0 0-5.083-6z" fill="#000"/></svg>