<svg width="320" height="280" fill="none" xmlns="http://www.w3.org/2000/svg"><path d="M90.375 181.147s-27.77-8.418-37.12-4.41c-15.944 6.795-31.815 30.045-32.87 32.024-1.054 1.978 3.872-1.07 3.872-1.07s-14.442 13.301-17.52 19.057c-1.13 2.1 18.695 3.149 18.695 3.149l-3.012 1.286s17.38 3.886 23.377 2.306c0 0-3.515 1.106-3.863 2.108-.349 1.002 17.938 1.411 27.897-5.534 14.25-9.956 27.915-34.612 27.915-34.612l-7.371-14.304z" fill="#40A39D"/><path opacity=".1" d="M90.375 181.147s-27.77-8.418-37.12-4.41c-15.944 6.795-31.815 30.045-32.87 32.024-1.054 1.978 3.872-1.07 3.872-1.07s-14.442 13.301-17.52 19.057c-1.13 2.1 18.695 3.149 18.695 3.149l-3.012 1.286s17.38 3.886 23.377 2.306c0 0-3.515 1.106-3.863 2.108-.349 1.002 17.938 1.411 27.897-5.534 14.25-9.956 27.915-34.612 27.915-34.612l-7.371-14.304z" fill="#000"/><path d="M27.301 203.995c2.172-2.435 4.91-4.479 7.392-6.576 2.483-2.097 4.92-4.156 7.468-6.112 4.41-3.402 9.085-5.997 14.581-7.025 5.496-1.028 10.96-.759 16.443-.369 6.088.484 12.147 1.28 18.156 2.384.234.04.177.459-.07.429-5.867-.687-11.78-1.141-17.677-1.471-5.506-.322-11.082-.586-16.521.405-5.858 1.034-10.82 3.858-15.538 7.416-4.717 3.559-9.113 7.897-14.02 11.221-.181.121-.35-.16-.214-.302z" fill="#000"/><path d="M57.422 192.328a72.058 72.058 0 0 1 24.215-3.87c.18-.003.194.24 0 .274a126.688 126.688 0 0 0-24.05 4.231c-.41.077-.548-.523-.165-.635zM46.393 233.512c6.686-2.278 13.409-3.639 19.326-7.801 6.024-4.221 10.77-10.061 15.418-15.712.11-.091.283.039.192.154-4.325 5.92-8.76 11.942-14.74 16.264-5.793 4.186-13.114 6.453-20.113 7.437a.193.193 0 0 1-.067.003.182.182 0 0 1-.114-.07.182.182 0 0 1-.032-.131.178.178 0 0 1 .069-.115.16.16 0 0 1 .061-.029zM27.054 229.696c15.603-1.207 30.309-7.074 42.122-17.599a.075.075 0 0 1 .05-.003.078.078 0 0 1 .044.028.084.084 0 0 1 .005.098c-10.988 11.248-26.483 18.121-42.231 17.846-.233-.002-.22-.356.01-.37z" fill="#000"/><path d="M92.433 177.819c-4.407 1.112-7.298 7.769-4.013 13.988 3.284 6.219 8.02 7.032 11.56 4.596 3.541-2.436 3.191-8.293 1.7-12.099-1.491-3.806-4.907-7.571-9.247-6.485z" fill="#40A39D"/><path d="M279.565 71.554c3.841-.81 6.037 7.788 5.712 10.265-.324 2.477-26.998 25.868-31.897 28.58-4.899 2.712-53.443 34.205-58.158 36.345-4.715 2.139-38.532 15.786-42.968 17.255-4.437 1.469-50.554 26.972-54.048 28.188-3.493 1.215-6.932-5.864-5.238-8.078 1.693-2.215 50.334-27.065 56.078-29.627 5.743-2.562 39.961-16.405 42.117-16.804 2.156-.4 52.03-34.235 54.963-36.276 11.24-7.783 28.336-28.775 33.439-29.848z" fill="#40A39D"/><path opacity=".5" d="M279.565 71.554c3.841-.81 6.037 7.788 5.712 10.265-.324 2.477-26.998 25.868-31.897 28.58-4.899 2.712-53.443 34.205-58.158 36.345-4.715 2.139-38.532 15.786-42.968 17.255-4.437 1.469-50.554 26.972-54.048 28.188-3.493 1.215-6.932-5.864-5.238-8.078 1.693-2.215 50.334-27.065 56.078-29.627 5.743-2.562 39.961-16.405 42.117-16.804 2.156-.4 52.03-34.235 54.963-36.276 11.24-7.783 28.336-28.775 33.439-29.848z" fill="#000"/><path d="M278.717 73.86c.15-.125.392.055.275.22-2.196 3.11.102 6.004 1.368 8.863.126.287-.24.61-.445.37-2.133-2.512-3.61-6.731-1.198-9.454zM209.066 133.705c11.403-7.498 22.713-15.134 34.098-22.665 11.599-7.66 22.837-15.744 32.953-25.36a.165.165 0 0 1 .109-.016.166.166 0 0 1 .13.162.165.165 0 0 1-.035.105c-9.124 10.201-20.615 17.948-32.005 25.366-11.679 7.609-23.49 15.006-35.211 22.551-.054.065-.135-.083-.039-.143zM159.873 153.129c10.752-5.365 23.044-6.398 33.779-11.915 11.05-5.7 19.448-15.593 31.091-20.26.047-.039.111.065.066.082-11.256 5.421-19.661 15.222-30.728 20.937-10.715 5.53-23.047 6.488-34.015 11.406-.224.118-.377-.156-.193-.25zM113.403 179.414a196.572 196.572 0 0 1 29.745-16.839 132.835 132.835 0 0 1 14.576-5.359c5.5-1.715 11.004-3.511 15.822-6.802.069-.057.167.077.099.123-8.699 6.487-19.94 8.271-29.698 12.598-10.584 4.688-20.284 10.95-30.373 16.586a.172.172 0 0 1-.238-.067.176.176 0 0 1 .067-.24zM99.533 184.5c4.681-3.626 9.883-6.716 14.933-9.778a175.774 175.774 0 0 1 16.298-9.103.081.081 0 0 1 .115.012.084.084 0 0 1 .019.061.086.086 0 0 1-.03.056c-5.142 3.187-10.501 6.105-15.643 9.292-5.142 3.188-10.121 6.757-15.305 9.892-.323.209-.652-.222-.387-.432z" fill="#000"/><path d="M177.074 145.252c7.249-2.764 14.408-5.483 21.379-8.926.069-.057.156.086.09.111a81.11 81.11 0 0 1-21.431 8.969c-.119.08-.158-.112-.038-.154zM132.574 165.615c6.936-4.548 15.096-7.94 22.941-10.515.125-.035.205.172.084.224-3.89 1.573-7.777 3.173-11.589 4.925-3.812 1.753-7.48 3.875-11.262 5.69a.18.18 0 0 1-.247-.074.19.19 0 0 1-.015-.14.183.183 0 0 1 .088-.11zM97.08 188.38a109.386 109.386 0 0 0 18.684-8.334c6.281-3.378 12.593-6.657 18.912-9.94l.023.03c-6.445 3.651-12.858 7.355-19.384 10.859-5.803 3.12-11.732 6.109-18.118 7.767-.258.039-.34-.314-.116-.382zM177.564 150.446a85.32 85.32 0 0 0 14.392-5.491c4.472-2.309 8.259-5.741 12.86-7.806.122-.052.227.125.133.164-4.739 2.492-8.586 6.257-13.385 8.602-4.415 2.165-9.212 3.366-13.927 4.705-.155.059-.199-.139-.073-.174zM238.721 109.944c11.945-6.168 20.799-16.537 31.74-24.14a.133.133 0 0 1 .189.02.137.137 0 0 1-.019.192c-10.148 8.537-19.691 18.422-31.796 24.117a.105.105 0 0 1-.074-.001.111.111 0 0 1-.073-.121.115.115 0 0 1 .033-.067zM222.616 120.099a72.496 72.496 0 0 1 14.521-8.079c.052-.043.116.06.066.082-4.964 2.512-9.703 5.326-14.472 8.175-.136.083-.224-.098-.115-.178zM260.758 91.345a97.27 97.27 0 0 1 13.61-13.578c.052-.043.125.023.062.076-4.571 4.492-9 9.16-13.504 13.675-.112.113-.265-.053-.168-.173z" fill="#000"/><g opacity=".5" fill="#40A39D"><path d="M146 126.592s-11.223-14.266-9.644-25.876c1.966-14.521 25.32-7.523 40.177 3.731 16.692 12.63 31.658 28.378 31.658 28.378s1.695-11.95-10.711-29.135c-8.598-11.91-17.366-6.03-17.366-6.03s-9.682-12.503-26.01-15.329c-12.449-2.14-36.966 6.803-8.104 44.261zM177.065 184.152c2.173 5.764 2.165 17.091-4.921 20.356-20.714 9.535-46.267-28.643-54.996-37.955-36.126-38.513-27.162-7.109-27.162-7.109s-11.838-15.732-4.572-21.117c7.718-5.721 19.397 6.127 36.121 29.295 15.284 21.171 37.769 35.318 48.549 28.817a13.905 13.905 0 0 0 5.14-5.181 14.14 14.14 0 0 0 1.841-7.106z"/><path d="M138.753 78.247s-19.739 3.648-8.608 26.51c0 0-11.857-14.836-7.003-22.052 4.854-7.215 15.611-4.458 15.611-4.458zM183.823 68.193c26.264-12.3 46.625 12.766 57.54 32.78 10.915 20.014 28.285 35.197 53.806 31.912 17.358-2.23 22.728-13.867 14.889-20.23-7.839-6.363-18.295 3.252-29.247 5.26-9.794 1.806-21.746 1.2-33.033-14.435-8.483-11.751-9.077-29.23-27.183-39.18-18.107-9.952-36.772 3.893-36.772 3.893z"/><path d="M299.178 108.434s10.266-3.561 15.46 6.927c.013.018-1.374-15.42-15.46-6.927zM179.787 193.023s1.824 9.022-6.051 12.282c0 0 13.793-2.455 6.051-12.282zM181.686 91.228a2.174 2.174 0 0 1-2.437.112 2.211 2.211 0 0 1-.852-.96 2.248 2.248 0 0 1 .37-2.444 2.186 2.186 0 0 1 1.097-.659c.422-.104.865-.08 1.273.072.408.15.763.42 1.019.776a2.246 2.246 0 0 1-.47 3.103zM100.422 157.181a2.16 2.16 0 0 1-2.428.105 2.205 2.205 0 0 1-.847-.959 2.243 2.243 0 0 1 .373-2.433 2.169 2.169 0 0 1 3.376.19 2.24 2.24 0 0 1 .396 1.648 2.221 2.221 0 0 1-.87 1.449zM284.226 141.606a2.178 2.178 0 0 1-3.29-.849 2.25 2.25 0 0 1 .37-2.444 2.17 2.17 0 0 1 2.37-.587c.408.151.763.421 1.019.776a2.247 2.247 0 0 1-.469 3.104zM145.139 102.837c-.176.13-.385.204-.602.214a1.094 1.094 0 0 1-1.041-.642 1.126 1.126 0 0 1 .187-1.221 1.088 1.088 0 0 1 1.693.095 1.122 1.122 0 0 1-.237 1.554zM277.316 113.777a1.086 1.086 0 0 1-1.459-.292 1.124 1.124 0 0 1 .167-1.496 1.085 1.085 0 0 1 1.604.183 1.124 1.124 0 0 1-.312 1.605zM216.113 76.693a1.086 1.086 0 0 1-1.218.052 1.107 1.107 0 0 1-.425-.48 1.131 1.131 0 0 1 .187-1.222 1.096 1.096 0 0 1 1.185-.292 1.118 1.118 0 0 1 .563 1.623 1.11 1.11 0 0 1-.292.319zM170.77 192.753a1.088 1.088 0 0 1-1.648-.422 1.121 1.121 0 0 1 .187-1.224 1.086 1.086 0 0 1 1.697.103c.171.236.242.532.197.821-.044.29-.2.549-.433.722zM85.881 133.285a1.095 1.095 0 0 1-.842.265 1.086 1.086 0 0 1-.762-.449 1.115 1.115 0 0 1-.191-.872 1.1 1.1 0 0 1 1.29-.875c.27.054.51.209.672.435a1.122 1.122 0 0 1-.167 1.496z"/></g></svg>