<svg width="120" height="240" fill="none" xmlns="http://www.w3.org/2000/svg"><g opacity=".4" fill="#40A39D"><rect width="5.959" height="6.011" rx="2"/><rect x="26.005" width="5.959" height="6.011" rx="2"/><rect x="52.009" width="5.959" height="6.011" rx="2"/><rect x="78.014" width="5.959" height="6.011" rx="2"/><rect x="104.018" width="5.959" height="6.011" rx="2"/><rect y="25.999" width="5.959" height="6.011" rx="2"/><rect x="26.005" y="25.999" width="5.959" height="6.011" rx="2"/><rect x="52.009" y="25.999" width="5.959" height="6.011" rx="2"/><rect x="78.014" y="25.999" width="5.959" height="6.011" rx="2"/><rect x="104.019" y="25.999" width="5.959" height="6.011" rx="2"/><rect y="51.997" width="5.959" height="6.011" rx="2"/><rect x="26.005" y="51.997" width="5.959" height="6.011" rx="2"/><rect x="52.009" y="51.997" width="5.959" height="6.011" rx="2"/><rect x="78.014" y="51.997" width="5.959" height="6.011" rx="2"/><rect x="104.019" y="51.997" width="5.959" height="6.011" rx="2"/><rect y="77.996" width="5.959" height="6.011" rx="2"/><rect x="26.005" y="77.996" width="5.959" height="6.011" rx="2"/><rect x="52.009" y="77.996" width="5.959" height="6.011" rx="2"/><rect x="78.014" y="77.996" width="5.959" height="6.011" rx="2"/><rect x="104.019" y="77.996" width="5.959" height="6.011" rx="2"/><rect y="103.995" width="5.959" height="6.011" rx="2"/><rect x="26.005" y="103.995" width="5.959" height="6.011" rx="2"/><rect x="52.009" y="103.995" width="5.959" height="6.011" rx="2"/><rect x="78.014" y="103.995" width="5.959" height="6.011" rx="2"/><rect x="104.019" y="103.995" width="5.959" height="6.011" rx="2"/><rect y="129.994" width="5.959" height="6.011" rx="2"/><rect x="26.005" y="129.994" width="5.959" height="6.011" rx="2"/><rect x="52.009" y="129.994" width="5.959" height="6.011" rx="2"/><rect x="78.014" y="129.994" width="5.959" height="6.011" rx="2"/><rect x="104.019" y="129.994" width="5.959" height="6.011" rx="2"/><rect y="155.992" width="5.959" height="6.011" rx="2"/><rect y="181.991" width="5.959" height="6.011" rx="2"/><rect y="207.99" width="5.959" height="6.011" rx="2"/><rect y="233.989" width="5.959" height="6.011" rx="2"/><rect x="26.005" y="155.992" width="5.959" height="6.011" rx="2"/><rect x="26.005" y="181.991" width="5.959" height="6.011" rx="2"/><rect x="26.005" y="207.99" width="5.959" height="6.011" rx="2"/><rect x="26.005" y="233.989" width="5.959" height="6.011" rx="2"/><rect x="52.009" y="155.992" width="5.959" height="6.011" rx="2"/><rect x="52.009" y="181.991" width="5.959" height="6.011" rx="2"/><rect x="52.009" y="207.99" width="5.959" height="6.011" rx="2"/><rect x="52.009" y="233.989" width="5.959" height="6.011" rx="2"/><rect x="78.014" y="155.992" width="5.959" height="6.011" rx="2"/><rect x="78.014" y="181.991" width="5.959" height="6.011" rx="2"/><rect x="78.014" y="207.99" width="5.959" height="6.011" rx="2"/><rect x="78.014" y="233.989" width="5.959" height="6.011" rx="2"/><rect x="104.019" y="155.992" width="5.959" height="6.011" rx="2"/><rect x="104.019" y="181.991" width="5.959" height="6.011" rx="2"/><rect x="104.019" y="207.99" width="5.959" height="6.011" rx="2"/><rect x="104.019" y="233.989" width="5.959" height="6.011" rx="2"/></g></svg>