<svg width="16" height="16" fill="none" xmlns="http://www.w3.org/2000/svg"><path d="M8 16A8 8 0 1 1 8 0a8 8 0 0 1 0 16zm-1.832-1.866A14.32 14.32 0 0 1 4.822 8.8H1.65a6.407 6.407 0 0 0 4.518 5.334zM6.424 8.8c.12 1.951.678 3.784 1.576 5.402A12.724 12.724 0 0 0 9.576 8.8H6.424zm7.926 0h-3.172a14.32 14.32 0 0 1-1.346 5.334A6.406 6.406 0 0 0 14.35 8.8zM1.65 7.2h3.172c.1-1.848.557-3.66 1.346-5.334A6.406 6.406 0 0 0 1.65 7.2zm4.775 0h3.15A12.724 12.724 0 0 0 8 1.798 12.724 12.724 0 0 0 6.424 7.2zm3.407-5.334A14.32 14.32 0 0 1 11.178 7.2h3.172a6.406 6.406 0 0 0-4.518-5.334z" fill="#fff"/></svg>