<?xml version="1.0" standalone="no"?>
<!DOCTYPE svg PUBLIC "-//W3C//DTD SVG 20010904//EN"
 "http://www.w3.org/TR/2001/REC-SVG-20010904/DTD/svg10.dtd">
<svg version="1.0" xmlns="http://www.w3.org/2000/svg"
 width="800.000000pt" height="800.000000pt" viewBox="0 0 800.000000 800.000000"
 preserveAspectRatio="xMidYMid meet">
<metadata>
Created by potrace 1.14, written by Peter Selinger 2001-2017
</metadata>
<g transform="translate(0.000000,800.000000) scale(0.100000,-0.100000)"
fill="#000000" stroke="none">
<path d="M3946 7167 c-15 -19 -26 -39 -26 -45 0 -7 -4 -12 -8 -12 -22 0 -162
-250 -234 -420 -41 -96 -96 -264 -128 -390 -12 -47 -25 -92 -30 -101 -4 -9
-25 -56 -45 -105 -20 -49 -47 -111 -59 -139 -12 -27 -33 -76 -45 -108 -13 -31
-27 -59 -31 -62 -4 -3 -16 7 -26 21 -11 15 -28 38 -40 53 -11 14 -58 78 -104
141 -46 63 -87 117 -92 118 -4 2 -8 9 -8 15 0 7 -23 38 -51 69 -105 119 -208
101 -297 -52 -14 -25 -61 -100 -104 -168 -43 -68 -78 -128 -78 -133 0 -5 -4
-9 -10 -9 -5 0 -10 -5 -10 -11 0 -6 -13 -30 -30 -54 -16 -24 -30 -48 -30 -54
0 -6 -4 -11 -10 -11 -5 0 -10 -7 -10 -15 0 -8 -4 -15 -10 -15 -5 0 -10 -5 -10
-11 0 -5 -18 -37 -40 -69 -22 -32 -40 -62 -40 -65 0 -3 -22 -39 -50 -81 -28
-41 -50 -79 -50 -82 0 -4 -13 -22 -29 -41 l-28 -34 -46 18 c-30 11 -58 15 -81
11 -63 -12 -59 -6 -497 -623 -82 -116 -157 -214 -166 -217 -9 -4 -31 -2 -50 5
-62 20 -125 -1 -213 -73 -57 -46 -59 -48 -65 -48 -4 0 -131 -93 -162 -120 -7
-5 -17 -10 -23 -10 -5 0 -10 -3 -10 -7 0 -5 -24 -24 -53 -43 -28 -19 -57 -39
-63 -45 -6 -5 -97 -73 -202 -149 -121 -88 -189 -143 -183 -149 5 -5 21 -11 35
-12 14 -2 43 -6 63 -9 21 -3 65 -8 98 -11 33 -3 80 -8 105 -11 25 -2 63 -7 85
-9 22 -3 67 -7 99 -10 33 -3 73 -8 90 -10 76 -11 156 -18 219 -19 62 -1 70 1
87 24 10 14 21 33 24 43 5 19 1 24 -73 91 l-43 39 7 55 c4 31 9 65 11 76 7 38
14 91 19 143 5 60 25 105 57 127 44 31 52 22 78 -81 33 -137 44 -158 94 -192
69 -48 111 -104 131 -174 48 -177 52 -185 94 -197 20 -5 45 -9 56 -9 11 1 65
-2 120 -5 119 -8 285 -16 410 -21 50 -2 178 -6 285 -10 107 -4 238 -7 290 -6
52 0 104 1 115 1 11 0 281 0 600 -1 654 0 1383 11 1695 26 58 2 155 7 215 10
120 6 234 13 335 20 36 3 97 7 135 10 39 2 88 7 110 10 22 2 72 7 110 10 83 6
144 11 240 21 39 4 88 8 110 9 22 1 40 3 40 4 0 1 20 4 45 6 25 1 70 6 100 9
30 3 75 8 100 11 50 5 131 15 170 20 14 2 54 7 90 10 36 3 79 8 95 11 17 3 48
7 70 9 240 20 345 55 345 114 0 37 -64 105 -155 164 -38 26 -74 50 -80 54 -5
5 -57 32 -115 62 l-105 54 0 321 c0 177 3 326 8 333 4 6 22 15 40 18 96 21
215 104 269 190 54 86 78 228 56 330 -14 67 -64 157 -113 207 -46 45 -143 104
-187 114 -143 30 -197 25 -305 -29 -121 -59 -225 -193 -239 -308 -24 -192 56
-368 205 -452 31 -18 58 -32 61 -33 20 -2 97 -29 105 -36 9 -8 10 -586 1 -595
-2 -2 -47 17 -101 42 -53 25 -98 45 -100 45 -2 0 -51 23 -109 50 -58 28 -114
51 -125 53 -11 2 -24 6 -28 10 -4 4 -7 254 -8 555 -1 604 -4 576 64 588 134
25 282 180 308 321 8 46 9 159 0 193 -21 91 -56 151 -125 218 -149 144 -391
158 -550 33 -58 -47 -101 -96 -118 -138 -8 -17 -18 -34 -24 -38 -5 -3 -10 -16
-10 -29 0 -12 -3 -26 -7 -29 -3 -4 -8 -24 -10 -45 -2 -20 -5 -46 -7 -57 -5
-33 21 -149 45 -200 49 -104 163 -196 291 -235 21 -6 40 -15 43 -20 7 -11 7
-1049 0 -1060 -3 -5 -20 -1 -38 10 -34 19 -343 149 -367 154 -19 4 -25 21 -28
68 -4 65 0 68 87 98 73 24 133 63 185 118 36 37 84 121 91 157 2 11 4 20 5 20
4 0 11 47 14 100 11 206 -141 400 -344 441 -77 16 -191 1 -263 -33 -53 -26
-126 -78 -140 -100 -4 -6 -14 -19 -22 -27 -50 -50 -95 -202 -88 -295 8 -109
72 -238 147 -296 15 -11 32 -25 39 -31 21 -19 88 -51 135 -65 45 -13 58 -27
63 -69 3 -20 0 -24 -15 -22 -19 4 -133 47 -201 77 -16 7 -61 26 -99 41 -66 28
-71 33 -172 162 -57 73 -104 135 -104 137 0 3 -10 16 -22 31 -13 14 -67 87
-120 162 -54 75 -101 142 -106 148 -5 5 -15 21 -22 35 -7 13 -16 26 -19 29 -3
3 -40 57 -81 120 -41 63 -78 117 -81 120 -3 3 -12 16 -19 30 -7 14 -37 62 -67
107 -70 108 -252 403 -335 543 -98 165 -234 385 -290 468 -103 150 -136 170
-182 109z m149 -251 c41 -71 75 -132 75 -137 0 -5 5 -9 10 -9 6 0 10 -4 10 -9
0 -16 470 -788 634 -1041 23 -36 45 -72 49 -80 4 -8 21 -35 37 -60 71 -109 92
-116 -339 103 -248 125 -404 210 -410 222 -6 11 -13 94 -16 185 -7 199 -10
240 -19 260 -4 8 -53 51 -109 95 -119 94 -116 84 -80 258 13 62 26 127 29 146
3 18 8 43 10 55 2 11 10 49 16 84 7 34 16 61 20 60 4 -2 42 -61 83 -132z
m2500 -492 c207 -98 254 -370 92 -535 -158 -161 -432 -109 -529 100 -16 34
-22 67 -22 126 -1 88 3 103 34 164 77 153 271 219 425 145z m-3680 -312 c11
-7 95 -139 95 -148 0 -17 275 -406 292 -412 4 -2 8 -10 8 -17 0 -7 3 -15 8
-17 8 -3 227 -298 307 -413 101 -145 134 -173 277 -235 51 -22 102 -45 113
-49 11 -5 61 -26 110 -46 129 -54 171 -76 253 -138 l73 -55 -63 -7 c-35 -5
-76 -9 -93 -10 -16 -2 -46 -5 -65 -9 -19 -3 -57 -8 -85 -11 -27 -3 -84 -10
-125 -15 -41 -6 -102 -12 -134 -16 -33 -3 -68 -9 -77 -15 -10 -5 -89 -96 -175
-202 -87 -105 -172 -205 -188 -220 -17 -16 -75 -51 -129 -77 l-98 -49 5 32 c7
36 11 54 56 222 18 66 33 125 34 130 1 6 10 36 20 68 24 83 19 105 -34 145
-90 67 -117 100 -144 175 -14 40 -28 88 -30 107 -3 19 -13 73 -21 120 -8 47
-18 101 -21 120 -3 19 -10 60 -15 90 -6 30 -12 69 -15 85 -8 48 -11 68 -18
105 -22 120 -29 157 -32 175 -10 60 -14 87 -29 159 -8 44 -18 93 -20 110 -3
17 -11 58 -17 91 -6 33 -12 69 -14 80 -3 26 -15 92 -19 116 -2 11 -7 24 -10
29 -7 12 5 13 20 2z m4256 -418 c161 -81 229 -269 155 -431 -116 -256 -463
-260 -594 -8 -23 43 -26 63 -27 140 0 75 4 98 24 139 65 132 176 199 318 191
52 -3 87 -12 124 -31z m-1148 -18 c136 -47 227 -167 230 -301 3 -206 -154
-358 -354 -342 -39 3 -76 10 -82 15 -7 6 -15 11 -20 11 -39 3 -127 81 -157
140 -24 45 -47 126 -44 156 7 85 33 163 66 199 10 11 18 23 18 27 0 13 90 71
139 90 52 19 155 22 204 5z m-3957 -493 c-3 -10 -15 -54 -27 -98 -13 -44 -26
-82 -29 -85 -3 -3 -5 -18 -5 -33 1 -29 27 -58 155 -167 120 -102 121 -104 115
-173 -3 -34 -7 -73 -10 -87 -2 -14 -7 -54 -11 -90 -7 -65 -9 -88 -19 -169 -5
-40 -2 -46 30 -76 19 -18 48 -39 65 -46 16 -8 30 -17 30 -21 0 -5 5 -8 10 -8
6 0 16 -5 23 -10 7 -6 77 -52 156 -103 l144 -92 44 -79 c23 -43 43 -82 43 -86
0 -4 -104 19 -231 51 -128 33 -241 61 -253 64 -190 41 -207 52 -266 170 -25
50 -69 132 -98 182 -54 93 -243 366 -262 378 -20 13 -9 53 30 106 22 30 46 63
54 74 8 11 48 67 90 125 41 58 78 110 83 115 4 6 28 39 53 75 54 79 72 100 83
100 5 0 6 -8 3 -17z"/>
<path d="M11 3756 c-8 -10 -11 -220 -10 -785 1 -841 -2 -800 57 -802 15 0 36
-2 47 -5 11 -2 40 -6 65 -9 25 -3 61 -8 80 -12 19 -3 51 -7 70 -8 19 -2 55 -6
80 -10 25 -3 65 -8 90 -10 25 -3 59 -7 75 -10 28 -4 49 -7 170 -20 25 -3 64
-7 88 -10 23 -3 63 -7 90 -10 26 -3 66 -7 90 -10 23 -3 67 -7 97 -9 30 -3 75
-7 100 -10 25 -3 77 -8 115 -11 39 -3 88 -8 110 -11 22 -2 65 -6 95 -8 30 -3
84 -7 120 -10 36 -3 94 -8 130 -11 36 -2 99 -7 140 -10 996 -76 1989 -95 3110
-60 165 5 518 22 630 30 36 3 112 7 170 10 58 3 126 8 151 10 26 3 82 7 125
10 44 2 104 7 134 10 30 2 84 7 120 10 72 5 159 13 235 20 28 2 84 7 125 11
109 10 125 12 125 13 0 1 27 4 60 6 56 4 90 8 190 20 36 5 73 9 175 20 107 11
148 15 175 19 57 8 130 17 171 21 23 2 55 7 70 9 16 3 56 9 89 12 33 4 70 10
83 15 13 5 21 5 18 1 -6 -11 114 14 125 25 5 5 8 356 7 794 l-3 784 -30 -1
c-16 0 -55 -4 -85 -8 -30 -4 -66 -9 -80 -11 -14 -2 -50 -6 -80 -10 -30 -4 -66
-8 -80 -10 -68 -8 -147 -18 -163 -21 -30 -5 -150 -18 -179 -18 -16 -1 -28 -3
-28 -6 0 -5 -88 -13 -157 -14 -18 -1 -33 -3 -33 -6 0 -3 -12 -5 -27 -6 -25 0
-71 -4 -223 -19 -25 -2 -79 -7 -120 -10 -41 -3 -91 -8 -110 -10 -51 -5 -175
-15 -255 -20 -64 -4 -158 -11 -290 -20 -286 -21 -743 -42 -1062 -50 -95 -2
-176 -6 -180 -8 -12 -7 -1623 -4 -1623 2 0 3 -64 7 -143 7 -186 2 -470 13
-747 29 -41 3 -120 7 -175 10 -55 3 -127 7 -160 10 -33 3 -100 8 -150 11 -49
3 -115 7 -145 9 -30 3 -91 7 -135 10 -44 3 -100 7 -125 10 -25 3 -74 7 -110
10 -74 6 -126 11 -220 20 -36 4 -85 8 -110 10 -25 2 -65 6 -90 9 -125 14 -168
19 -195 21 -16 2 -55 6 -85 10 -30 4 -71 8 -90 10 -19 2 -89 11 -155 19 -66 9
-137 18 -157 21 -21 3 -57 8 -80 11 -24 3 -55 7 -69 10 -15 2 -32 -2 -38 -10z"/>
<path d="M7328 1995 c-2 -1 -32 -6 -68 -9 -73 -8 -104 -12 -170 -21 -25 -4
-58 -8 -75 -10 -16 -1 -55 -6 -85 -10 -30 -3 -71 -8 -90 -10 -19 -2 -55 -6
-80 -10 -25 -3 -65 -8 -90 -10 -25 -2 -65 -7 -90 -10 -25 -3 -70 -8 -100 -11
-30 -3 -71 -7 -90 -9 -19 -2 -62 -7 -95 -10 -33 -3 -71 -8 -85 -10 -14 -3 -61
-7 -105 -10 -44 -3 -96 -8 -115 -10 -19 -2 -69 -7 -110 -10 -41 -3 -97 -8
-125 -10 -27 -3 -88 -7 -135 -11 -47 -3 -107 -7 -135 -9 -27 -2 -88 -6 -135
-9 -47 -3 -114 -8 -150 -11 -310 -26 -764 -38 -1375 -38 -446 -1 -648 3 -965
17 -52 3 -160 7 -240 11 -80 3 -170 8 -200 10 -30 2 -84 6 -120 9 -133 9 -226
16 -275 21 -27 3 -81 8 -120 11 -38 3 -83 7 -100 9 -16 1 -75 6 -130 10 -55 4
-108 9 -117 10 -9 2 -49 6 -90 10 -40 3 -91 8 -113 12 -22 3 -58 7 -80 9 -22
2 -56 5 -75 8 -19 3 -62 7 -95 11 -33 3 -75 8 -92 11 -18 2 -48 6 -65 8 -18 3
-60 8 -93 11 -33 3 -73 8 -90 11 -16 3 -52 7 -79 9 -27 2 -60 6 -75 9 -14 3
-51 8 -81 12 -30 3 -57 7 -60 9 -3 2 -12 0 -19 -5 -11 -6 -9 -12 8 -26 32 -27
62 -54 176 -159 142 -131 146 -134 220 -200 37 -33 86 -78 109 -100 24 -22 80
-74 126 -115 46 -41 101 -92 124 -113 46 -44 90 -66 144 -73 21 -2 51 -7 67
-9 17 -3 100 -8 185 -11 154 -6 179 -11 165 -34 -6 -9 -49 -11 -169 -7 -88 4
-180 9 -204 12 -23 3 -42 2 -42 -1 0 -7 33 -38 156 -151 50 -45 114 -105 143
-132 33 -31 66 -53 86 -57 31 -5 564 2 730 11 44 2 130 7 190 10 61 3 135 8
165 10 30 2 100 7 155 10 55 4 120 8 145 10 150 12 209 17 245 21 22 2 69 6
105 9 36 3 81 8 101 10 20 3 59 8 85 10 49 5 87 10 166 21 24 3 63 7 88 9 25
2 45 4 45 5 0 1 14 4 30 6 17 2 46 6 65 9 19 3 53 7 75 10 63 8 87 12 130 19
22 4 67 11 100 16 33 6 71 12 85 14 14 2 52 9 85 15 33 6 74 13 90 15 17 3 89
17 160 31 72 15 144 29 160 31 17 3 44 9 60 14 17 5 55 14 85 19 30 6 64 13
75 15 11 2 67 16 125 31 58 14 116 28 130 31 14 3 34 8 45 11 11 4 25 8 30 9
6 1 62 16 125 34 63 17 122 33 130 35 95 23 609 191 745 244 11 5 81 32 155
60 74 29 158 63 187 77 28 13 54 24 56 24 5 0 90 39 242 110 44 20 89 46 100
56 12 10 16 16 10 13 -10 -6 -250 -89 -270 -94 -5 -1 -17 -5 -25 -8 -16 -6
-190 -59 -275 -84 -27 -8 -61 -19 -75 -24 -47 -16 -471 -123 -575 -145 -11 -2
-31 -6 -45 -9 -14 -4 -34 -8 -45 -10 -11 -3 -51 -12 -90 -20 -38 -9 -81 -18
-95 -21 -14 -2 -36 -7 -50 -9 -14 -3 -36 -8 -50 -10 -14 -3 -36 -7 -50 -10
-14 -3 -41 -8 -60 -11 -19 -4 -44 -8 -55 -11 -60 -12 -174 -33 -200 -37 -16
-3 -46 -8 -65 -11 -19 -4 -44 -8 -55 -10 -11 -1 -47 -7 -80 -13 -33 -6 -82
-14 -110 -18 -27 -3 -59 -8 -70 -10 -11 -3 -36 -7 -55 -9 -19 -3 -48 -7 -65
-10 -16 -3 -46 -7 -66 -10 -20 -3 -51 -8 -70 -10 -19 -2 -49 -6 -67 -9 -50 -8
-181 -25 -237 -31 -102 -12 -121 -14 -155 -20 -45 -7 -91 -12 -165 -20 -115
-12 -150 -16 -190 -21 -46 -7 -138 -49 -160 -74 -10 -11 -25 -15 -41 -12 -25
4 -26 8 -21 48 6 56 -9 57 -51 5 -23 -29 -39 -40 -59 -39 -16 0 -47 -7 -71
-16 -43 -15 -44 -15 -68 9 -31 31 -37 31 -79 -1 -32 -24 -35 -24 -68 -10 -30
12 -39 12 -63 0 -29 -15 -69 -10 -58 8 8 13 -24 7 -74 -13 -31 -13 -35 -12
-48 6 -8 11 -12 29 -9 40 12 42 16 80 8 69 -10 -14 -56 -39 -65 -36 -5 1 -8
-3 -8 -8 0 -5 -3 -9 -7 -8 -18 3 -122 -47 -134 -64 -3 -5 -20 -12 -38 -14 -25
-4 -37 0 -52 17 -10 12 -19 25 -19 28 0 11 42 86 54 96 6 6 21 22 33 37 48 63
167 188 179 188 27 0 21 -30 -14 -67 -64 -68 -65 -69 -46 -87 10 -10 16 -32
16 -56 -1 -22 2 -40 6 -40 21 0 75 44 96 79 33 52 44 57 56 27 5 -14 16 -26
24 -26 34 0 28 -35 -14 -83 -11 -12 -19 -24 -18 -27 1 -3 -4 -16 -11 -29 -12
-22 -12 -23 6 -10 58 41 122 95 123 102 0 12 56 67 69 67 12 0 16 -46 3 -52
-4 -1 -24 -24 -45 -49 -36 -45 -46 -69 -28 -69 12 0 73 61 124 124 21 25 45
46 52 46 25 0 16 -33 -18 -70 -31 -33 -57 -71 -57 -84 0 -21 39 4 103 67 93
91 98 94 133 99 22 2 31 -3 43 -24 14 -25 14 -29 -5 -54 -23 -32 -34 -37 -52
-25 -12 7 -12 12 -1 29 24 39 -1 36 -36 -3 -42 -48 -52 -74 -34 -86 16 -10 49
-8 64 4 6 4 25 17 44 30 19 12 59 51 89 87 152 185 167 200 187 200 27 0 16
-35 -26 -75 -47 -47 -124 -144 -118 -150 3 -2 24 12 48 31 49 38 59 41 68 17
5 -11 -7 -28 -40 -56 -44 -36 -59 -69 -38 -81 4 -3 19 6 31 19 13 14 29 25 37
25 7 0 13 4 13 9 0 17 33 24 170 36 77 7 134 13 218 25 40 5 76 9 80 8 4 -1
23 2 42 5 19 4 58 9 85 13 28 3 64 7 80 10 17 2 53 6 80 9 28 4 64 9 80 12 17
3 41 6 55 8 14 1 45 5 70 9 70 12 91 15 145 21 28 4 57 8 65 10 8 2 35 7 60
10 42 5 58 8 120 20 14 3 39 7 55 9 32 5 74 12 128 22 17 3 41 8 52 10 11 2
31 5 45 8 14 3 84 17 155 30 72 14 162 32 200 40 39 8 83 17 98 20 15 3 37 8
50 11 12 3 31 7 42 9 60 13 178 41 325 77 91 23 172 43 180 44 23 6 225 63
320 91 111 33 436 142 475 159 17 7 60 23 98 36 37 13 67 27 67 31 0 6 -55 9
-62 3z m-5285 -587 c22 -11 23 -72 1 -123 -21 -52 -101 -169 -155 -228 -32
-36 -49 -47 -61 -42 -10 4 -18 10 -18 15 0 8 43 72 78 116 54 69 102 139 107
156 4 10 10 18 15 18 4 0 10 13 12 29 10 66 -56 56 -138 -23 -26 -25 -52 -46
-58 -46 -13 0 -37 14 -39 23 -3 9 46 57 82 79 72 45 123 52 174 26z m642 -78
c4 -6 -5 -24 -19 -41 -14 -17 -26 -34 -27 -37 0 -4 -2 -36 -4 -72 -3 -57 -6
-67 -34 -92 -35 -31 -54 -34 -92 -14 -22 11 -31 11 -59 0 -54 -23 -77 -18 -85
17 -7 30 0 42 55 99 36 37 32 42 -15 16 -29 -16 -64 -47 -84 -74 -50 -68 -61
-75 -82 -56 -15 13 -18 13 -31 0 -44 -43 -102 -1 -73 53 8 14 25 38 40 54 14
15 21 27 15 27 -24 0 -68 -31 -96 -66 -62 -78 -68 -84 -84 -74 -31 19 64 157
125 180 40 15 115 13 121 -4 7 -19 -2 -34 -48 -85 -40 -42 -47 -61 -24 -61 15
0 116 76 116 88 0 4 12 20 26 36 21 24 36 30 73 33 25 1 54 4 65 5 22 4 48
-32 29 -39 -7 -3 -13 -9 -13 -13 0 -5 -18 -28 -40 -52 -48 -53 -38 -74 17 -32
70 53 115 99 141 144 36 64 70 87 87 60z"/>
<path d="M2547 1152 c-34 -35 -34 -52 -2 -52 26 0 45 25 45 59 0 28 -11 26
-43 -7z"/>
<path d="M2795 1230 c-4 -6 -1 -18 6 -26 10 -12 14 -12 20 -2 5 7 9 19 9 26 0
15 -26 16 -35 2z"/>
<path d="M2736 1185 c-43 -43 -40 -73 7 -56 31 12 42 40 24 58 -12 12 -17 12
-31 -2z"/>
</g>
</svg>
